<svg width="28" height="20" viewBox="0 0 28 20" fill="none" xmlns="http://www.w3.org/2000/svg">
<rect x="0.25" y="0.25" width="27.5" height="19.5" rx="1.75" fill="white" stroke="#F5F5F5" stroke-width="0.5"/>
<mask id="mask0_58_2614" style="mask-type:luminance" maskUnits="userSpaceOnUse" x="0" y="0" width="28" height="20">
<rect x="0.25" y="0.25" width="27.5" height="19.5" rx="1.75" fill="white" stroke="white" stroke-width="0.5"/>
</mask>
<g mask="url(#mask0_58_2614)">
<rect x="20" width="8" height="20" fill="#FF3131"/>
<path fill-rule="evenodd" clip-rule="evenodd" d="M0 20H8V0H0V20Z" fill="#FF3131"/>
<path fill-rule="evenodd" clip-rule="evenodd" d="M16.1118 9.22169C15.8786 9.4549 15.4846 9.24401 15.5493 8.92062L16 6.66683L14.6667 7.3335L14 5.3335L13.3333 7.3335L12 6.66683L12.4508 8.92062C12.5154 9.24401 12.1214 9.4549 11.8882 9.22169L11.569 8.90253C11.4389 8.77236 11.2278 8.77236 11.0976 8.90253L10.6667 9.3335L9.33334 8.66683L10 10.0002L9.56905 10.4311C9.43887 10.5613 9.43887 10.7724 9.56905 10.9025L11.3333 12.6668H13.3333L13.6667 14.6668H14.3333L14.6667 12.6668H16.6667L18.431 10.9025C18.5611 10.7724 18.5611 10.5613 18.431 10.4311L18 10.0002L18.6667 8.66683L17.3333 9.3335L16.9024 8.90253C16.7722 8.77236 16.5611 8.77236 16.431 8.90253L16.1118 9.22169Z" fill="#FF3131"/>
</g>
</svg>
