<svg width="28" height="20" viewBox="0 0 28 20" fill="none" xmlns="http://www.w3.org/2000/svg">
<rect x="0.25" y="0.25" width="27.5" height="19.5" rx="1.75" fill="white" stroke="#F5F5F5" stroke-width="0.5"/>
<mask id="mask0_58_2622" style="mask-type:luminance" maskUnits="userSpaceOnUse" x="0" y="0" width="28" height="20">
<rect x="0.25" y="0.25" width="27.5" height="19.5" rx="1.75" fill="white" stroke="white" stroke-width="0.5"/>
</mask>
<g mask="url(#mask0_58_2622)">
<path fill-rule="evenodd" clip-rule="evenodd" d="M14 14.6668C16.5773 14.6668 18.6667 12.5775 18.6667 10.0002C18.6667 7.42283 16.5773 5.3335 14 5.3335C11.4227 5.3335 9.33334 7.42283 9.33334 10.0002C9.33334 12.5775 11.4227 14.6668 14 14.6668Z" fill="#E01B41"/>
<mask id="mask1_58_2622" style="mask-type:luminance" maskUnits="userSpaceOnUse" x="9" y="5" width="10" height="10">
<path fill-rule="evenodd" clip-rule="evenodd" d="M14 14.6668C16.5773 14.6668 18.6667 12.5775 18.6667 10.0002C18.6667 7.42283 16.5773 5.3335 14 5.3335C11.4227 5.3335 9.33334 7.42283 9.33334 10.0002C9.33334 12.5775 11.4227 14.6668 14 14.6668Z" fill="white"/>
</mask>
<g mask="url(#mask1_58_2622)">
<path fill-rule="evenodd" clip-rule="evenodd" d="M9.33335 10.667C10.6667 11.917 12.6667 12.667 14 10.667C15.3333 8.66699 18 8.66699 18.6667 10.667C19.3333 12.667 18.6667 14.667 18.6667 14.667H9.33335C9.33335 14.667 8.00001 9.41699 9.33335 10.667Z" fill="#0E4B9C"/>
</g>
<path opacity="0.75" fill-rule="evenodd" clip-rule="evenodd" d="M6.17308 3.55686C6.26513 3.39743 6.46899 3.3428 6.62842 3.43485L7.20577 3.76818C7.3652 3.86023 7.41983 4.06409 7.32778 4.22353L5.66111 7.11028C5.56907 7.26971 5.3652 7.32433 5.20577 7.23229L4.62842 6.89895C4.46899 6.8069 4.41437 6.60304 4.50641 6.44361L6.17308 3.55686ZM20.7942 3.76818C20.6348 3.86023 20.5802 4.06409 20.6722 4.22353L22.3389 7.11028C22.4309 7.26971 22.6348 7.32433 22.7942 7.23229L23.3716 6.89895C23.531 6.8069 23.5856 6.60304 23.4936 6.44361L21.8269 3.55686C21.7349 3.39743 21.531 3.3428 21.3716 3.43485L20.7942 3.76818ZM19.0622 4.76818C18.9027 4.86023 18.8481 5.06409 18.9402 5.22353L20.6068 8.11028C20.6989 8.26971 20.9027 8.32433 21.0622 8.23229L21.6395 7.89895C21.799 7.8069 21.8536 7.60304 21.7615 7.44361L20.0949 4.55686C20.0028 4.39743 19.799 4.3428 19.6395 4.43485L19.0622 4.76818ZM4.50641 13.5569C4.41437 13.3974 4.46899 13.1936 4.62842 13.1015L5.20577 12.7682C5.3652 12.6761 5.56907 12.7308 5.66111 12.8902L7.32778 15.7769C7.41983 15.9364 7.3652 16.1402 7.20577 16.2323L6.62842 16.5656C6.46899 16.6577 6.26513 16.603 6.17308 16.4436L4.50641 13.5569ZM6.36047 12.1015C6.20104 12.1936 6.14642 12.3974 6.23847 12.5569L7.90513 15.4436C7.99718 15.603 8.20104 15.6577 8.36047 15.5656L8.93782 15.2323C9.09725 15.1402 9.15188 14.9364 9.05983 14.7769L7.39317 11.8902C7.30112 11.7308 7.09725 11.6761 6.93782 11.7682L6.36047 12.1015ZM20.6068 11.8902C20.6989 11.7308 20.9027 11.6761 21.0622 11.7682L21.6395 12.1015C21.799 12.1936 21.8536 12.3974 21.7615 12.5569L20.0949 15.4436C20.0028 15.603 19.799 15.6577 19.6395 15.5656L19.0622 15.2323C18.9027 15.1402 18.8481 14.9364 18.9402 14.7769L20.6068 11.8902ZM22.7942 12.7682C22.6348 12.6761 22.4309 12.7308 22.3389 12.8902L20.6722 15.7769C20.5802 15.9364 20.6348 16.1402 20.7942 16.2323L21.3716 16.5656C21.531 16.6577 21.7349 16.603 21.8269 16.4436L23.4936 13.5569C23.5856 13.3974 23.531 13.1936 23.3716 13.1015L22.7942 12.7682ZM8.36047 4.43485C8.20104 4.3428 7.99718 4.39743 7.90513 4.55686L6.23846 7.44361C6.14642 7.60304 6.20104 7.8069 6.36047 7.89895L6.93782 8.23229C7.09725 8.32433 7.30112 8.26971 7.39317 8.11028L9.05983 5.22353C9.15188 5.06409 9.09725 4.86023 8.93782 4.76818L8.36047 4.43485Z" fill="#262626"/>
</g>
</svg>
