<svg width="40" height="40" viewBox="0 0 40 40" fill="" xmlns="http://www.w3.org/2000/svg">
	<g clip-path="url(#clip0_21_16940)" x="4" y="4" width="34" height="28">
		<path fill-rule="evenodd" clip-rule="evenodd" d="M29 4C33.9706 4 38 8.02944 38 13C38 17.9706 33.9706 22 29 22C28.2777 22 27.5753 21.9149 26.9022 21.7542L25.4119 29.5623C25.142 30.9768 23.9051 32 22.4651 32H9.53489C8.09488 32 6.85799 30.9768 6.58807 29.5623L4.22659 17.1874C4.12306 16.6449 4.47892 16.1212 5.02142 16.0177C5.0832 16.0059 5.14596 16 5.20886 16L9.21571 15.9999L9.23263 15.7805C9.57078 12.0727 12.4807 9.2 16 9.2C17.6202 9.2 19.1037 9.80605 20.2687 10.8161C21.2428 6.90078 24.7826 4 29 4ZM21.2632 17.6008L5.93399 17.6L8.15971 29.2624C8.27728 29.8785 8.78793 30.3355 9.40186 30.3937L9.53489 30.4H22.4651C23.0923 30.4 23.6369 29.9841 23.8092 29.3919L23.8403 29.2624L25.3703 21.2381C23.7601 20.5276 22.3974 19.3588 21.4476 17.897L21.2632 17.6008ZM10.826 15.9258C11.0914 13.0162 13.3364 10.8 16 10.8C17.6039 10.8 19.0459 11.6 20.001 12.8611L20 13L20.0038 13.2654C20.0315 14.222 20.2085 15.1413 20.5123 16.0006L10.8207 16L10.826 15.9258Z" fill="" />
	</g>
	<g clip-path="url(#clip1_21_16940)" x="19" y="3" width="20" height="20">
		<circle cx="29" cy="13" r="10" fill="" />
	</g>
	<defs>
		<clipPath id="clip0_21_16940">
			<rect width="33.7913" height="28" fill="" transform="translate(4.20868 4)" />
		</clipPath>
		<clipPath id="clip1_21_16940">
			<rect width="20" height="20" fill="" transform="translate(19 3)" />
		</clipPath>
	</defs>
</svg>