<svg width="40" height="40" viewBox="0 0 40 40" fill="" xmlns="http://www.w3.org/2000/svg">
	<path fill-rule="evenodd" clip-rule="evenodd" d="M31.7895 6C33.0103 6 34 6.98969 34 8.21053V31.7895C34 33.0103 33.0103 34 31.7895 34H8.21053C6.98969 34 6 33.0103 6 31.7895V8.21053C6 6.98969 6.98969 6 8.21053 6H31.7895ZM31.7895 7.4H8.21053C7.79732 7.4 7.45633 7.7092 7.40632 8.10886L7.4 8.21053V31.7895C7.4 32.2027 7.7092 32.5437 8.10886 32.5937L8.21053 32.6H31.7895C32.2027 32.6 32.5437 32.2908 32.5937 31.8911L32.6 31.7895V8.21053C32.6 7.79732 32.2908 7.45633 31.8911 7.40632L31.7895 7.4ZM17.6714 23.3056C17.8682 23.0321 17.8436 22.6484 17.5976 22.4024C17.3242 22.129 16.881 22.129 16.6076 22.4024L14.206 24.803L11.8058 22.4024L11.7191 22.3286C11.4455 22.1318 11.0619 22.1564 10.8159 22.4024C10.5425 22.6758 10.5425 23.119 10.8159 23.3924L13.216 25.793L10.8159 28.1942L10.7421 28.2809C10.5453 28.5545 10.5699 28.9381 10.8159 29.1841C11.0893 29.4575 11.5325 29.4575 11.8058 29.1841L14.206 26.783L16.6076 29.1841L16.6944 29.2579C16.9679 29.4547 17.3516 29.4301 17.5976 29.1841C17.871 28.9107 17.871 28.4675 17.5976 28.1942L15.196 25.793L17.5976 23.3924L17.6714 23.3056ZM28.2083 27.0243C28.5949 27.0243 28.9083 27.3377 28.9083 27.7243C28.9083 28.0787 28.6449 28.3716 28.3032 28.418L28.2083 28.4243H22.4135C22.0269 28.4243 21.7135 28.1109 21.7135 27.7243C21.7135 27.37 21.9768 27.0771 22.3185 27.0307L22.4135 27.0243H28.2083ZM28.9083 23.8622C28.9083 23.4756 28.5949 23.1622 28.2083 23.1622H22.4135L22.3185 23.1686C21.9768 23.2149 21.7135 23.5078 21.7135 23.8622C21.7135 24.2488 22.0269 24.5622 22.4135 24.5622H28.2083L28.3032 24.5558C28.6449 24.5094 28.9083 24.2166 28.9083 23.8622ZM14.2083 10.6109C14.5626 10.6109 14.8555 10.8742 14.9019 11.2159L14.9083 11.3109L14.908 13.508L17.1026 13.5083C17.4892 13.5083 17.8026 13.8217 17.8026 14.2083C17.8026 14.5626 17.5393 14.8555 17.1976 14.9019L17.1026 14.9083L14.908 14.908L14.9083 17.1026C14.9083 17.4892 14.5949 17.8026 14.2083 17.8026C13.8539 17.8026 13.561 17.5393 13.5147 17.1976L13.5083 17.1026L13.508 14.908L11.3109 14.9083C10.9243 14.9083 10.6109 14.5949 10.6109 14.2083C10.6109 13.8539 10.8742 13.561 11.2159 13.5147L11.3109 13.5083L13.508 13.508L13.5083 11.3109C13.5083 10.9243 13.8217 10.6109 14.2083 10.6109ZM28.9083 14.2083C28.9083 13.8217 28.5949 13.5083 28.2083 13.5083H22.4135L22.3185 13.5147C21.9768 13.561 21.7135 13.8539 21.7135 14.2083C21.7135 14.5949 22.0269 14.9083 22.4135 14.9083H28.2083L28.3032 14.9019C28.6449 14.8555 28.9083 14.5626 28.9083 14.2083Z" fill="" />
	<g clip-path="url(#mask0_19_16936)" x="6" y="6" width="28" height="28">
		<path fill-rule="evenodd" clip-rule="evenodd" d="M31.7895 6C33.0103 6 34 6.98969 34 8.21053V31.7895C34 33.0103 33.0103 34 31.7895 34H8.21053C6.98969 34 6 33.0103 6 31.7895V8.21053C6 6.98969 6.98969 6 8.21053 6H31.7895ZM31.7895 7.4H8.21053C7.79732 7.4 7.45633 7.7092 7.40632 8.10886L7.4 8.21053V31.7895C7.4 32.2027 7.7092 32.5437 8.10886 32.5937L8.21053 32.6H31.7895C32.2027 32.6 32.5437 32.2908 32.5937 31.8911L32.6 31.7895V8.21053C32.6 7.79732 32.2908 7.45633 31.8911 7.40632L31.7895 7.4ZM17.6714 23.3056C17.8682 23.0321 17.8436 22.6484 17.5976 22.4024C17.3242 22.129 16.881 22.129 16.6076 22.4024L14.206 24.803L11.8058 22.4024L11.7191 22.3286C11.4455 22.1318 11.0619 22.1564 10.8159 22.4024C10.5425 22.6758 10.5425 23.119 10.8159 23.3924L13.216 25.793L10.8159 28.1942L10.7421 28.2809C10.5453 28.5545 10.5699 28.9381 10.8159 29.1841C11.0893 29.4575 11.5325 29.4575 11.8058 29.1841L14.206 26.783L16.6076 29.1841L16.6944 29.2579C16.9679 29.4547 17.3516 29.4301 17.5976 29.1841C17.871 28.9107 17.871 28.4675 17.5976 28.1942L15.196 25.793L17.5976 23.3924L17.6714 23.3056ZM28.2083 27.0243C28.5949 27.0243 28.9083 27.3377 28.9083 27.7243C28.9083 28.0787 28.6449 28.3716 28.3032 28.418L28.2083 28.4243H22.4135C22.0269 28.4243 21.7135 28.1109 21.7135 27.7243C21.7135 27.37 21.9768 27.0771 22.3185 27.0307L22.4135 27.0243H28.2083ZM28.9083 23.8622C28.9083 23.4756 28.5949 23.1622 28.2083 23.1622H22.4135L22.3185 23.1686C21.9768 23.2149 21.7135 23.5078 21.7135 23.8622C21.7135 24.2488 22.0269 24.5622 22.4135 24.5622H28.2083L28.3032 24.5558C28.6449 24.5094 28.9083 24.2166 28.9083 23.8622ZM14.2083 10.6109C14.5626 10.6109 14.8555 10.8742 14.9019 11.2159L14.9083 11.3109L14.908 13.508L17.1026 13.5083C17.4892 13.5083 17.8026 13.8217 17.8026 14.2083C17.8026 14.5626 17.5393 14.8555 17.1976 14.9019L17.1026 14.9083L14.908 14.908L14.9083 17.1026C14.9083 17.4892 14.5949 17.8026 14.2083 17.8026C13.8539 17.8026 13.561 17.5393 13.5147 17.1976L13.5083 17.1026L13.508 14.908L11.3109 14.9083C10.9243 14.9083 10.6109 14.5949 10.6109 14.2083C10.6109 13.8539 10.8742 13.561 11.2159 13.5147L11.3109 13.5083L13.508 13.508L13.5083 11.3109C13.5083 10.9243 13.8217 10.6109 14.2083 10.6109ZM28.9083 14.2083C28.9083 13.8217 28.5949 13.5083 28.2083 13.5083H22.4135L22.3185 13.5147C21.9768 13.561 21.7135 13.8539 21.7135 14.2083C21.7135 14.5949 22.0269 14.9083 22.4135 14.9083H28.2083L28.3032 14.9019C28.6449 14.8555 28.9083 14.5626 28.9083 14.2083Z" fill="" />
	</g>
	<clipPath id="mask0_19_16936">
		<rect width="40" height="40" fill="" />
	</clipPath>
</svg>