<svg width="20" height="20" viewBox="0 0 20 20" fill="none" xmlns="http://www.w3.org/2000/svg">
<g clip-path="url(#clip0_196_4855)">
<path d="M17.16 2.27999H14.7V1.75999C14.7 1.25999 14.3 0.859985 13.8 0.859985C13.3 0.859985 12.9 1.25999 12.9 1.75999V2.27999H7.08V1.75999C7.08 1.25999 6.68 0.859985 6.18 0.859985C5.68 0.859985 5.28 1.25999 5.28 1.75999V2.27999H2.84C1.56 2.27999 0.5 3.31998 0.5 4.61998V16.8C0.5 18.08 1.54 19.14 2.84 19.14H17.18C18.46 19.14 19.52 18.1 19.52 16.8V4.61998C19.5 3.31998 18.46 2.27999 17.16 2.27999ZM2.84 4.07998H5.3V4.59998C5.3 5.09999 5.7 5.49998 6.2 5.49998C6.7 5.49998 7.1 5.09999 7.1 4.59998V4.07998H12.92V4.59998C12.92 5.09999 13.32 5.49998 13.82 5.49998C14.32 5.49998 14.72 5.09999 14.72 4.59998V4.07998H17.18C17.48 4.07998 17.72 4.31998 17.72 4.61998V6.99998H2.3V4.61998C2.3 4.31998 2.54 4.07998 2.84 4.07998ZM17.16 17.34H2.84C2.54 17.34 2.3 17.1 2.3 16.8V8.77998H17.72V16.8C17.7 17.1 17.46 17.34 17.16 17.34Z" fill="black"/>
</g>
<defs>
<clipPath id="clip0_196_4855">
<rect width="20" height="20" fill="white"/>
</clipPath>
</defs>
</svg>
