<svg width="26" height="26" viewBox="0 0 26 26" fill="none" xmlns="http://www.w3.org/2000/svg">
<path d="M23.9542 12.8541C23.9083 12.7625 21.2042 8.27081 21.2042 8.27081C21.1125 8.13331 20.975 8.04165 20.7917 8.04165H15.75V6.66665C15.75 6.39165 15.5667 6.20831 15.2917 6.20831H2.45833C2.18333 6.20831 2 6.39165 2 6.66665V19.5C2 19.775 2.18333 19.9583 2.45833 19.9583H3.42083C3.65 21.2416 4.75 22.25 6.125 22.25C7.5 22.25 8.6 21.2416 8.82917 19.9583H16.7125C16.9417 21.2416 18.0417 22.25 19.4167 22.25C20.7917 22.25 21.8917 21.2416 22.1208 19.9583H23.5417C23.8167 19.9583 24 19.775 24 19.5C24 19.5 24 13.175 24 13.0833C24 12.9916 24 12.9458 23.9542 12.8541ZM22.7167 12.625H18.5V10.7916H21.6167L22.7167 12.625ZM2.91667 7.12498H14.8333V19.0416H8.82917C8.6 17.7583 7.5 16.75 6.125 16.75C4.75 16.75 3.65 17.7583 3.42083 19.0416H2.91667V7.12498ZM6.125 21.3333C5.11667 21.3333 4.29167 20.5083 4.29167 19.5C4.29167 18.4916 5.11667 17.6666 6.125 17.6666C7.13333 17.6666 7.95833 18.4916 7.95833 19.5C7.95833 20.5083 7.13333 21.3333 6.125 21.3333ZM19.4167 21.3333C18.4083 21.3333 17.5833 20.5083 17.5833 19.5C17.5833 18.4916 18.4083 17.6666 19.4167 17.6666C20.425 17.6666 21.25 18.4916 21.25 19.5C21.25 20.5083 20.425 21.3333 19.4167 21.3333ZM22.1208 19.0416C21.8917 17.7583 20.7917 16.75 19.4167 16.75C18.0417 16.75 16.9417 17.7583 16.7125 19.0416H15.75V8.95831H20.5167L21.0667 9.87498H18.0417C17.7667 9.87498 17.5833 10.0583 17.5833 10.3333V13.0833C17.5833 13.3583 17.7667 13.5416 18.0417 13.5416H23.0833V19.0416H22.1208Z" fill="#1D1D23"/>
</svg>
