<svg width="26" height="26" viewBox="0 0 26 26" fill="none" xmlns="http://www.w3.org/2000/svg">
<path d="M17.1548 5.71741C13.143 5.71741 9.87476 8.98301 9.87476 13C9.87476 17.0144 13.143 20.2826 17.1548 20.2826C21.1718 20.2826 24.4374 17.0144 24.4374 13C24.4348 8.98301 21.1718 5.71741 17.1548 5.71741ZM17.1548 19.565C13.533 19.565 10.5872 16.6218 10.5872 13C10.5872 9.37821 13.533 6.43241 17.1548 6.43241C20.774 6.43241 23.7198 9.37821 23.7198 13C23.7198 16.6218 20.774 19.565 17.1548 19.565Z" fill="black"/>
<path d="M17.1548 8.7386L17.16 8.736V8.7386C17.2562 8.7386 17.342 8.697 17.4044 8.6346H17.4096C17.4304 8.6112 17.4304 8.5774 17.446 8.5488C17.4772 8.4968 17.511 8.4474 17.511 8.3824V8.3798V6.8848C17.511 6.6872 17.3576 6.526 17.16 6.526H17.1548C16.9624 6.526 16.7986 6.6872 16.7986 6.8848V8.3772V8.3798C16.7986 8.58 16.9598 8.7386 17.1548 8.7386Z" fill="black"/>
<path d="M23.2673 12.6412H21.7749C21.5773 12.6412 21.4187 12.8024 21.4187 13C21.4187 13.1976 21.5773 13.3562 21.7749 13.3562H23.2673C23.4649 13.3562 23.6235 13.1976 23.6235 13C23.6235 12.8024 23.4649 12.6412 23.2673 12.6412Z" fill="black"/>
<path d="M17.1548 17.2614C16.9624 17.2614 16.7986 17.4226 16.7986 17.6176V19.1152C16.7986 19.3102 16.9624 19.4714 17.1548 19.4714C17.3576 19.4714 17.511 19.3102 17.511 19.1152V17.615C17.5084 17.42 17.3576 17.2614 17.1548 17.2614Z" fill="black"/>
<path d="M12.5397 12.6412H11.0421C10.8445 12.6412 10.6833 12.8024 10.6833 13C10.6833 13.1976 10.8471 13.3562 11.0421 13.3562H12.5397C12.7347 13.3562 12.8959 13.1976 12.8959 13C12.8959 12.8024 12.7347 12.6412 12.5397 12.6412Z" fill="black"/>
<path d="M17.5551 12.8388L18.2415 9.17278C18.2779 8.97778 18.1505 8.79318 17.9581 8.75678C17.7631 8.71778 17.5759 8.84518 17.5395 9.04018L16.8037 12.935C16.7777 13.0754 16.8401 13.2132 16.9571 13.2964L19.2971 14.9214C19.3517 14.9656 19.4245 14.9838 19.4947 14.9838C19.6065 14.9838 19.7235 14.9292 19.7937 14.8304C19.9055 14.6666 19.8639 14.443 19.6975 14.3312L17.5551 12.8388Z" fill="black"/>
<path d="M3.09391 7.91178H9.74211C9.93711 7.91178 10.1035 7.75058 10.1035 7.55558C10.1035 7.35798 9.93971 7.19678 9.74211 7.19678H3.09391C2.89631 7.19678 2.73511 7.35798 2.73511 7.55558C2.73511 7.75058 2.89631 7.91178 3.09391 7.91178Z" fill="black"/>
<path d="M11.0059 18.1142H4.35245C4.15745 18.1142 3.99365 18.2728 3.99365 18.4704C3.99365 18.668 4.15745 18.8292 4.35245 18.8292H11.0059C11.2009 18.8292 11.3647 18.668 11.3647 18.4704C11.3647 18.2728 11.2009 18.1142 11.0059 18.1142Z" fill="black"/>
<path d="M8.93374 13C8.93374 12.8024 8.76994 12.6412 8.57234 12.6412H1.92154C1.72654 12.6412 1.56274 12.8024 1.56274 13C1.56274 13.1976 1.72654 13.3562 1.92154 13.3562H8.57494C8.76994 13.3562 8.93374 13.1976 8.93374 13Z" fill="black"/>
</svg>
