<svg width="40" height="40" viewBox="0 0 40 40" fill="" xmlns="http://www.w3.org/2000/svg">
	<g clip-path="url(#mask0_15_13806)" x="12" y="12" width="16" height="16">
		<path d="M27.6846 19.4888L12.8277 12.0599C12.5992 11.9467 12.3249 11.997 12.15 12.1845C11.9786 12.373 11.9512 12.6531 12.0849 12.8702L16.4722 19.9997L12.0848 27.1291C11.9511 27.3463 11.9774 27.6263 12.15 27.8148C12.262 27.936 12.4151 28 12.5717 28C12.6585 28 12.7454 27.9806 12.8277 27.9394L27.6846 20.5105C27.8777 20.4134 28 20.2157 28 19.9997C28 19.7836 27.8777 19.5859 27.6846 19.4888Z" fill="" />
	</g>
	<clipPath id="mask0_15_13806">
		<rect width="40" height="40" transform="matrix(-1 0 0 1 40 0)" fill="" />
	</clipPath>
</svg>