<svg width="24" height="24" viewBox="0 0 24 24" fill="none" xmlns="http://www.w3.org/2000/svg">
<mask id="mask0_21_16941" style="mask-type:luminance" maskUnits="userSpaceOnUse" x="8" y="10" width="8" height="5">
<path d="M8.22341 11.3667C7.92553 11.054 7.92553 10.5471 8.22341 10.2345C8.50001 9.94417 8.9362 9.92343 9.2356 10.1723L9.30213 10.2345L12.0016 13.0678L14.6979 10.2367C14.9745 9.94642 15.4107 9.92569 15.7101 10.1745L15.7766 10.2367C16.0532 10.5271 16.073 10.9849 15.8359 11.2991L15.7766 11.3689L12.5404 14.7655C12.2638 15.0558 11.8276 15.0766 11.5282 14.8277L11.4617 14.7655L8.22341 11.3667Z" fill="white"/>
</mask>
<g mask="url(#mask0_21_16941)">
<rect width="24" height="24" transform="matrix(-1 0 0 1 24 0)" fill="black"/>
</g>
</svg>
