<svg width="40" height="40" viewBox="0 0 40 40" fill="" xmlns="http://www.w3.org/2000/svg">
<path fill-rule="evenodd" clip-rule="evenodd" d="M19.7053 11.3758L19.8001 11.4825L19.8948 11.3757C22.0797 8.98441 25.6366 8.27573 28.6094 9.81423C32.1246 11.6335 33.5777 15.9405 31.9053 19.5591L31.7671 19.8362L31.609 20.0949L31.5158 20.2377L31.3203 20.5223L31.1007 20.8233L30.7957 21.219L30.4552 21.639L30.1535 21.9969L29.6594 22.5625L29.1126 23.166L28.7157 23.5928L28.0777 24.2636L27.6201 24.7353L26.8892 25.4756L26.1028 26.2575L25.26 27.082L24.0502 28.2462L22.7398 29.4868L21.0785 31.0317C20.8386 31.2978 20.5269 31.4792 20.1409 31.5661L19.9945 31.5888L19.8413 31.5995L19.6757 31.5952L19.5528 31.5821C19.2398 31.5375 18.944 31.4069 18.6552 31.163L18.5688 31.0794L16.8559 29.4826L15.5454 28.2417L14.3355 27.0774L13.4928 26.2529L12.7058 25.4704L11.9753 24.7303L11.5171 24.2579L10.8784 23.5862L10.4807 23.1583L9.93115 22.5516L9.43736 21.986L9.1343 21.6259L8.7293 21.1234L8.48666 20.8062L8.26682 20.5037L8.07338 20.2212L7.97912 20.0756L7.80175 19.7798C5.96503 16.1381 7.39047 11.6775 10.9909 9.81423C13.9637 8.27572 17.5206 8.98443 19.7053 11.3758Z" fill=""/>
</svg>
