<svg width="24" height="24" viewBox="0 0 24 24" xmlns="http://www.w3.org/2000/svg">
<circle cx="12" cy="12" r="9.5" fill="#1D1D23"/>
<path d="M11.9502 7C12.141 7 12.3028 7.06887 12.4355 7.2066C12.5765 7.33572 12.6471 7.49498 12.6471 7.68436C12.6471 7.87374 12.5765 8.0373 12.4355 8.17504C12.3028 8.30416 12.141 8.36872 11.9502 8.36872C11.7511 8.36872 11.5811 8.30416 11.44 8.17504C11.3073 8.0373 11.241 7.87374 11.241 7.68436C11.241 7.48637 11.3073 7.32281 11.44 7.19369C11.5728 7.06456 11.7428 7 11.9502 7ZM13.4434 16H10.5566C10.4736 15.8106 10.4819 15.6341 10.5814 15.4706L11.44 15.3027C11.4815 14.8207 11.5023 14.2525 11.5023 13.5983V12.3329C11.5023 11.8336 11.4815 11.2525 11.44 10.5897L10.6561 10.1377C10.5732 10.0172 10.5732 9.88379 10.6561 9.73745L12.5973 9.53085L12.6222 9.77618L12.5351 10.4864C12.5185 10.9168 12.5102 11.5366 12.5102 12.3458V13.637C12.5102 14.1793 12.5351 14.7346 12.5848 15.3027L13.4186 15.4706C13.5181 15.6341 13.5264 15.8106 13.4434 16Z" fill="#1D1D23"/>
</svg>
