<svg width="26" height="26" viewBox="0 0 26 26" fill="none" xmlns="http://www.w3.org/2000/svg">
<path fill-rule="evenodd" clip-rule="evenodd" d="M3.65625 14.1781C2.72919 13.9896 2.03125 13.1706 2.03125 12.1875V9.25031C2.03125 8.99193 2.08081 8.736 2.17669 8.49631C2.40256 7.93 2.91281 6.656 3.27681 5.74601C3.58556 4.97413 4.33225 4.46875 5.16263 4.46875H8.53125V3.25C8.53125 2.57725 9.07725 2.03125 9.75 2.03125C11.3068 2.03125 14.6932 2.03125 16.25 2.03125C16.9228 2.03125 17.4688 2.57725 17.4688 3.25V4.46875H20.8374C21.6678 4.46875 22.4144 4.97413 22.7232 5.74601C23.0872 6.656 23.5974 7.93 23.8233 8.49631C23.9192 8.736 23.9688 8.99193 23.9688 9.25031C23.9688 10.0652 23.9688 12.1875 23.9688 12.1875C23.9688 13.1706 23.2708 13.9896 22.3438 14.1781V21.9375C22.3438 23.0596 21.4346 23.9688 20.3125 23.9688C16.913 23.9688 9.087 23.9688 5.6875 23.9688C4.56544 23.9688 3.65625 23.0596 3.65625 21.9375V14.1781ZM21.5312 14.2188H19.9062C19.2416 14.2188 18.6518 13.8994 18.2812 13.4062C17.9108 13.8994 17.3209 14.2188 16.6562 14.2188C16.0111 14.2188 15.2701 14.2188 14.625 14.2188C13.9604 14.2188 13.3705 13.8994 13 13.4062C12.6295 13.8994 12.0396 14.2188 11.375 14.2188C10.7299 14.2188 9.98887 14.2188 9.34375 14.2188C8.67912 14.2188 8.08925 13.8994 7.71875 13.4062C7.34825 13.8994 6.75838 14.2188 6.09375 14.2188H4.46875V21.9375C4.46875 22.6103 5.01475 23.1562 5.6875 23.1562H14.2188V17.0625C14.2188 16.7391 14.3471 16.4296 14.5754 16.2004C14.8046 15.9721 15.1141 15.8438 15.4375 15.8438C16.3394 15.8438 17.7856 15.8438 18.6875 15.8438C19.0109 15.8438 19.3204 15.9721 19.5496 16.2004C19.7779 16.4296 19.9062 16.7391 19.9062 17.0625V23.1562H20.3125C20.9853 23.1562 21.5312 22.6103 21.5312 21.9375V14.2188ZM19.0938 23.1562V20.7188H17.875C17.6508 20.7188 17.4688 20.5368 17.4688 20.3125C17.4688 20.0882 17.6508 19.9062 17.875 19.9062H19.0938V17.0625C19.0938 16.9544 19.0507 16.8512 18.9751 16.7749C18.8987 16.6993 18.7956 16.6562 18.6875 16.6562C17.7856 16.6562 16.3394 16.6562 15.4375 16.6562C15.3294 16.6562 15.2262 16.6993 15.1499 16.7749C15.0743 16.8512 15.0312 16.9544 15.0312 17.0625V23.1562H19.0938ZM12.5938 17.0625C12.5938 16.7391 12.4654 16.4296 12.2371 16.2004C12.0079 15.9721 11.6984 15.8438 11.375 15.8438C10.2936 15.8438 8.39394 15.8438 7.3125 15.8438C6.98912 15.8438 6.67956 15.9721 6.45044 16.2004C6.22212 16.4296 6.09375 16.7391 6.09375 17.0625C6.09375 17.7702 6.09375 18.7923 6.09375 19.5C6.09375 19.8234 6.22212 20.1329 6.45044 20.3621C6.67956 20.5904 6.98912 20.7188 7.3125 20.7188C8.39394 20.7188 10.2936 20.7188 11.375 20.7188C11.6984 20.7188 12.0079 20.5904 12.2371 20.3621C12.4654 20.1329 12.5938 19.8234 12.5938 19.5V17.0625ZM11.7812 17.0625V19.5C11.7812 19.6081 11.7382 19.7113 11.6626 19.7876C11.5863 19.8632 11.4831 19.9062 11.375 19.9062C10.2936 19.9062 8.39394 19.9062 7.3125 19.9062C7.20444 19.9062 7.10125 19.8632 7.02487 19.7876C6.94931 19.7113 6.90625 19.6081 6.90625 19.5C6.90625 18.7923 6.90625 17.7702 6.90625 17.0625C6.90625 16.9544 6.94931 16.8512 7.02487 16.7749C7.10125 16.6993 7.20444 16.6562 7.3125 16.6562C8.39394 16.6562 10.2936 16.6562 11.375 16.6562C11.4831 16.6562 11.5863 16.6993 11.6626 16.7749C11.7382 16.8512 11.7812 16.9544 11.7812 17.0625ZM7.3125 12.1875V9.74918C7.3125 9.52493 7.49369 9.34375 7.71794 9.34375H7.71956C7.94381 9.34375 8.125 9.52493 8.125 9.74918V12.1875C8.125 12.8603 8.671 13.4062 9.34375 13.4062C9.98887 13.4062 10.7299 13.4062 11.375 13.4062C12.0478 13.4062 12.5938 12.8603 12.5938 12.1875C12.5938 12.1875 12.5938 10.5349 12.5938 9.74918C12.5938 9.52493 12.7749 9.34375 12.9992 9.34375H13.0008C13.2251 9.34375 13.4062 9.52493 13.4062 9.74918V12.1875C13.4062 12.8603 13.9522 13.4062 14.625 13.4062C15.2701 13.4062 16.0111 13.4062 16.6562 13.4062C17.329 13.4062 17.875 12.8603 17.875 12.1875V9.74918C17.875 9.52493 18.0562 9.34375 18.2804 9.34375H18.2821C18.5063 9.34375 18.6875 9.52493 18.6875 9.74918V12.1875C18.6875 12.8603 19.2335 13.4062 19.9062 13.4062C20.5514 13.4062 21.2924 13.4062 21.9375 13.4062C22.6103 13.4062 23.1562 12.8603 23.1562 12.1875C23.1562 12.1875 23.1562 10.0652 23.1562 9.25031C23.1562 9.09512 23.127 8.94157 23.0693 8.79775C22.8426 8.23225 22.3332 6.95824 21.9692 6.04743C21.7839 5.58431 21.3354 5.28125 20.8374 5.28125H17.4688V6.5C17.4688 7.17275 16.9228 7.71875 16.25 7.71875C14.6932 7.71875 11.3068 7.71875 9.75 7.71875C9.07725 7.71875 8.53125 7.17275 8.53125 6.5V5.28125H5.16263C4.66456 5.28125 4.21606 5.58431 4.03081 6.04743C3.66681 6.95824 3.15737 8.23225 2.93069 8.79775C2.873 8.94157 2.84375 9.09512 2.84375 9.25031C2.84375 10.0652 2.84375 12.1875 2.84375 12.1875C2.84375 12.8603 3.38975 13.4062 4.0625 13.4062C4.70762 13.4062 5.44863 13.4062 6.09375 13.4062C6.7665 13.4062 7.3125 12.8603 7.3125 12.1875ZM16.6562 3.25V6.5C16.6562 6.72425 16.4742 6.90625 16.25 6.90625C14.6932 6.90625 11.3068 6.90625 9.75 6.90625C9.52575 6.90625 9.34375 6.72425 9.34375 6.5C9.34375 5.59812 9.34375 4.15188 9.34375 3.25C9.34375 3.02575 9.52575 2.84375 9.75 2.84375C11.3068 2.84375 14.6932 2.84375 16.25 2.84375C16.4742 2.84375 16.6562 3.02575 16.6562 3.25ZM10.5625 6.09375H13.8125C14.0367 6.09375 14.2188 5.91175 14.2188 5.6875C14.2188 5.46325 14.0367 5.28125 13.8125 5.28125H10.5625C10.3383 5.28125 10.1562 5.46325 10.1562 5.6875C10.1562 5.91175 10.3383 6.09375 10.5625 6.09375ZM10.5625 4.46875H15.4375C15.6617 4.46875 15.8438 4.28675 15.8438 4.0625C15.8438 3.83825 15.6617 3.65625 15.4375 3.65625H10.5625C10.3383 3.65625 10.1562 3.83825 10.1562 4.0625C10.1562 4.28675 10.3383 4.46875 10.5625 4.46875Z" fill="black"/>
</svg>
