<svg width="48" height="48" viewBox="0 0 48 48" fill="" xmlns="http://www.w3.org/2000/svg">
	<g clip-path="url(#mask0_21_17463)" x="14" y="13" width="21" height="21">
		<path fill-rule="evenodd" clip-rule="evenodd" d="M28 13C31.866 13 35 16.134 35 20V27C35 30.866 31.866 34 28 34H21C17.134 34 14 30.866 14 27V20C14 16.134 17.134 13 21 13H28ZM28 15H21C18.2386 15 16 17.2386 16 20V27C16 29.7614 18.2386 32 21 32H28C30.7614 32 33 29.7614 33 27V20C33 17.2386 30.7614 15 28 15ZM29 23.5C29 21.0147 26.9853 19 24.5 19C22.0147 19 20 21.0147 20 23.5C20 25.9853 22.0147 28 24.5 28C26.9853 28 29 25.9853 29 23.5ZM24.5 21C23.1193 21 22 22.1193 22 23.5C22 24.8807 23.1193 26 24.5 26C25.8807 26 27 24.8807 27 23.5C27 22.1193 25.8807 21 24.5 21ZM31 18.5C31 17.6716 30.3284 17 29.5 17C28.6716 17 28 17.6716 28 18.5C28 19.3284 28.6716 20 29.5 20C30.3284 20 31 19.3284 31 18.5Z" fill="" />
	</g>
	<clipPath id="mask0_21_17463">
		<rect width="48" height="48" fill="" />
	</clipPath>
</svg>