<svg width="16" height="16" viewBox="0 0 16 16" fill="" xmlns="http://www.w3.org/2000/svg">
<path d="M10.487 5.67269L9.93219 12.9227C9.906 13.2647 9.60775 13.5245 9.26131 13.4982C8.91712 13.4718 8.65947 13.1715 8.68581 12.8273L9.24066 5.57731C9.267 5.23312 9.56756 4.97559 9.91153 5.00181C10.2557 5.02816 10.5134 5.32853 10.487 5.67269ZM6.75931 5.57731C6.73297 5.23316 6.43247 4.97569 6.08844 5.00181C5.74425 5.02816 5.48659 5.32853 5.51294 5.67269L6.06778 12.9227C6.09403 13.2657 6.39325 13.5245 6.73866 13.4982C7.08284 13.4718 7.3405 13.1715 7.31416 12.8273L6.75931 5.57731ZM14.75 3.125C14.75 3.47019 14.4702 3.75 14.125 3.75H13.454L12.5607 15.4227C12.5357 15.7484 12.2642 16 11.9375 16H4.0625C3.73581 16 3.46425 15.7484 3.43931 15.4227L2.546 3.75H1.875C1.52981 3.75 1.25 3.47019 1.25 3.125C1.25 2.77981 1.52981 2.5 1.875 2.5H4.9375V1.84375C4.9375 0.827094 5.76459 0 6.78125 0H9.21875C10.2354 0 11.0625 0.827094 11.0625 1.84375V2.5H14.125C14.4702 2.5 14.75 2.77981 14.75 3.125ZM6.1875 2.5H9.8125V1.84375C9.8125 1.51634 9.54616 1.25 9.21875 1.25H6.78125C6.45384 1.25 6.1875 1.51634 6.1875 1.84375V2.5ZM12.2003 3.75C11.9362 3.75 3.97381 3.75 3.79966 3.75L4.6415 14.75H11.3585L12.2003 3.75Z" fill=""/>
</svg>
