<svg width="60" height="60" viewBox="0 0 60 60" fill="none" xmlns="http://www.w3.org/2000/svg">
<g filter="url(#filter0_d_22_13827)">
<circle cx="30" cy="28" r="22" fill="white"/>
</g>
<path d="M30.5006 22.6477L30.4377 22.5769C28.9868 20.9897 26.6246 20.5193 24.6504 21.5404C22.2593 22.7772 21.3127 25.7378 22.5324 28.1549L22.6502 28.3512L22.7128 28.4479L22.8413 28.6354L22.9873 28.8361L23.1484 29.0467L23.4174 29.3802L23.6187 29.6192L23.9466 29.9946L24.3115 30.3973L24.5757 30.6813L24.9998 31.1272L25.3041 31.4407L25.7893 31.9319L26.3119 32.4513L26.8715 32.9985L27.675 33.7713L28.5454 34.5949L29.6829 35.6548L29.7403 35.7103C29.9321 35.8722 30.1285 35.9589 30.3364 35.9885L30.418 35.9971L30.528 36L30.6297 35.9929L30.727 35.9778C30.9833 35.9202 31.1903 35.7997 31.3496 35.6231L32.4529 34.5977L33.3231 33.7743L34.1266 33.0016L34.6863 32.4543L35.2085 31.9354L35.6939 31.444L35.9978 31.131L36.4215 30.6857L36.6851 30.4024L37.0483 30.0018L37.3764 29.6265L37.5767 29.3889L37.8028 29.1102L38.0054 28.8475L38.1513 28.6477L38.2811 28.4588L38.3429 28.364L38.448 28.1923L38.5397 28.0084C39.6504 25.6066 38.6854 22.7479 36.3509 21.5404C34.3767 20.5193 32.0145 20.9897 30.5635 22.5768L30.5006 22.6477Z" stroke="#1D1D23" stroke-width="2"/>
<defs>
<filter id="filter0_d_22_13827" x="0" y="0" width="60" height="60" filterUnits="userSpaceOnUse" color-interpolation-filters="sRGB">
<feFlood flood-opacity="0" result="BackgroundImageFix"/>
<feColorMatrix in="SourceAlpha" type="matrix" values="0 0 0 0 0 0 0 0 0 0 0 0 0 0 0 0 0 0 127 0" result="hardAlpha"/>
<feMorphology radius="4" operator="erode" in="SourceAlpha" result="effect1_dropShadow_22_13827"/>
<feOffset dy="2"/>
<feGaussianBlur stdDeviation="6"/>
<feColorMatrix type="matrix" values="0 0 0 0 0 0 0 0 0 0 0 0 0 0 0 0 0 0 0.2 0"/>
<feBlend mode="normal" in2="BackgroundImageFix" result="effect1_dropShadow_22_13827"/>
<feBlend mode="normal" in="SourceGraphic" in2="effect1_dropShadow_22_13827" result="shape"/>
</filter>
</defs>
</svg>
