<?xml version="1.0" standalone="no"?>
<!DOCTYPE svg PUBLIC "-//W3C//DTD SVG 20010904//EN"
 "http://www.w3.org/TR/2001/REC-SVG-20010904/DTD/svg10.dtd">
<svg version="1.0" xmlns="http://www.w3.org/2000/svg"
 width="167.000000pt" height="167.000000pt" viewBox="0 0 167.000000 167.000000"
 preserveAspectRatio="xMidYMid meet">

<g transform="translate(0.000000,167.000000) scale(0.100000,-0.100000)"
fill="#000000" stroke="none">
<path d="M637 1403 c-4 -3 -7 -127 -7 -275 l0 -268 -137 0 -138 0 103 103 c76
76 101 108 96 120 -3 9 -14 17 -23 17 -21 0 -271 -250 -271 -272 0 -19 259
-270 274 -265 5 2 14 11 20 21 9 14 -5 32 -91 116 l-102 100 135 0 134 0 0
-264 c0 -211 3 -266 14 -275 9 -8 121 -10 392 -9 l379 3 0 575 0 575 -386 3
c-212 1 -388 -1 -392 -5z m723 -568 l0 -525 -335 0 -335 0 0 245 0 245 213 0
c116 0 218 4 225 9 8 5 12 17 10 27 -3 18 -17 19 -226 22 l-222 2 0 250 0 250
335 0 335 0 0 -525z"/>
</g>
</svg>
