<svg width="40" height="40" viewBox="0 0 40 40" fill="" xmlns="http://www.w3.org/2000/svg">
	<g clip-path="url(#mask0_67_18402)" x="10" y="10" width="20" height="20">
		<path fill-rule="evenodd" clip-rule="evenodd" d="M30 19.2593C30 14.1454 25.5231 10 20 10C14.4771 10 10 14.1454 10 19.2593C10 22.155 11.4356 24.7404 13.6835 26.438V30L17.0397 28.1066C17.9753 28.374 18.9697 28.5184 20 28.5184C25.5231 28.5184 30 24.3727 30 19.2593ZM21.5206 19.3488L26.3741 16.7233L21.0115 22.3896L18.4471 19.7172L13.5393 22.3896L18.9321 16.7233L21.5206 19.3488Z" fill="" />
	</g>
	<clipPath id="#mask0_67_18402">
		<rect width="40" height="40" transform="matrix(-1 0 0 1 40 0)" fill="" />
	</clipPath>
</svg>
