<svg width="40" height="40" viewBox="0 0 40 40" fill="none" xmlns="http://www.w3.org/2000/svg">
<mask id="mask0_21_17461" style="mask-type:luminance" maskUnits="userSpaceOnUse" x="13" y="13" width="15" height="15">
<path fill-rule="evenodd" clip-rule="evenodd" d="M26.9554 13.0532C27.2396 12.9428 27.5553 13.0059 27.7763 13.2266C27.9815 13.4474 28.0605 13.7627 27.95 14.0465L22.6141 27.5112C22.5036 27.8108 22.2194 28 21.9037 28H21.8879C21.5722 27.9842 21.288 27.795 21.1775 27.4955L19.1094 21.8983L13.5052 19.8329C13.2052 19.7225 13 19.4387 13 19.1234C13 18.808 13.1894 18.5085 13.4894 18.3981L26.9554 13.0532ZM20.4197 21.0311L21.9195 25.0832L25.8661 15.1344L15.9047 19.0761L19.9619 20.5739C20.1829 20.6527 20.3408 20.8262 20.4197 21.0311Z" fill="white"/>
</mask>
<g mask="url(#mask0_21_17461)">
<rect width="40" height="40" fill="black"/>
</g>
</svg>
