<?xml version="1.0" standalone="no"?>
<!DOCTYPE svg PUBLIC "-//W3C//DTD SVG 20010904//EN"
 "http://www.w3.org/TR/2001/REC-SVG-20010904/DTD/svg10.dtd">
<svg version="1.0" xmlns="http://www.w3.org/2000/svg"
 width="167.000000pt" height="167.000000pt" viewBox="0 0 167.000000 167.000000"
 preserveAspectRatio="xMidYMid meet">

<g transform="translate(0.000000,167.000000) scale(0.100000,-0.100000)"
fill="#000000" stroke="none">
<path d="M755 1411 c-89 -23 -175 -95 -217 -179 -19 -39 -23 -63 -23 -142 0
-111 21 -167 89 -235 89 -89 232 -119 350 -75 76 29 147 94 183 169 24 48 28
68 28 141 0 73 -4 93 -28 141 -32 67 -100 132 -165 162 -51 22 -165 32 -217
18z m182 -87 c47 -17 117 -87 139 -139 20 -48 18 -151 -5 -200 -81 -179 -325
-203 -441 -44 -105 145 -29 347 148 395 52 14 95 11 159 -12z"/>
<path d="M540 677 c-159 -37 -272 -164 -287 -321 -5 -60 -4 -66 20 -90 l26
-26 540 0 539 0 27 32 c24 28 26 37 21 81 -19 137 -111 260 -231 307 -57 23
-74 24 -330 27 -191 1 -286 -1 -325 -10z m610 -83 c97 -29 200 -157 200 -251
l0 -23 -513 0 -514 0 7 43 c19 112 88 194 199 233 57 21 550 19 621 -2z"/>
</g>
</svg>
