<svg width="48" height="48" viewBox="0 0 48 48" fill="" xmlns="http://www.w3.org/2000/svg">
	<path fill-rule="evenodd" clip-rule="evenodd" d="M30.9241 19.738C30.5391 16.903 28.0221 15 24.66 15C24.332 15 23.997 15.018 23.667 15.056C20.1109 15.46 18.0958 18.379 18.0058 20.92C17.9238 23.201 18.7098 24.494 20.4069 24.877L20.4949 24.896L20.5399 24.816C21.0949 23.82 20.7879 23.305 20.4909 22.807C20.3419 22.558 20.1879 22.3 20.1349 21.969C19.9379 20.73 20.2829 19.507 21.1059 18.524C22.0169 17.436 23.4319 16.761 24.797 16.761C25.873 16.761 26.833 17.164 27.5721 17.927C28.7201 19.11 28.6741 21.677 27.9741 23.377C27.361 24.863 26.325 25.608 25.17 25.378C24.754 25.293 24.476 25.122 24.321 24.856C23.972 24.253 24.3 23.204 24.618 22.189C25.063 20.769 25.523 19.3 24.249 18.788C23.3999 18.444 22.5929 18.788 22.0909 19.683C21.5329 20.68 21.4869 22.081 21.9799 22.967C21.8369 23.675 21.6559 24.358 21.4649 25.081C20.9279 27.114 20.3729 29.217 20.7299 31.795L20.7589 32L20.9239 31.878C22.4799 30.73 23.0189 28.614 23.4519 26.341C23.5859 26.427 23.709 26.513 23.827 26.598C24.335 26.956 24.773 27.264 25.556 27.326C25.685 27.336 25.812 27.341 25.937 27.341C27.265 27.341 28.4491 26.779 29.3621 25.717C30.6251 24.244 31.2231 21.953 30.9241 19.738Z" fill="" />
	<g clip-path="url(#mask0_21_17467)" x="18" y="15" width="13" height="17">
		<path fill-rule="evenodd" clip-rule="evenodd" d="M30.9241 19.738C30.5391 16.903 28.0221 15 24.66 15C24.332 15 23.997 15.018 23.667 15.056C20.1109 15.46 18.0958 18.379 18.0058 20.92C17.9238 23.201 18.7098 24.494 20.4069 24.877L20.4949 24.896L20.5399 24.816C21.0949 23.82 20.7879 23.305 20.4909 22.807C20.3419 22.558 20.1879 22.3 20.1349 21.969C19.9379 20.73 20.2829 19.507 21.1059 18.524C22.0169 17.436 23.4319 16.761 24.797 16.761C25.873 16.761 26.833 17.164 27.5721 17.927C28.7201 19.11 28.6741 21.677 27.9741 23.377C27.361 24.863 26.325 25.608 25.17 25.378C24.754 25.293 24.476 25.122 24.321 24.856C23.972 24.253 24.3 23.204 24.618 22.189C25.063 20.769 25.523 19.3 24.249 18.788C23.3999 18.444 22.5929 18.788 22.0909 19.683C21.5329 20.68 21.4869 22.081 21.9799 22.967C21.8369 23.675 21.6559 24.358 21.4649 25.081C20.9279 27.114 20.3729 29.217 20.7299 31.795L20.7589 32L20.9239 31.878C22.4799 30.73 23.0189 28.614 23.4519 26.341C23.5859 26.427 23.709 26.513 23.827 26.598C24.335 26.956 24.773 27.264 25.556 27.326C25.685 27.336 25.812 27.341 25.937 27.341C27.265 27.341 28.4491 26.779 29.3621 25.717C30.6251 24.244 31.2231 21.953 30.9241 19.738Z" fill="" />
	</g>
	<clipPath id="mask0_21_17467">
		<rect width="48" height="48" fill="" />
	</clipPath>
</svg>