<svg width="40" height="40" viewBox="0 0 40 40" fill="" xmlns="http://www.w3.org/2000/svg">
	<g clip-path="url(#mask0_15_13804)" x="9" y="12" width="19" height="16">
		<path d="M16.4554 22.5451L16.1411 27.0122C16.5908 27.0122 16.7856 26.817 17.0191 26.5826L19.1274 24.5467L23.4959 27.7794C24.2971 28.2306 24.8616 27.993 25.0777 27.0346L27.9452 13.4571L27.946 13.4563C28.2001 12.2595 27.5177 11.7915 26.7371 12.0851L9.88208 18.6059C8.73176 19.0571 8.74918 19.7051 9.68653 19.9987L13.9957 21.3531L24.005 15.0243C24.476 14.7091 24.9043 14.8835 24.552 15.1987L16.4554 22.5451Z" fill="" />
	</g>
	<clipPath id="mask0_15_13804">
		<rect width="40" height="40" transform="matrix(-1 0 0 1 40 0)" fill="" />
	</clipPath>
</svg>