<svg width="48" height="48" viewBox="0 0 48 48" fill="" xmlns="http://www.w3.org/2000/svg">
	<g clip-path="url(#mask0_21_17465)" x="16" y="17" width="17" height="14">
		<path fill-rule="evenodd" clip-rule="evenodd" d="M32.5 18.6488C31.8928 18.9286 31.2405 19.1179 30.5552 19.2026C31.2548 18.7672 31.7916 18.0775 32.0435 17.2566C31.3901 17.6595 30.6652 17.9521 29.8941 18.11C29.277 17.4261 28.397 17 27.4235 17C25.2389 17 23.6318 19.1179 24.1257 21.3182C21.313 21.1719 18.8182 19.7716 17.1484 17.6433C16.2618 19.2235 16.6886 21.2926 18.1967 22.34C17.6412 22.3214 17.1198 22.1635 16.6633 21.8999C16.6259 23.5289 17.7501 25.0535 19.3781 25.3925C18.9018 25.5272 18.3793 25.5585 17.8491 25.4529C18.2803 26.8509 19.5299 27.868 21.0116 27.8959C19.5882 29.0547 17.7963 29.5725 16 29.3531C17.4982 30.3505 19.278 30.9333 21.1887 30.9333C27.4741 30.9333 31.0249 25.4169 30.8104 20.4694C31.4726 19.9736 32.0457 19.3536 32.5 18.6488Z" fill="" />
	</g>
	<clipPath id="mask0_21_17465">
		<rect width="48" height="48" fill="" />
	</clipPath>
</svg>