<svg width="20" height="20" viewBox="0 0 20 20" fill="none" xmlns="http://www.w3.org/2000/svg">
<path d="M16.1422 11.4815C16.1417 11.4814 9.52025 9.983 9.52025 9.983C7.54664 9.53637 6.30858 7.5743 6.75508 5.60056C7.20183 3.62682 9.1639 2.38902 11.1375 2.83552C13.1112 3.28218 14.3492 5.24422 13.9026 7.21782C13.6789 8.20598 13.0753 9.00895 12.2806 9.50919C12.2804 9.50919 12.2785 9.51081 12.2778 9.5112C12.2544 9.52798 12.2393 9.55529 12.2393 9.58601C12.2393 9.62906 12.269 9.66524 12.3092 9.67489C12.3093 9.67502 15.2548 10.3411 15.2553 10.3411C15.3254 10.357 15.3981 10.3299 15.4412 10.2731C15.4414 10.2725 15.4413 10.2729 15.4413 10.2729C16.2528 9.19917 16.7402 7.85938 16.7402 6.41027C16.7402 2.99759 14.074 0.208649 10.7109 0.0105629C10.681 0.00890541 10.4987 0.00178528 10.4371 0.000907898C8.94813 -0.0224667 7.43841 0.40449 6.12556 1.32392C2.81014 3.64535 2.00462 8.21472 4.32581 11.53L10.2169 19.9435C10.2421 19.9778 10.2826 20 10.328 20C10.3739 20 10.4145 19.9774 10.4395 19.9429C10.4395 19.9429 16.2245 11.6929 16.225 11.6922C16.2397 11.6704 16.2485 11.6438 16.2485 11.6154C16.2485 11.5501 16.2031 11.4955 16.1422 11.4815Z" fill="#FABC26"/>
</svg>
