<svg width="40" height="40" viewBox="0 0 40 40" fill="" xmlns="http://www.w3.org/2000/svg">
	<g clip-path="url(#mask0_15_13805)" x="11" y="10" width="18" height="18">
		<path fill-rule="evenodd" clip-rule="evenodd" d="M19.9978 10H20.0022C24.9646 10 29 14.0376 29 19C29 23.9624 24.9646 28 20.0022 28C18.1719 28 16.4742 27.4555 15.0511 26.5128L11.5918 27.6186L12.7134 24.2751C11.6345 22.7935 11 20.9688 11 19C11 14.0365 15.0354 10 19.9978 10ZM23.4729 23.9792C24.1602 23.8307 25.022 23.3222 25.2391 22.7091C25.4563 22.0949 25.4562 21.5717 25.3932 21.4604C25.3424 21.372 25.2221 21.3141 25.0425 21.2276C24.9958 21.2051 24.945 21.1807 24.8904 21.1532C24.626 21.0216 23.3401 20.386 23.0971 20.3016C22.8586 20.2116 22.6314 20.2431 22.4514 20.4974C22.4171 20.5453 22.383 20.5933 22.349 20.6411C22.1319 20.9465 21.9224 21.2411 21.7483 21.4289C21.5896 21.5976 21.3309 21.619 21.1138 21.529C21.0901 21.5191 21.063 21.5082 21.0326 21.4959C20.6888 21.3571 19.9263 21.0491 19.0033 20.2274C18.2248 19.5344 17.696 18.6715 17.543 18.4128C17.3928 18.1532 17.5224 18.001 17.6421 17.8603C17.6443 17.8577 17.6465 17.8551 17.6487 17.8525C17.726 17.757 17.8009 17.6774 17.8762 17.5975C17.9304 17.54 17.9847 17.4823 18.0402 17.4183C18.0485 17.4087 18.0565 17.3995 18.0643 17.3905C18.1823 17.2549 18.2525 17.1742 18.3316 17.0054C18.4216 16.831 18.3575 16.651 18.2934 16.5182C18.2493 16.4253 17.9767 15.764 17.7427 15.1963C17.6426 14.9534 17.5496 14.7276 17.4845 14.5709C17.3101 14.1535 17.1774 14.1378 16.913 14.1265C16.9049 14.1261 16.8967 14.1257 16.8885 14.1253C16.8049 14.121 16.7129 14.1164 16.6115 14.1164C16.2673 14.1164 15.9084 14.2176 15.6912 14.4392C15.6837 14.447 15.6758 14.455 15.6675 14.4634C15.3898 14.7459 14.771 15.3752 14.771 16.6296C14.771 17.8865 15.6628 19.1029 15.8278 19.3279C15.8323 19.3341 15.8363 19.3396 15.8397 19.3442C15.8497 19.3573 15.8684 19.3844 15.8956 19.4238C16.2325 19.9117 17.8736 22.2882 20.3206 23.302C22.3884 24.1593 23.0026 24.0794 23.4729 23.9792Z" fill="" />
	</g>
	<clipPath id="mask0_15_13805">
		<rect width="40" height="40" transform="matrix(-1 0 0 1 40 0)" fill="" />
	</clipPath>
</svg>