<?xml version="1.0" standalone="no"?>
<!DOCTYPE svg PUBLIC "-//W3C//DTD SVG 20010904//EN"
 "http://www.w3.org/TR/2001/REC-SVG-20010904/DTD/svg10.dtd">
<svg version="1.0" xmlns="http://www.w3.org/2000/svg"
 width="167.000000pt" height="167.000000pt" viewBox="0 0 167.000000 167.000000"
 preserveAspectRatio="xMidYMid meet">

<g transform="translate(0.000000,167.000000) scale(0.100000,-0.100000)"
fill="#000000" stroke="none">
<path d="M598 1276 c-101 -28 -189 -125 -206 -229 l-7 -42 -100 -5 -100 -5 -3
-30 c-4 -38 94 -548 109 -574 31 -49 47 -51 374 -51 327 0 342 2 374 51 15 26
113 536 109 574 l-3 30 -100 5 -100 5 -7 42 c-27 158 -193 270 -340 229z m123
-67 c73 -22 133 -93 153 -181 l6 -28 -215 0 -215 0 6 28 c19 84 75 153 146
179 43 15 72 16 119 2z m359 -282 c0 -1 -20 -108 -45 -237 -25 -129 -45 -238
-45 -242 0 -5 -9 -17 -20 -28 -19 -19 -33 -20 -305 -20 -272 0 -286 1 -305 20
-11 11 -20 23 -20 28 0 4 -20 113 -45 242 -25 129 -45 236 -45 237 0 2 187 3
415 3 228 0 415 -1 415 -3z"/>
</g>
</svg>
