<svg width="40" height="40" viewBox="0 0 40 40" fill="" xmlns="http://www.w3.org/2000/svg">
<path fill-rule="evenodd" clip-rule="evenodd" d="M38 13C38 8.02944 33.9706 4 29 4C24.7827 4 21.2428 6.90078 20.2687 10.8161C19.1037 9.80605 17.6203 9.2 16.0001 9.2C12.4808 9.2 9.57084 12.0727 9.23269 15.7805L9.21578 15.9999L5.20892 16C5.14602 16 5.08326 16.0059 5.02148 16.0177C4.47898 16.1212 4.12312 16.6449 4.22665 17.1874L6.58813 29.5623C6.85805 30.9768 8.09494 32 9.53495 32H22.4651C23.9052 32 25.142 30.9768 25.412 29.5623L26.9023 21.7542C27.5753 21.9149 28.2778 22 29 22C33.9706 22 38 17.9706 38 13ZM10.8261 15.9258C11.0914 13.0162 13.3364 10.8 16 10.8C17.604 10.8 19.0459 11.6 20.0011 12.8611L20 13L20.0039 13.2654C20.0316 14.222 20.2086 15.1413 20.5124 16.0006L10.8207 16L10.8261 15.9258Z" fill=""/>
</svg>
