<svg width="40" height="40" viewBox="0 0 40 40" fill="none" xmlns="http://www.w3.org/2000/svg">
<g clip-path="url(#clip0_197_4218)">
<path d="M23.8794 22.9956C24.8881 22.6738 25.625 21.7388 25.625 20.625C25.625 19.2463 24.5037 18.125 23.125 18.125H21.875V17.5C21.875 16.1213 20.7537 15 19.375 15C18.4306 15 17.6163 15.5325 17.1912 16.3075L12.9537 12.07L0.85125 36.2756C0.703125 36.5719 0.625 36.9025 0.625 37.2331C0.625 38.4138 1.58625 39.375 2.76688 39.375C3.09687 39.375 3.42813 39.2969 3.725 39.1488L27.93 27.0463L23.8794 22.9956ZM20.625 23.125V24.375H21.875V23.125H22.2412L23.125 24.0088V28.0513L19.375 29.9263V23.125H20.625ZM24.375 25.2588L25.82 26.7038L24.375 27.4263V25.2588ZM19.375 16.25C20.0644 16.25 20.625 16.8106 20.625 17.5V19.375H23.125C23.8144 19.375 24.375 19.9356 24.375 20.625C24.375 21.3144 23.8144 21.875 23.125 21.875H22.7588H22.5H18.125V17.5C18.125 16.8106 18.6856 16.25 19.375 16.25ZM18.125 23.125V30.5513L14.375 32.4263V15.2588L16.875 17.7588V23.125H18.125ZM13.125 14.5225V33.0513L9.375 34.9263V22.0225L10.6987 19.375H11.875V18.125H11.3237L13.125 14.5225ZM4.375 32.0225L6.01125 28.75H6.875V27.5H6.63625L8.125 24.5225V35.5513L4.375 37.4263V32.0225ZM1.875 37.2331C1.875 37.0956 1.9075 36.9575 1.96938 36.8344L3.125 34.5225V38.0456C3.01187 38.095 2.89 38.125 2.76688 38.125C2.275 38.125 1.875 37.725 1.875 37.2331Z" fill="#1D1D23"/>
<path d="M6.875 30.625H5.625V31.875H6.875V30.625Z" fill="#1D1D23"/>
<path d="M6.875 33.75H5.625V35H6.875V33.75Z" fill="#1D1D23"/>
<path d="M11.875 27.5H10.625V28.75H11.875V27.5Z" fill="#1D1D23"/>
<path d="M11.875 30.625H10.625V31.875H11.875V30.625Z" fill="#1D1D23"/>
<path d="M16.875 25.625H15.625V26.875H16.875V25.625Z" fill="#1D1D23"/>
<path d="M16.875 28.75H15.625V30H16.875V28.75Z" fill="#1D1D23"/>
<path d="M11.875 21.25H10.625V22.5H11.875V21.25Z" fill="#1D1D23"/>
<path d="M11.875 24.375H10.625V25.625H11.875V24.375Z" fill="#1D1D23"/>
<path d="M21.875 26.25H20.625V27.5H21.875V26.25Z" fill="#1D1D23"/>
<path d="M7.5 14.375C9.22312 14.375 10.625 12.9731 10.625 11.25V10.625H9.375V11.25C9.375 12.2838 8.53375 13.125 7.5 13.125C6.46625 13.125 5.625 12.2838 5.625 11.25C5.625 10.2162 6.46625 9.375 7.5 9.375C9.845 9.375 12.1606 9.99 14.1956 11.1531L15.315 11.7925L15.935 10.7075L14.8156 10.0681C12.5919 8.79687 10.0619 8.125 7.5 8.125C5.77688 8.125 4.375 9.52688 4.375 11.25C4.375 12.9731 5.77688 14.375 7.5 14.375Z" fill="#1D1D23"/>
<path d="M37.5 4.375C38.5338 4.375 39.375 3.53375 39.375 2.5C39.375 1.46625 38.5338 0.625 37.5 0.625C36.4662 0.625 35.625 1.46625 35.625 2.5C35.625 3.53375 36.4662 4.375 37.5 4.375ZM37.5 1.875C37.8444 1.875 38.125 2.15562 38.125 2.5C38.125 2.84437 37.8444 3.125 37.5 3.125C37.1556 3.125 36.875 2.84437 36.875 2.5C36.875 2.15562 37.1556 1.875 37.5 1.875Z" fill="#1D1D23"/>
<path d="M32.6831 6.43301L30.1831 8.93304L31.067 9.81692L33.567 7.31688L32.6831 6.43301Z" fill="#1D1D23"/>
<path d="M28.9326 10.1831L23.3076 15.8081L24.1915 16.692L29.8165 11.067L28.9326 10.1831Z" fill="#1D1D23"/>
<path d="M34.5579 4.55834L33.3081 5.80814L34.192 6.69201L35.4418 5.44221L34.5579 4.55834Z" fill="#1D1D23"/>
<path d="M26.875 5.625V4.375C26.1856 4.375 25.625 3.81437 25.625 3.125C25.625 2.43562 26.1856 1.875 26.875 1.875C27.5644 1.875 28.125 2.43562 28.125 3.125C28.125 4.97312 27.405 6.71063 26.0981 8.01813L24.5581 9.55813L25.4419 10.4419L26.9819 8.90187C28.525 7.35875 29.375 5.30687 29.375 3.125C29.375 1.74625 28.2538 0.625 26.875 0.625C25.4962 0.625 24.375 1.74625 24.375 3.125C24.375 4.50375 25.4962 5.625 26.875 5.625Z" fill="#1D1D23"/>
<path d="M32.5 2.5H31.25V3.75H32.5V2.5Z" fill="#1D1D23"/>
<path d="M18.7631 6.79939L17.8925 5.90189C17.3719 6.40564 16.5262 6.40626 16.0056 5.90189C15.76 5.66376 15.625 5.34876 15.625 5.01439C15.625 4.68001 15.76 4.36501 16.0063 4.12689C16.5263 3.62189 17.3719 3.62251 17.8931 4.12689C19.2519 5.44439 20 7.19439 20 9.05501V11.25H21.25V9.05501C21.25 6.85376 20.3663 4.78439 18.7631 3.23001C17.7631 2.26064 16.1363 2.26001 15.1363 3.23001C14.645 3.70564 14.375 4.33939 14.375 5.01439C14.375 5.68939 14.645 6.32376 15.1356 6.79876C16.1356 7.76876 17.7619 7.76939 18.7631 6.79939Z" fill="#1D1D23"/>
<path d="M18.75 11.25H17.5V12.5H18.75V11.25Z" fill="#1D1D23"/>
<path d="M36.875 10.625C34.6931 10.625 32.6412 11.475 31.0981 13.0181L29.5581 14.5581L30.4419 15.4419L31.9819 13.9019C33.2894 12.595 35.0269 11.875 36.875 11.875C37.5644 11.875 38.125 12.4356 38.125 13.125C38.125 13.8144 37.5644 14.375 36.875 14.375C36.1856 14.375 35.625 13.8144 35.625 13.125H34.375C34.375 14.5038 35.4962 15.625 36.875 15.625C38.2537 15.625 39.375 14.5038 39.375 13.125C39.375 11.7462 38.2537 10.625 36.875 10.625Z" fill="#1D1D23"/>
<path d="M37.5 7.5H36.25V8.75H37.5V7.5Z" fill="#1D1D23"/>
<path d="M20.625 0.625H19.375V1.875H20.625V0.625Z" fill="#1D1D23"/>
<path d="M29.2925 24.065L28.2075 24.685L28.8469 25.8044C30.01 27.8394 30.625 30.155 30.625 32.5C30.625 33.5337 29.7838 34.375 28.75 34.375C27.7162 34.375 26.875 33.5337 26.875 32.5C26.875 31.4662 27.7162 30.625 28.75 30.625H29.375V29.375H28.75C27.0269 29.375 25.625 30.7769 25.625 32.5C25.625 34.2231 27.0269 35.625 28.75 35.625C30.4731 35.625 31.875 34.2231 31.875 32.5C31.875 29.9381 31.2031 27.4081 29.9319 25.1838L29.2925 24.065Z" fill="#1D1D23"/>
<path d="M36.7706 21.2375C35.2156 19.6337 33.1469 18.75 30.9456 18.75H28.75V20H30.945C32.8056 20 34.555 20.7481 35.8725 22.1075C36.3769 22.6275 36.3769 23.4737 35.8725 23.9944C35.3962 24.4856 34.5744 24.4862 34.0981 23.9944C33.5937 23.4744 33.5937 22.6281 34.0981 22.1081L33.2006 21.2375C32.2312 22.2375 32.2312 23.8644 33.2006 24.8644C33.6762 25.355 34.31 25.625 34.9856 25.625C35.6612 25.625 36.295 25.355 36.77 24.8644C37.74 23.8644 37.74 22.2375 36.7706 21.2375Z" fill="#1D1D23"/>
<path d="M28.75 21.25H27.5V22.5H28.75V21.25Z" fill="#1D1D23"/>
<path d="M39.375 19.375H38.125V20.625H39.375V19.375Z" fill="#1D1D23"/>
<path d="M37.5 31.25H36.25V32.5H37.5V31.25Z" fill="#1D1D23"/>
<path d="M8.75 2.5H7.5V3.75H8.75V2.5Z" fill="#1D1D23"/>
</g>
<defs>
<clipPath id="clip0_197_4218">
<rect width="40" height="40" fill="white"/>
</clipPath>
</defs>
</svg>
