<svg width="48" height="48" viewBox="0 0 48 48" fill="" xmlns="http://www.w3.org/2000/svg">
	<g clip-path="url(#mask0_21_17466)" x="21" y="16" width="7" height="16">
		<path fill-rule="evenodd" clip-rule="evenodd" d="M25.362 31.0001V23.9691H27.896L28 21.4431H25.362V19.5911C25.362 19.2401 25.421 18.9631 25.538 18.7591C25.656 18.5561 25.937 18.4611 26.38 18.4751H27.938L28 16.1181C27.806 16.0891 27.609 16.0721 27.408 16.0641C27.207 16.0581 27.024 16.0471 26.858 16.0331C26.664 16.0191 26.47 16.0121 26.276 16.0121C25.667 15.9701 25.144 16.0371 24.708 16.2121C24.271 16.3881 23.911 16.6331 23.628 16.9491C23.344 17.2651 23.133 17.6261 22.994 18.0331C22.856 18.4401 22.786 18.8541 22.786 19.2751V21.4431H21V23.9691H22.786V31.0001H25.362Z" fill="" />
	</g>
	<clipPath id="mask0_21_17466">
		<rect width="48" height="48" fill="" />
	</clipPath>
</svg>