<svg width="16" height="16" viewBox="0 0 16 16" fill="none" xmlns="http://www.w3.org/2000/svg">
<path d="M12.3678 5.42417C11.9883 4.75281 12.0406 3.93489 12.4241 3.22209C12.5465 2.99473 12.4739 2.71265 12.2515 2.58161L10.4831 1.53889C10.2548 1.40433 9.96651 1.48545 9.82987 1.71265C9.41643 2.39969 8.75339 2.84849 7.99979 2.84849C7.24619 2.84849 6.58315 2.39985 6.16971 1.71265C6.03307 1.48561 5.74475 1.40433 5.51643 1.53889L3.74827 2.58161C3.52587 2.71281 3.45323 2.99473 3.57547 3.22209C3.95883 3.93489 4.01131 4.75281 3.63179 5.42417C3.25483 6.09121 2.54219 6.45345 1.75227 6.47505C1.49083 6.48225 1.27979 6.68801 1.27979 6.94945V9.05041C1.27979 9.31201 1.49083 9.51761 1.75227 9.52481C2.54203 9.54641 3.25483 9.90865 3.63179 10.5757C4.01131 11.247 3.95899 12.065 3.57547 12.7778C3.45307 13.0051 3.52571 13.2872 3.74811 13.4182L5.51627 14.461C5.74459 14.5955 6.03291 14.5144 6.16955 14.2872C6.58283 13.6002 7.24603 13.1514 7.99963 13.1514C8.75323 13.1514 9.41627 13.6 9.82971 14.2872C9.96635 14.5142 10.2547 14.5955 10.483 14.461L12.2511 13.4182C12.4735 13.287 12.5462 13.0051 12.4238 12.7778C12.0404 12.065 11.9879 11.247 12.3675 10.5757C12.7444 9.90865 13.4571 9.54641 14.247 9.52481C14.5087 9.51777 14.7198 9.31201 14.7198 9.05057V6.94945C14.7198 6.68785 14.5087 6.48225 14.2473 6.47505C13.4574 6.45345 12.7447 6.09121 12.3678 5.42417ZM7.99979 10.4C6.67435 10.4 5.59979 9.32545 5.59979 8.00001C5.59979 6.67457 6.67435 5.60001 7.99979 5.60001C9.32523 5.60001 10.3998 6.67457 10.3998 8.00001C10.3998 9.32545 9.32523 10.4 7.99979 10.4Z" fill="#1D1D23"/>
</svg>
