<svg width="40" height="40" viewBox="0 0 40 40" fill="" xmlns="http://www.w3.org/2000/svg">
<path fill-rule="evenodd" clip-rule="evenodd" d="M19.9052 11.5763L20 11.683L20.0946 11.5762C22.2795 9.18491 25.8365 8.47623 28.8093 10.0147C32.3245 11.834 33.7776 16.141 32.1052 19.7596L31.967 20.0367L31.8088 20.2954L31.7157 20.4382L31.5202 20.7228L31.3006 21.0238L30.9956 21.4195L30.655 21.8395L30.3534 22.1974L29.8593 22.763L29.3125 23.3665L28.9156 23.7933L28.2775 24.4641L27.8199 24.9358L27.0891 25.6761L26.3027 26.458L25.4599 27.2825L24.2501 28.4467L22.9397 29.6873L21.2784 31.2322C21.0385 31.4983 20.7268 31.6797 20.3408 31.7666L20.1944 31.7893L20.0412 31.8L19.8756 31.7957L19.7527 31.7826C19.4397 31.738 19.1439 31.6074 18.8551 31.3635L18.7687 31.2799L17.0558 29.6831L15.7453 28.4422L14.5354 27.2779L13.6927 26.4534L12.9057 25.6709L12.1752 24.9308L11.717 24.4584L11.0783 23.7867L10.6805 23.3588L10.131 22.7521L9.63725 22.1865L9.33419 21.8264L8.92919 21.3239L8.68655 21.0067L8.46671 20.7042L8.27327 20.4217L8.17901 20.2761L8.00164 19.9803C6.16492 16.3386 7.59036 11.878 11.1908 10.0147C14.1636 8.47622 17.7205 9.18493 19.9052 11.5763ZM30.6586 19.076C31.9675 16.2437 30.826 12.86 28.0739 11.4357L27.8546 11.328C25.2816 10.1319 22.2178 11.028 20.6736 13.4403L19.9998 14.493L19.326 13.4403C17.7381 10.9591 14.5421 10.0819 11.9262 11.4357C9.10713 12.8946 7.9873 16.3988 9.39889 19.2034L9.53276 19.4235L9.60385 19.5334L9.77318 19.7809L9.96842 20.0494L10.187 20.3353L10.5688 20.8088L10.8517 21.1449L11.3265 21.6887L11.8593 22.277L12.2439 22.6907L12.8709 23.3501L13.3187 23.8117L14.0391 24.5415L14.8162 25.3143L15.6495 26.1296L16.85 27.2848L18.1514 28.517L19.8701 30.1193L19.9238 30.1741L19.9458 30.1947L19.968 30.2036L19.9845 30.2042L20.0284 30.198C20.0515 30.1927 20.072 30.1808 20.1386 30.1114L21.8441 28.5212L23.1453 27.2893L24.3457 26.1342L25.1792 25.3189L25.9557 24.5468L26.6764 23.8168L27.1236 23.3558L27.75 22.6973L28.1337 22.2846L28.6639 21.6996L29.139 21.1558L29.4216 20.8204L29.7402 20.4277L30.0201 20.0648L30.2137 19.7994L30.3852 19.5499L30.5637 19.2721L30.6586 19.076Z" fill=""/>
</svg>
