<svg width="24" height="24" viewBox="0 0 24 24" fill="" xmlns="http://www.w3.org/2000/svg">
<g clip-path="url(#clip0_455_5299)">
<path d="M5.65576 24C5.31592 24 4.97864 23.9051 4.68256 23.7184C4.17023 23.3948 3.85272 22.8402 3.83331 22.2342L3.77417 20.294C1.34106 18.1122 0 15.0488 0 11.6689C0 8.44301 1.23651 5.47639 3.48138 3.31546C5.70282 1.17742 8.72809 0 12 0C15.2719 0 18.2972 1.17742 20.5186 3.31546C22.7635 5.47639 24 8.44301 24 11.6689C24 14.8947 22.7635 17.8613 20.5186 20.0222C18.2972 22.1603 15.2719 23.3379 12 23.3379C10.8204 23.3379 9.66614 23.1853 8.56897 22.8847L6.39093 23.8456C6.15491 23.9491 5.90479 24 5.65576 24ZM12 1.87509C6.22778 1.87509 1.875 6.08542 1.875 11.6689C1.875 14.5129 2.99799 17.0838 5.03705 18.908C5.41315 19.2467 5.62903 19.7056 5.64716 20.2022L5.64734 20.2081L5.7052 22.0987L7.82867 21.1617C8.211 20.9935 8.64221 20.961 9.04376 21.0705C9.98749 21.3309 10.9812 21.4626 12 21.4626C17.7722 21.4626 22.125 17.2523 22.125 11.6689C22.125 6.08542 17.7722 1.87509 12 1.87509ZM6.10016 15.4989L9.60388 12.7975C9.84064 12.6198 10.1666 12.6175 10.4055 12.7953L12.9981 14.8106C13.7752 15.3905 14.8874 15.186 15.4054 14.3684L18.6641 9.20056C18.9789 8.70725 18.3671 8.14966 17.9004 8.50289L14.3983 11.1568C14.1616 11.3346 13.8356 11.3368 13.5967 11.159L11.0041 9.19067C10.227 8.61075 9.11481 8.8151 8.5968 9.6327L5.33643 14.8011C5.02167 15.2944 5.63342 15.8522 6.10016 15.4989Z" fill=""/>
</g>
<defs>
<clipPath id="clip0_455_5299">
<rect width="24" height="24" fill=""/>
</clipPath>
</defs>
</svg>
