<svg width="20" height="20" viewBox="0 0 20 20" fill="none" xmlns="http://www.w3.org/2000/svg">
<path d="M10.1293 0H9.87079L9.63216 0.0994279L5.9235 3.76832C5.76441 3.97712 5.81413 4.12626 6.08258 4.12626H7.72314C7.9916 4.12626 8.2004 4.345 8.2004 4.60351V7.32784C8.2004 7.58635 8.4092 7.79515 8.67765 7.79515H11.3721C11.6903 7.79515 11.8991 7.58635 11.8991 7.32784V4.60351C11.8991 4.345 12.1179 4.12626 12.3764 4.12626H13.9175C14.176 4.12626 14.2357 3.97712 14.0766 3.76832L10.3679 0.0994279L10.1293 0Z" fill="#ED1C24"/>
<path d="M16.2441 5.96562C16.1646 5.85625 16.085 5.81648 16.0254 5.83636C15.9657 5.85625 15.9259 5.93579 15.9259 6.06505V13.552C15.9259 13.6812 15.9657 13.7807 16.0254 13.8105C16.085 13.8403 16.1646 13.8105 16.2441 13.7111L19.8434 10.1515C20.0522 9.99245 20.0522 9.67428 19.8434 9.46548L16.2441 5.96562Z" fill="#ED1C24"/>
<path d="M4.07406 5.7569C4.13371 5.79668 4.17349 5.88616 4.17349 6.01542V13.6515C4.17349 13.7907 4.13371 13.8702 4.07406 13.8901C4.00446 13.9199 3.91497 13.8901 3.8056 13.8106L0.156599 10.1516C-0.0521996 9.99253 -0.0521996 9.67436 0.156599 9.46557L3.8056 5.85633C3.91497 5.7569 4.00446 5.72708 4.07406 5.7569Z" fill="#ED1C24"/>
<path d="M11.3721 11.7722H8.67756C8.40911 11.7722 8.20031 11.981 8.20031 12.2495V15.1229C8.20031 15.4411 7.99151 15.6499 7.72306 15.6499H6.18192C5.92341 15.6499 5.81404 15.7991 6.03278 15.9581L9.63207 19.5674C9.7315 19.6767 9.8707 19.7265 9.99996 19.7265C10.1292 19.7265 10.2585 19.6767 10.3678 19.5674L13.9671 15.9581C14.1759 15.7991 14.0765 15.6499 13.808 15.6499H12.3763C12.1178 15.6499 11.909 15.4411 11.909 15.1229V12.2495C11.909 11.981 11.6902 11.7722 11.3721 11.7722Z" fill="#ED1C24"/>
</svg>
