<svg width="40" height="40" viewBox="0 0 40 40" fill="" xmlns="http://www.w3.org/2000/svg">
<g x="14" y="14" width="12" height="12">
<path fill-rule="evenodd" clip-rule="evenodd" d="M18.4 14C18.7314 14 19 14.2686 19 14.6V15.4C19 15.7314 18.7314 16 18.4 16H16V18.4C16 18.7314 15.7314 19 15.4 19H14.6C14.2686 19 14 18.7314 14 18.4V14.6C14 14.2686 14.2686 14 14.6 14H18.4ZM19 25.4C19 25.7314 18.7314 26 18.4 26H14.6C14.2686 26 14 25.7314 14 25.4V21.6C14 21.2686 14.2686 21 14.6 21H15.4C15.7314 21 16 21.2686 16 21.6V24H18.4C18.7314 24 19 24.2686 19 24.6V25.4ZM21 25.4C21 25.7314 21.2686 26 21.6 26H25.4C25.7314 26 26 25.7314 26 25.4V21.6C26 21.2686 25.7314 21 25.4 21H24.6C24.2686 21 24 21.2686 24 21.6V24H21.6C21.2686 24 21 24.2686 21 24.6V25.4ZM21 14.6C21 14.2686 21.2686 14 21.6 14H25.4C25.7314 14 26 14.2686 26 14.6V18.4C26 18.7314 25.7314 19 25.4 19H24.6C24.2686 19 24 18.7314 24 18.4V16H21.6C21.2686 16 21 15.7314 21 15.4V14.6Z" fill=""/>
</g>
</svg>
