<svg width="24" height="24" viewBox="0 0 24 24" fill="" xmlns="http://www.w3.org/2000/svg">
	<g clip-path="url(#mask0_22_13800)" x="6" y="6" width="12" height="12">
		<path d="M9.70093 7.11463C9.95837 7.37189 10.2167 7.62842 10.4729 7.88685C10.9249 8.34266 10.9257 8.87431 10.4756 9.3266C10.1527 9.65107 9.8317 9.97744 9.50251 10.2953C9.41552 10.3792 9.40864 10.4483 9.45272 10.554C9.66886 11.0731 9.98136 11.5327 10.333 11.965C11.0397 12.8337 11.8389 13.6047 12.7921 14.203C12.9962 14.3311 13.222 14.4244 13.4347 14.5398C13.544 14.5991 13.619 14.5802 13.7066 14.4897C14.0286 14.1569 14.3584 13.8314 14.6874 13.5053C15.1184 13.0783 15.6593 13.0775 16.0922 13.5062C16.6211 14.0301 17.1477 14.5564 17.6721 15.0847C18.112 15.5278 18.1085 16.0693 17.6661 16.5156C17.3673 16.8172 17.0514 17.1034 16.7688 17.4194C16.3574 17.8793 15.8414 18.0282 15.2511 17.9957C14.3931 17.9486 13.6016 17.6639 12.8394 17.2935C11.1451 16.4702 9.69668 15.3291 8.48505 13.887C7.58915 12.8208 6.84876 11.6604 6.36185 10.3498C6.12638 9.71593 5.95797 9.0667 6.00923 8.37999C6.04086 7.95625 6.20004 7.59576 6.51239 7.29853C6.84773 6.97919 7.16726 6.6433 7.49762 6.31854C7.9302 5.89319 8.47129 5.89407 8.90489 6.31971C9.17258 6.58239 9.43573 6.84946 9.70093 7.11463Z" fill="" />
	</g>
	<clipPath id="mask0_22_13800">
		<rect width="24" height="24" transform="matrix(-1 0 0 1 24 0)" fill="" />
	</clipPath>
</svg>