<svg width="56" height="36" viewBox="0 0 56 36" fill="none" xmlns="http://www.w3.org/2000/svg">
<path d="M26.8272 34.3837C29.1728 29.1918 32.1536 23.5102 35.7696 17.3388C39.3857 11.1673 42.904 5.38775 46.3246 0H56C53.5567 5.77959 50.9668 11.951 48.2304 18.5143C45.4939 25.0776 43.2461 30.9061 41.4869 36H27.4136L26.8272 34.3837ZM0 34.3837C2.34555 29.1918 5.27749 23.5102 8.79581 17.3388C12.3141 11.1673 15.7836 5.38775 19.2042 0H29.0262C26.5829 5.77959 23.993 11.951 21.2565 18.5143C18.6178 25.0776 16.37 30.9061 14.5131 36H0.43979L0 34.3837Z" fill="#FF6662"/>
</svg>
