<svg width="40" height="40" viewBox="0 0 40 40" fill="" xmlns="http://www.w3.org/2000/svg">
<path fill-rule="evenodd" clip-rule="evenodd" d="M26.7782 11.2218C22.4824 6.92606 15.5176 6.92606 11.2218 11.2218C6.92606 15.5176 6.92606 22.4824 11.2218 26.7782C15.3274 30.8837 21.8709 31.0655 26.1923 27.3235L30.4551 31.5865L31.5865 30.4551L27.3235 26.1923C31.0655 21.8709 30.8837 15.3274 26.7782 11.2218ZM12.3532 25.6468C8.68227 21.9759 8.68227 16.0241 12.3532 12.3532C16.0241 8.68227 21.9759 8.68227 25.6468 12.3532C29.3177 16.0241 29.3177 21.9759 25.6468 25.6468C21.9759 29.3177 16.0241 29.3177 12.3532 25.6468Z" fill=""/>
</svg>
