<svg width="24" height="24" viewBox="0 0 24 24" fill="" xmlns="http://www.w3.org/2000/svg">
<g clip-path="url(#clip0_455_5306)">
<path d="M6.328 20.3781C6.297 21.8431 6.124 23.5171 7.399 23.9211C8.649 24.3281 9.374 23.3231 11.004 21.2831C17.082 21.6981 22.447 19.9891 23.165 13.8621C23.808 8.41506 22.977 4.34006 20.838 2.40106C17.701 -0.604939 7.49 -1.02594 3.752 2.54706C2.213 4.14806 1.463 6.49706 1.393 9.94006C1.336 12.7521 1.22 18.5021 6.328 20.3781ZM2.893 9.97106C2.955 6.92806 3.571 4.89906 4.81 3.60906C7.931 0.62706 17.18 0.97206 19.815 3.50006C21.574 5.09306 22.253 8.80606 21.676 13.6871C21.152 18.1631 18.27 18.9271 17.185 19.2141C14.938 19.8071 12.796 19.9361 10.741 19.7581C10.2 19.7001 9.987 20.2121 9.79 20.3981C8.811 21.5751 8.105 22.4251 7.922 22.5391C7.787 22.3381 7.808 21.3871 7.824 20.6231C7.775 20.2791 8.083 19.3281 7.28 19.1131C2.735 17.7711 2.838 12.6981 2.893 9.97106Z" fill=""/>
<path d="M5.76204 7.98066C6.56304 9.57766 7.34404 12.3997 10.343 14.8557C11.384 15.7137 14.5 17.6937 15.72 17.6937C17.463 17.6937 19.454 14.9517 17.996 13.7287C17.34 13.0877 16.417 12.4567 15.825 12.1097C15.824 12.1087 15.823 12.1087 15.823 12.1087C14.286 11.2197 13.444 12.8557 13.344 12.9197C11.092 14.9357 8.31804 11.4337 10.262 9.73967C10.501 9.44267 11.927 8.75466 11.081 7.19066C10.331 5.83366 9.83604 5.36666 9.55604 4.97966C8.07904 3.13566 4.88304 6.19866 5.76204 7.98066ZM14.936 13.3537C15.038 13.4177 15.927 13.8067 16.988 14.8397C17.123 14.9527 16.223 16.2607 15.65 16.1857C15.537 16.1347 14.72 15.9397 12.965 14.8667C14.631 14.3007 14.617 13.4137 14.936 13.3537ZM8.27004 5.92866C8.33204 5.89566 8.36404 5.89366 8.36104 5.88566C8.64904 6.28666 9.07904 6.66866 9.76504 7.90966C9.94704 8.24666 9.49804 8.37767 9.20804 8.67367C8.79504 9.03967 8.49204 9.47567 8.30604 9.95667C7.69204 8.79767 7.41704 7.96266 7.13704 7.37866C7.02504 6.84666 7.79404 6.20066 8.27004 5.92866Z" fill=""/>
<path d="M12.812 8.54962C12.823 8.55062 13.911 8.68962 14.106 9.86062C14.271 10.8546 15.747 10.5876 15.585 9.61462C15.282 7.79562 13.751 7.14762 12.982 7.05962C11.997 6.94862 11.828 8.43562 12.812 8.54962Z" fill=""/>
<path d="M12.031 5.31541C12.048 5.31541 14.409 5.27341 15.946 6.91741C17.464 8.54141 17.129 10.9024 17.126 10.9234C16.973 11.8964 18.451 12.1544 18.607 11.1564C18.627 11.0314 19.068 8.06041 17.042 5.89241C15.031 3.74041 12.106 3.80741 11.985 3.81541C10.96 3.84941 11.084 5.39341 12.031 5.31541Z" fill=""/>
</g>
<defs>
<clipPath id="clip0_455_5306">
<rect width="24" height="24" fill=""/>
</clipPath>
</defs>
</svg>
