<svg width="40" height="40" viewBox="0 0 40 40" fill="" xmlns="http://www.w3.org/2000/svg">
<path d="M20.8287 14.1314C20.7839 14.1247 20.73 14.1209 20.673 14.1169C20.4373 14.1001 19.9471 14.0653 19.9761 13.5718C19.9887 13.3583 20.0871 13 20.6047 13C20.6624 13 20.7194 13.0038 20.7699 13.0071L20.7787 13.0077C20.8187 13.0103 20.8563 13.0128 20.8871 13.0128C20.9074 13.0128 20.9192 13.0117 20.9256 13.0108C20.9386 13.009 20.9514 13.0083 20.9649 13.0087C24.2152 13.1156 27.0311 15.9882 26.991 19.1561C26.9904 19.1978 26.9926 19.2454 26.9949 19.2959L26.9951 19.2988C27.0048 19.5089 27.0168 19.7705 26.844 19.9465C26.7449 20.0475 26.6064 20.0986 26.4323 20.0986L26.4151 20.0984C25.86 20.088 25.8516 19.5847 25.8476 19.3427C25.8465 19.2747 25.8454 19.2103 25.8386 19.1577C25.4363 16.0602 23.9849 14.604 20.8287 14.1314Z" fill=""/>
<path d="M21.2614 14.8414C23.4006 15.0916 25.127 16.9011 25.1097 18.8749C25.1097 18.884 25.109 18.8931 25.1077 18.9021C25.1027 18.9379 25.1046 18.9916 25.1066 19.0485C25.1138 19.2512 25.1286 19.6737 24.6542 19.7439C24.6067 19.7509 24.5611 19.7545 24.5187 19.7545C24.0092 19.7545 23.9804 19.293 23.9666 19.0712C23.9629 19.012 23.9594 18.9559 23.9517 18.9107C23.6354 17.0549 22.9882 16.3974 21.0662 15.9792C21.0199 15.9691 20.9649 15.9617 20.9065 15.9538L20.9018 15.9532C20.6966 15.9259 20.4411 15.8917 20.2959 15.6995C20.2096 15.5852 20.181 15.4391 20.211 15.2652C20.2418 15.0863 20.359 14.7864 20.7975 14.7864C20.908 14.7864 21.0175 14.804 21.1234 14.8211C21.1724 14.829 21.2189 14.8365 21.2614 14.8414Z" fill=""/>
<path d="M25.6864 23.161C25.6193 23.1111 25.5499 23.0594 25.485 23.0084C25.1405 22.7385 24.774 22.4897 24.4196 22.249C24.346 22.1991 24.272 22.1489 24.1987 22.0988C23.7446 21.7881 23.3363 21.6372 22.9505 21.6372C22.4309 21.6372 21.9779 21.9168 21.604 22.468C21.4384 22.7124 21.2374 22.8312 20.9898 22.8312C20.8433 22.8312 20.6769 22.7905 20.4952 22.7102C19.0293 22.0629 17.9825 21.0704 17.3839 19.7602C17.0946 19.127 17.1884 18.7131 17.6976 18.3762C17.9868 18.1851 18.5251 17.8293 18.487 17.1479C18.4438 16.3741 16.6905 14.0459 15.9518 13.7815C15.6391 13.6695 15.3105 13.6684 14.9734 13.7789C14.1242 14.0569 13.5148 14.5451 13.2109 15.1906C12.9172 15.8144 12.9305 16.5469 13.2492 17.3088C14.1707 19.5116 15.4662 21.4322 17.0999 23.0171C18.699 24.5686 20.6645 25.8395 22.9417 26.7943C23.1469 26.8803 23.3622 26.9272 23.5194 26.9614L23.5309 26.964C23.5796 26.9746 23.6217 26.9838 23.6529 26.9922C23.6715 26.9971 23.6906 26.9997 23.7097 26.9999L23.7277 27C24.7988 27 26.0848 26.047 26.4798 24.9604C26.8258 24.0091 26.1941 23.5388 25.6864 23.161Z" fill=""/>
<path d="M21.1469 16.6332C21.6329 16.6218 22.1673 16.8687 22.6107 17.3071C23.0524 17.7442 23.3122 18.2929 23.3065 18.7763C23.3222 19.2394 23.1488 19.4953 22.7912 19.5367C22.7688 19.5394 22.7463 19.5406 22.7244 19.5406C22.427 19.5406 22.1954 19.3068 22.1611 18.9719C22.0873 18.2536 21.7183 17.8667 20.9999 17.7545C20.8018 17.7234 20.584 17.6667 20.4703 17.4819C20.3928 17.3559 20.3853 17.2023 20.448 17.0254C20.5818 16.6471 20.9634 16.6377 21.1469 16.6332Z" fill=""/>
</svg>
