<svg width="24" height="24" viewBox="0 0 24 24" fill="none" xmlns="http://www.w3.org/2000/svg">
<path fill-rule="evenodd" clip-rule="evenodd" d="M12 2C17.5228 2 22 6.47715 22 12C22 17.5228 17.5228 22 12 22C6.47715 22 2 17.5228 2 12C2 6.47715 6.47715 2 12 2ZM12 3.6C7.36081 3.6 3.6 7.36081 3.6 12C3.6 16.6392 7.36081 20.4 12 20.4C16.6392 20.4 20.4 16.6392 20.4 12C20.4 7.36081 16.6392 3.6 12 3.6ZM12.6912 7.45345C12.6555 7.06578 12.3324 6.77201 11.9315 6.78171C11.4998 6.79215 11.1414 7.15058 11.1309 7.58229L11.0174 12.2755L11.0205 12.3665C11.0562 12.7542 11.3793 13.0479 11.7802 13.0382L16.4702 12.9248L16.5615 12.9173C16.9514 12.8628 17.2611 12.5251 17.2708 12.1242L17.2678 12.0332C17.232 11.6455 16.9089 11.3517 16.5081 11.3614L12.5997 11.4568L12.6943 7.54448L12.6912 7.45345Z" fill="#1D1D23"/>
</svg>
