<?xml version="1.0" encoding="UTF-8"?>
<svg xmlns="http://www.w3.org/2000/svg">
<style>:root>svg{display:none}:root>svg:target{display:block}</style><svg id="i-arrow-circle" viewBox="0 0 40 40"><path d="M20.1454 14.3431L25.8023 20L20.1454 25.6569L19.0141 24.5255L22.7419 20.7976L13 20.7977V19.1977L22.7377 19.1981L19.0141 15.4745L20.1454 14.3431Z" fill=""/></svg>
<svg id="i-arrow" viewBox="0 0 13 12"><path d="M7.14543 0.343145L12.8023 6L7.14543 11.6569L6.01406 10.5255L9.74193 6.79762L0 6.79771V5.19771L9.73769 5.19814L6.01406 1.47452L7.14543 0.343145Z" fill=""/></svg>
<svg id="i-basket-hover" viewBox="0 0 40 40"><path fill-rule="evenodd" clip-rule="evenodd" d="M38 13C38 8.02944 33.9706 4 29 4C24.7827 4 21.2428 6.90078 20.2687 10.8161C19.1037 9.80605 17.6203 9.2 16.0001 9.2C12.4808 9.2 9.57084 12.0727 9.23269 15.7805L9.21578 15.9999L5.20892 16C5.14602 16 5.08326 16.0059 5.02148 16.0177C4.47898 16.1212 4.12312 16.6449 4.22665 17.1874L6.58813 29.5623C6.85805 30.9768 8.09494 32 9.53495 32H22.4651C23.9052 32 25.142 30.9768 25.412 29.5623L26.9023 21.7542C27.5753 21.9149 28.2778 22 29 22C33.9706 22 38 17.9706 38 13ZM10.8261 15.9258C11.0914 13.0162 13.3364 10.8 16 10.8C17.604 10.8 19.0459 11.6 20.0011 12.8611L20 13L20.0039 13.2654C20.0316 14.222 20.2086 15.1413 20.5124 16.0006L10.8207 16L10.8261 15.9258Z" fill=""/></svg>
<svg id="i-basket-only" viewBox="0 0 167.000000 167.000000"><g transform="translate(0.000000,167.000000) scale(0.100000,-0.100000)" fill="#000000" stroke="none">
<path d="M598 1276 c-101 -28 -189 -125 -206 -229 l-7 -42 -100 -5 -100 -5 -3
-30 c-4 -38 94 -548 109 -574 31 -49 47 -51 374 -51 327 0 342 2 374 51 15 26
113 536 109 574 l-3 30 -100 5 -100 5 -7 42 c-27 158 -193 270 -340 229z m123
-67 c73 -22 133 -93 153 -181 l6 -28 -215 0 -215 0 6 28 c19 84 75 153 146
179 43 15 72 16 119 2z m359 -282 c0 -1 -20 -108 -45 -237 -25 -129 -45 -238
-45 -242 0 -5 -9 -17 -20 -28 -19 -19 -33 -20 -305 -20 -272 0 -286 1 -305 20
-11 11 -20 23 -20 28 0 4 -20 113 -45 242 -25 129 -45 236 -45 237 0 2 187 3
415 3 228 0 415 -1 415 -3z"/>
</g></svg>
<svg id="i-basket" viewBox="0 0 40 40"><g clip-path="url(#clip0_21_16940)" x="4" y="4" width="34" height="28">
		<path fill-rule="evenodd" clip-rule="evenodd" d="M29 4C33.9706 4 38 8.02944 38 13C38 17.9706 33.9706 22 29 22C28.2777 22 27.5753 21.9149 26.9022 21.7542L25.4119 29.5623C25.142 30.9768 23.9051 32 22.4651 32H9.53489C8.09488 32 6.85799 30.9768 6.58807 29.5623L4.22659 17.1874C4.12306 16.6449 4.47892 16.1212 5.02142 16.0177C5.0832 16.0059 5.14596 16 5.20886 16L9.21571 15.9999L9.23263 15.7805C9.57078 12.0727 12.4807 9.2 16 9.2C17.6202 9.2 19.1037 9.80605 20.2687 10.8161C21.2428 6.90078 24.7826 4 29 4ZM21.2632 17.6008L5.93399 17.6L8.15971 29.2624C8.27728 29.8785 8.78793 30.3355 9.40186 30.3937L9.53489 30.4H22.4651C23.0923 30.4 23.6369 29.9841 23.8092 29.3919L23.8403 29.2624L25.3703 21.2381C23.7601 20.5276 22.3974 19.3588 21.4476 17.897L21.2632 17.6008ZM10.826 15.9258C11.0914 13.0162 13.3364 10.8 16 10.8C17.6039 10.8 19.0459 11.6 20.001 12.8611L20 13L20.0038 13.2654C20.0315 14.222 20.2085 15.1413 20.5123 16.0006L10.8207 16L10.826 15.9258Z" fill=""/>
	</g><g clip-path="url(#clip1_21_16940)" x="19" y="3" width="20" height="20">
		<circle cx="29" cy="13" r="10" fill=""/>
	</g><defs>
		<clipPath id="clip0_21_16940">
			<rect width="33.7913" height="28" fill="" transform="translate(4.20868 4)"/>
		</clipPath>
		<clipPath id="clip1_21_16940">
			<rect width="20" height="20" fill="" transform="translate(19 3)"/>
		</clipPath>
	</defs></svg>
<svg id="i-calc" viewBox="0 0 40 40"><path fill-rule="evenodd" clip-rule="evenodd" d="M31.7895 6C33.0103 6 34 6.98969 34 8.21053V31.7895C34 33.0103 33.0103 34 31.7895 34H8.21053C6.98969 34 6 33.0103 6 31.7895V8.21053C6 6.98969 6.98969 6 8.21053 6H31.7895ZM31.7895 7.4H8.21053C7.79732 7.4 7.45633 7.7092 7.40632 8.10886L7.4 8.21053V31.7895C7.4 32.2027 7.7092 32.5437 8.10886 32.5937L8.21053 32.6H31.7895C32.2027 32.6 32.5437 32.2908 32.5937 31.8911L32.6 31.7895V8.21053C32.6 7.79732 32.2908 7.45633 31.8911 7.40632L31.7895 7.4ZM17.6714 23.3056C17.8682 23.0321 17.8436 22.6484 17.5976 22.4024C17.3242 22.129 16.881 22.129 16.6076 22.4024L14.206 24.803L11.8058 22.4024L11.7191 22.3286C11.4455 22.1318 11.0619 22.1564 10.8159 22.4024C10.5425 22.6758 10.5425 23.119 10.8159 23.3924L13.216 25.793L10.8159 28.1942L10.7421 28.2809C10.5453 28.5545 10.5699 28.9381 10.8159 29.1841C11.0893 29.4575 11.5325 29.4575 11.8058 29.1841L14.206 26.783L16.6076 29.1841L16.6944 29.2579C16.9679 29.4547 17.3516 29.4301 17.5976 29.1841C17.871 28.9107 17.871 28.4675 17.5976 28.1942L15.196 25.793L17.5976 23.3924L17.6714 23.3056ZM28.2083 27.0243C28.5949 27.0243 28.9083 27.3377 28.9083 27.7243C28.9083 28.0787 28.6449 28.3716 28.3032 28.418L28.2083 28.4243H22.4135C22.0269 28.4243 21.7135 28.1109 21.7135 27.7243C21.7135 27.37 21.9768 27.0771 22.3185 27.0307L22.4135 27.0243H28.2083ZM28.9083 23.8622C28.9083 23.4756 28.5949 23.1622 28.2083 23.1622H22.4135L22.3185 23.1686C21.9768 23.2149 21.7135 23.5078 21.7135 23.8622C21.7135 24.2488 22.0269 24.5622 22.4135 24.5622H28.2083L28.3032 24.5558C28.6449 24.5094 28.9083 24.2166 28.9083 23.8622ZM14.2083 10.6109C14.5626 10.6109 14.8555 10.8742 14.9019 11.2159L14.9083 11.3109L14.908 13.508L17.1026 13.5083C17.4892 13.5083 17.8026 13.8217 17.8026 14.2083C17.8026 14.5626 17.5393 14.8555 17.1976 14.9019L17.1026 14.9083L14.908 14.908L14.9083 17.1026C14.9083 17.4892 14.5949 17.8026 14.2083 17.8026C13.8539 17.8026 13.561 17.5393 13.5147 17.1976L13.5083 17.1026L13.508 14.908L11.3109 14.9083C10.9243 14.9083 10.6109 14.5949 10.6109 14.2083C10.6109 13.8539 10.8742 13.561 11.2159 13.5147L11.3109 13.5083L13.508 13.508L13.5083 11.3109C13.5083 10.9243 13.8217 10.6109 14.2083 10.6109ZM28.9083 14.2083C28.9083 13.8217 28.5949 13.5083 28.2083 13.5083H22.4135L22.3185 13.5147C21.9768 13.561 21.7135 13.8539 21.7135 14.2083C21.7135 14.5949 22.0269 14.9083 22.4135 14.9083H28.2083L28.3032 14.9019C28.6449 14.8555 28.9083 14.5626 28.9083 14.2083Z" fill=""/><g clip-path="url(#mask0_19_16936)" x="6" y="6" width="28" height="28">
		<path fill-rule="evenodd" clip-rule="evenodd" d="M31.7895 6C33.0103 6 34 6.98969 34 8.21053V31.7895C34 33.0103 33.0103 34 31.7895 34H8.21053C6.98969 34 6 33.0103 6 31.7895V8.21053C6 6.98969 6.98969 6 8.21053 6H31.7895ZM31.7895 7.4H8.21053C7.79732 7.4 7.45633 7.7092 7.40632 8.10886L7.4 8.21053V31.7895C7.4 32.2027 7.7092 32.5437 8.10886 32.5937L8.21053 32.6H31.7895C32.2027 32.6 32.5437 32.2908 32.5937 31.8911L32.6 31.7895V8.21053C32.6 7.79732 32.2908 7.45633 31.8911 7.40632L31.7895 7.4ZM17.6714 23.3056C17.8682 23.0321 17.8436 22.6484 17.5976 22.4024C17.3242 22.129 16.881 22.129 16.6076 22.4024L14.206 24.803L11.8058 22.4024L11.7191 22.3286C11.4455 22.1318 11.0619 22.1564 10.8159 22.4024C10.5425 22.6758 10.5425 23.119 10.8159 23.3924L13.216 25.793L10.8159 28.1942L10.7421 28.2809C10.5453 28.5545 10.5699 28.9381 10.8159 29.1841C11.0893 29.4575 11.5325 29.4575 11.8058 29.1841L14.206 26.783L16.6076 29.1841L16.6944 29.2579C16.9679 29.4547 17.3516 29.4301 17.5976 29.1841C17.871 28.9107 17.871 28.4675 17.5976 28.1942L15.196 25.793L17.5976 23.3924L17.6714 23.3056ZM28.2083 27.0243C28.5949 27.0243 28.9083 27.3377 28.9083 27.7243C28.9083 28.0787 28.6449 28.3716 28.3032 28.418L28.2083 28.4243H22.4135C22.0269 28.4243 21.7135 28.1109 21.7135 27.7243C21.7135 27.37 21.9768 27.0771 22.3185 27.0307L22.4135 27.0243H28.2083ZM28.9083 23.8622C28.9083 23.4756 28.5949 23.1622 28.2083 23.1622H22.4135L22.3185 23.1686C21.9768 23.2149 21.7135 23.5078 21.7135 23.8622C21.7135 24.2488 22.0269 24.5622 22.4135 24.5622H28.2083L28.3032 24.5558C28.6449 24.5094 28.9083 24.2166 28.9083 23.8622ZM14.2083 10.6109C14.5626 10.6109 14.8555 10.8742 14.9019 11.2159L14.9083 11.3109L14.908 13.508L17.1026 13.5083C17.4892 13.5083 17.8026 13.8217 17.8026 14.2083C17.8026 14.5626 17.5393 14.8555 17.1976 14.9019L17.1026 14.9083L14.908 14.908L14.9083 17.1026C14.9083 17.4892 14.5949 17.8026 14.2083 17.8026C13.8539 17.8026 13.561 17.5393 13.5147 17.1976L13.5083 17.1026L13.508 14.908L11.3109 14.9083C10.9243 14.9083 10.6109 14.5949 10.6109 14.2083C10.6109 13.8539 10.8742 13.561 11.2159 13.5147L11.3109 13.5083L13.508 13.508L13.5083 11.3109C13.5083 10.9243 13.8217 10.6109 14.2083 10.6109ZM28.9083 14.2083C28.9083 13.8217 28.5949 13.5083 28.2083 13.5083H22.4135L22.3185 13.5147C21.9768 13.561 21.7135 13.8539 21.7135 14.2083C21.7135 14.5949 22.0269 14.9083 22.4135 14.9083H28.2083L28.3032 14.9019C28.6449 14.8555 28.9083 14.5626 28.9083 14.2083Z" fill=""/>
	</g><clipPath id="mask0_19_16936">
		<rect width="40" height="40" fill=""/>
	</clipPath></svg>
<svg id="i-calendar" viewBox="0 0 20 20"><g clip-path="url(#clip0_196_4855)">
<path d="M17.16 2.27999H14.7V1.75999C14.7 1.25999 14.3 0.859985 13.8 0.859985C13.3 0.859985 12.9 1.25999 12.9 1.75999V2.27999H7.08V1.75999C7.08 1.25999 6.68 0.859985 6.18 0.859985C5.68 0.859985 5.28 1.25999 5.28 1.75999V2.27999H2.84C1.56 2.27999 0.5 3.31998 0.5 4.61998V16.8C0.5 18.08 1.54 19.14 2.84 19.14H17.18C18.46 19.14 19.52 18.1 19.52 16.8V4.61998C19.5 3.31998 18.46 2.27999 17.16 2.27999ZM2.84 4.07998H5.3V4.59998C5.3 5.09999 5.7 5.49998 6.2 5.49998C6.7 5.49998 7.1 5.09999 7.1 4.59998V4.07998H12.92V4.59998C12.92 5.09999 13.32 5.49998 13.82 5.49998C14.32 5.49998 14.72 5.09999 14.72 4.59998V4.07998H17.18C17.48 4.07998 17.72 4.31998 17.72 4.61998V6.99998H2.3V4.61998C2.3 4.31998 2.54 4.07998 2.84 4.07998ZM17.16 17.34H2.84C2.54 17.34 2.3 17.1 2.3 16.8V8.77998H17.72V16.8C17.7 17.1 17.46 17.34 17.16 17.34Z" fill="black"/>
</g><defs>
<clipPath id="clip0_196_4855">
<rect width="20" height="20" fill="white"/>
</clipPath>
</defs></svg>
<svg id="i-check-dark" viewBox="0 0 18 13"><path fill-rule="evenodd" clip-rule="evenodd" d="M18 1.65844L6.9153 12.7431L0 5.82784L1.65844 4.1694L6.9153 9.42626L16.3416 0L18 1.65844Z" fill="#1D1D23"/></svg>
<svg id="i-check-light" viewBox="0 0 18 13"><path fill-rule="evenodd" clip-rule="evenodd" d="M18 1.65844L6.9153 12.7431L0 5.82784L1.65844 4.1694L6.9153 9.42626L16.3416 0L18 1.65844Z" fill="white"/></svg>
<svg id="i-check-static-hover" viewBox="0 0 11 8"><path d="M9.76459 1.13794L4.1379 6.76463L1 3.62672" stroke="#ffffff" stroke-width="2" stroke-linecap="round" stroke-linejoin="round"/></svg>
<svg id="i-check-static" viewBox="0 0 11 8"><path d="M9.76459 1.13794L4.1379 6.76463L1 3.62672" stroke="#1D1D23" stroke-width="2" stroke-linecap="round" stroke-linejoin="round"/></svg>
<svg id="i-close" viewBox="0 0 24 24"><path d="M2.4 0L0 2.4L9.6 12L0 21.6L2.4 24L12 14.4L21.6 24L24 21.6L14.4 12L24 2.4L21.6 0L12 9.6L2.4 0Z" fill=""/></svg>
<svg id="i-congratulations" viewBox="0 0 40 40"><g clip-path="url(#clip0_197_4218)">
<path d="M23.8794 22.9956C24.8881 22.6738 25.625 21.7388 25.625 20.625C25.625 19.2463 24.5037 18.125 23.125 18.125H21.875V17.5C21.875 16.1213 20.7537 15 19.375 15C18.4306 15 17.6163 15.5325 17.1912 16.3075L12.9537 12.07L0.85125 36.2756C0.703125 36.5719 0.625 36.9025 0.625 37.2331C0.625 38.4138 1.58625 39.375 2.76688 39.375C3.09687 39.375 3.42813 39.2969 3.725 39.1488L27.93 27.0463L23.8794 22.9956ZM20.625 23.125V24.375H21.875V23.125H22.2412L23.125 24.0088V28.0513L19.375 29.9263V23.125H20.625ZM24.375 25.2588L25.82 26.7038L24.375 27.4263V25.2588ZM19.375 16.25C20.0644 16.25 20.625 16.8106 20.625 17.5V19.375H23.125C23.8144 19.375 24.375 19.9356 24.375 20.625C24.375 21.3144 23.8144 21.875 23.125 21.875H22.7588H22.5H18.125V17.5C18.125 16.8106 18.6856 16.25 19.375 16.25ZM18.125 23.125V30.5513L14.375 32.4263V15.2588L16.875 17.7588V23.125H18.125ZM13.125 14.5225V33.0513L9.375 34.9263V22.0225L10.6987 19.375H11.875V18.125H11.3237L13.125 14.5225ZM4.375 32.0225L6.01125 28.75H6.875V27.5H6.63625L8.125 24.5225V35.5513L4.375 37.4263V32.0225ZM1.875 37.2331C1.875 37.0956 1.9075 36.9575 1.96938 36.8344L3.125 34.5225V38.0456C3.01187 38.095 2.89 38.125 2.76688 38.125C2.275 38.125 1.875 37.725 1.875 37.2331Z" fill="#1D1D23"/>
<path d="M6.875 30.625H5.625V31.875H6.875V30.625Z" fill="#1D1D23"/>
<path d="M6.875 33.75H5.625V35H6.875V33.75Z" fill="#1D1D23"/>
<path d="M11.875 27.5H10.625V28.75H11.875V27.5Z" fill="#1D1D23"/>
<path d="M11.875 30.625H10.625V31.875H11.875V30.625Z" fill="#1D1D23"/>
<path d="M16.875 25.625H15.625V26.875H16.875V25.625Z" fill="#1D1D23"/>
<path d="M16.875 28.75H15.625V30H16.875V28.75Z" fill="#1D1D23"/>
<path d="M11.875 21.25H10.625V22.5H11.875V21.25Z" fill="#1D1D23"/>
<path d="M11.875 24.375H10.625V25.625H11.875V24.375Z" fill="#1D1D23"/>
<path d="M21.875 26.25H20.625V27.5H21.875V26.25Z" fill="#1D1D23"/>
<path d="M7.5 14.375C9.22312 14.375 10.625 12.9731 10.625 11.25V10.625H9.375V11.25C9.375 12.2838 8.53375 13.125 7.5 13.125C6.46625 13.125 5.625 12.2838 5.625 11.25C5.625 10.2162 6.46625 9.375 7.5 9.375C9.845 9.375 12.1606 9.99 14.1956 11.1531L15.315 11.7925L15.935 10.7075L14.8156 10.0681C12.5919 8.79687 10.0619 8.125 7.5 8.125C5.77688 8.125 4.375 9.52688 4.375 11.25C4.375 12.9731 5.77688 14.375 7.5 14.375Z" fill="#1D1D23"/>
<path d="M37.5 4.375C38.5338 4.375 39.375 3.53375 39.375 2.5C39.375 1.46625 38.5338 0.625 37.5 0.625C36.4662 0.625 35.625 1.46625 35.625 2.5C35.625 3.53375 36.4662 4.375 37.5 4.375ZM37.5 1.875C37.8444 1.875 38.125 2.15562 38.125 2.5C38.125 2.84437 37.8444 3.125 37.5 3.125C37.1556 3.125 36.875 2.84437 36.875 2.5C36.875 2.15562 37.1556 1.875 37.5 1.875Z" fill="#1D1D23"/>
<path d="M32.6831 6.43301L30.1831 8.93304L31.067 9.81692L33.567 7.31688L32.6831 6.43301Z" fill="#1D1D23"/>
<path d="M28.9326 10.1831L23.3076 15.8081L24.1915 16.692L29.8165 11.067L28.9326 10.1831Z" fill="#1D1D23"/>
<path d="M34.5579 4.55834L33.3081 5.80814L34.192 6.69201L35.4418 5.44221L34.5579 4.55834Z" fill="#1D1D23"/>
<path d="M26.875 5.625V4.375C26.1856 4.375 25.625 3.81437 25.625 3.125C25.625 2.43562 26.1856 1.875 26.875 1.875C27.5644 1.875 28.125 2.43562 28.125 3.125C28.125 4.97312 27.405 6.71063 26.0981 8.01813L24.5581 9.55813L25.4419 10.4419L26.9819 8.90187C28.525 7.35875 29.375 5.30687 29.375 3.125C29.375 1.74625 28.2538 0.625 26.875 0.625C25.4962 0.625 24.375 1.74625 24.375 3.125C24.375 4.50375 25.4962 5.625 26.875 5.625Z" fill="#1D1D23"/>
<path d="M32.5 2.5H31.25V3.75H32.5V2.5Z" fill="#1D1D23"/>
<path d="M18.7631 6.79939L17.8925 5.90189C17.3719 6.40564 16.5262 6.40626 16.0056 5.90189C15.76 5.66376 15.625 5.34876 15.625 5.01439C15.625 4.68001 15.76 4.36501 16.0063 4.12689C16.5263 3.62189 17.3719 3.62251 17.8931 4.12689C19.2519 5.44439 20 7.19439 20 9.05501V11.25H21.25V9.05501C21.25 6.85376 20.3663 4.78439 18.7631 3.23001C17.7631 2.26064 16.1363 2.26001 15.1363 3.23001C14.645 3.70564 14.375 4.33939 14.375 5.01439C14.375 5.68939 14.645 6.32376 15.1356 6.79876C16.1356 7.76876 17.7619 7.76939 18.7631 6.79939Z" fill="#1D1D23"/>
<path d="M18.75 11.25H17.5V12.5H18.75V11.25Z" fill="#1D1D23"/>
<path d="M36.875 10.625C34.6931 10.625 32.6412 11.475 31.0981 13.0181L29.5581 14.5581L30.4419 15.4419L31.9819 13.9019C33.2894 12.595 35.0269 11.875 36.875 11.875C37.5644 11.875 38.125 12.4356 38.125 13.125C38.125 13.8144 37.5644 14.375 36.875 14.375C36.1856 14.375 35.625 13.8144 35.625 13.125H34.375C34.375 14.5038 35.4962 15.625 36.875 15.625C38.2537 15.625 39.375 14.5038 39.375 13.125C39.375 11.7462 38.2537 10.625 36.875 10.625Z" fill="#1D1D23"/>
<path d="M37.5 7.5H36.25V8.75H37.5V7.5Z" fill="#1D1D23"/>
<path d="M20.625 0.625H19.375V1.875H20.625V0.625Z" fill="#1D1D23"/>
<path d="M29.2925 24.065L28.2075 24.685L28.8469 25.8044C30.01 27.8394 30.625 30.155 30.625 32.5C30.625 33.5337 29.7838 34.375 28.75 34.375C27.7162 34.375 26.875 33.5337 26.875 32.5C26.875 31.4662 27.7162 30.625 28.75 30.625H29.375V29.375H28.75C27.0269 29.375 25.625 30.7769 25.625 32.5C25.625 34.2231 27.0269 35.625 28.75 35.625C30.4731 35.625 31.875 34.2231 31.875 32.5C31.875 29.9381 31.2031 27.4081 29.9319 25.1838L29.2925 24.065Z" fill="#1D1D23"/>
<path d="M36.7706 21.2375C35.2156 19.6337 33.1469 18.75 30.9456 18.75H28.75V20H30.945C32.8056 20 34.555 20.7481 35.8725 22.1075C36.3769 22.6275 36.3769 23.4737 35.8725 23.9944C35.3962 24.4856 34.5744 24.4862 34.0981 23.9944C33.5937 23.4744 33.5937 22.6281 34.0981 22.1081L33.2006 21.2375C32.2312 22.2375 32.2312 23.8644 33.2006 24.8644C33.6762 25.355 34.31 25.625 34.9856 25.625C35.6612 25.625 36.295 25.355 36.77 24.8644C37.74 23.8644 37.74 22.2375 36.7706 21.2375Z" fill="#1D1D23"/>
<path d="M28.75 21.25H27.5V22.5H28.75V21.25Z" fill="#1D1D23"/>
<path d="M39.375 19.375H38.125V20.625H39.375V19.375Z" fill="#1D1D23"/>
<path d="M37.5 31.25H36.25V32.5H37.5V31.25Z" fill="#1D1D23"/>
<path d="M8.75 2.5H7.5V3.75H8.75V2.5Z" fill="#1D1D23"/>
</g><defs>
<clipPath id="clip0_197_4218">
<rect width="40" height="40" fill="white"/>
</clipPath>
</defs></svg>
<svg id="i-copy" viewBox="0 0 24 24"><g clip-path="url(#clip0_454_5284)">
<path d="M16 20H8C7.20435 20 6.44129 19.6839 5.87868 19.1213C5.31607 18.5587 5 17.7956 5 17V7C5 6.73478 4.89464 6.48043 4.70711 6.29289C4.51957 6.10536 4.26522 6 4 6C3.73478 6 3.48043 6.10536 3.29289 6.29289C3.10536 6.48043 3 6.73478 3 7V17C3 18.3261 3.52678 19.5979 4.46447 20.5355C5.40215 21.4732 6.67392 22 8 22H16C16.2652 22 16.5196 21.8946 16.7071 21.7071C16.8946 21.5196 17 21.2652 17 21C17 20.7348 16.8946 20.4804 16.7071 20.2929C16.5196 20.1054 16.2652 20 16 20ZM21 8.94C20.9896 8.84813 20.9695 8.75763 20.94 8.67V8.58C20.8919 8.47718 20.8278 8.38267 20.75 8.3L14.75 2.3C14.6673 2.22222 14.5728 2.15808 14.47 2.11H14.38L14.06 2H10C9.20435 2 8.44129 2.31607 7.87868 2.87868C7.31607 3.44129 7 4.20435 7 5V15C7 15.7956 7.31607 16.5587 7.87868 17.1213C8.44129 17.6839 9.20435 18 10 18H18C18.7956 18 19.5587 17.6839 20.1213 17.1213C20.6839 16.5587 21 15.7956 21 15V9C21 9 21 9 21 8.94ZM15 5.41L17.59 8H16C15.7348 8 15.4804 7.89464 15.2929 7.70711C15.1054 7.51957 15 7.26522 15 7V5.41ZM19 15C19 15.2652 18.8946 15.5196 18.7071 15.7071C18.5196 15.8946 18.2652 16 18 16H10C9.73478 16 9.48043 15.8946 9.29289 15.7071C9.10536 15.5196 9 15.2652 9 15V5C9 4.73478 9.10536 4.48043 9.29289 4.29289C9.48043 4.10536 9.73478 4 10 4H13V7C13 7.79565 13.3161 8.55871 13.8787 9.12132C14.4413 9.68393 15.2044 10 16 10H19V15Z" fill=""/>
</g><defs>
<clipPath id="clip0_454_5284">
<rect width="24" height="24" fill=""/>
</clipPath>
</defs></svg>
<svg id="i-delivery-time" viewBox="0 0 26 26"><path d="M17.1548 5.71741C13.143 5.71741 9.87476 8.98301 9.87476 13C9.87476 17.0144 13.143 20.2826 17.1548 20.2826C21.1718 20.2826 24.4374 17.0144 24.4374 13C24.4348 8.98301 21.1718 5.71741 17.1548 5.71741ZM17.1548 19.565C13.533 19.565 10.5872 16.6218 10.5872 13C10.5872 9.37821 13.533 6.43241 17.1548 6.43241C20.774 6.43241 23.7198 9.37821 23.7198 13C23.7198 16.6218 20.774 19.565 17.1548 19.565Z" fill="black"/><path d="M17.1548 8.7386L17.16 8.736V8.7386C17.2562 8.7386 17.342 8.697 17.4044 8.6346H17.4096C17.4304 8.6112 17.4304 8.5774 17.446 8.5488C17.4772 8.4968 17.511 8.4474 17.511 8.3824V8.3798V6.8848C17.511 6.6872 17.3576 6.526 17.16 6.526H17.1548C16.9624 6.526 16.7986 6.6872 16.7986 6.8848V8.3772V8.3798C16.7986 8.58 16.9598 8.7386 17.1548 8.7386Z" fill="black"/><path d="M23.2673 12.6412H21.7749C21.5773 12.6412 21.4187 12.8024 21.4187 13C21.4187 13.1976 21.5773 13.3562 21.7749 13.3562H23.2673C23.4649 13.3562 23.6235 13.1976 23.6235 13C23.6235 12.8024 23.4649 12.6412 23.2673 12.6412Z" fill="black"/><path d="M17.1548 17.2614C16.9624 17.2614 16.7986 17.4226 16.7986 17.6176V19.1152C16.7986 19.3102 16.9624 19.4714 17.1548 19.4714C17.3576 19.4714 17.511 19.3102 17.511 19.1152V17.615C17.5084 17.42 17.3576 17.2614 17.1548 17.2614Z" fill="black"/><path d="M12.5397 12.6412H11.0421C10.8445 12.6412 10.6833 12.8024 10.6833 13C10.6833 13.1976 10.8471 13.3562 11.0421 13.3562H12.5397C12.7347 13.3562 12.8959 13.1976 12.8959 13C12.8959 12.8024 12.7347 12.6412 12.5397 12.6412Z" fill="black"/><path d="M17.5551 12.8388L18.2415 9.17278C18.2779 8.97778 18.1505 8.79318 17.9581 8.75678C17.7631 8.71778 17.5759 8.84518 17.5395 9.04018L16.8037 12.935C16.7777 13.0754 16.8401 13.2132 16.9571 13.2964L19.2971 14.9214C19.3517 14.9656 19.4245 14.9838 19.4947 14.9838C19.6065 14.9838 19.7235 14.9292 19.7937 14.8304C19.9055 14.6666 19.8639 14.443 19.6975 14.3312L17.5551 12.8388Z" fill="black"/><path d="M3.09391 7.91178H9.74211C9.93711 7.91178 10.1035 7.75058 10.1035 7.55558C10.1035 7.35798 9.93971 7.19678 9.74211 7.19678H3.09391C2.89631 7.19678 2.73511 7.35798 2.73511 7.55558C2.73511 7.75058 2.89631 7.91178 3.09391 7.91178Z" fill="black"/><path d="M11.0059 18.1142H4.35245C4.15745 18.1142 3.99365 18.2728 3.99365 18.4704C3.99365 18.668 4.15745 18.8292 4.35245 18.8292H11.0059C11.2009 18.8292 11.3647 18.668 11.3647 18.4704C11.3647 18.2728 11.2009 18.1142 11.0059 18.1142Z" fill="black"/><path d="M8.93374 13C8.93374 12.8024 8.76994 12.6412 8.57234 12.6412H1.92154C1.72654 12.6412 1.56274 12.8024 1.56274 13C1.56274 13.1976 1.72654 13.3562 1.92154 13.3562H8.57494C8.76994 13.3562 8.93374 13.1976 8.93374 13Z" fill="black"/></svg>
<svg id="i-delivery" viewBox="0 0 26 26"><path d="M23.9542 12.8541C23.9083 12.7625 21.2042 8.27081 21.2042 8.27081C21.1125 8.13331 20.975 8.04165 20.7917 8.04165H15.75V6.66665C15.75 6.39165 15.5667 6.20831 15.2917 6.20831H2.45833C2.18333 6.20831 2 6.39165 2 6.66665V19.5C2 19.775 2.18333 19.9583 2.45833 19.9583H3.42083C3.65 21.2416 4.75 22.25 6.125 22.25C7.5 22.25 8.6 21.2416 8.82917 19.9583H16.7125C16.9417 21.2416 18.0417 22.25 19.4167 22.25C20.7917 22.25 21.8917 21.2416 22.1208 19.9583H23.5417C23.8167 19.9583 24 19.775 24 19.5C24 19.5 24 13.175 24 13.0833C24 12.9916 24 12.9458 23.9542 12.8541ZM22.7167 12.625H18.5V10.7916H21.6167L22.7167 12.625ZM2.91667 7.12498H14.8333V19.0416H8.82917C8.6 17.7583 7.5 16.75 6.125 16.75C4.75 16.75 3.65 17.7583 3.42083 19.0416H2.91667V7.12498ZM6.125 21.3333C5.11667 21.3333 4.29167 20.5083 4.29167 19.5C4.29167 18.4916 5.11667 17.6666 6.125 17.6666C7.13333 17.6666 7.95833 18.4916 7.95833 19.5C7.95833 20.5083 7.13333 21.3333 6.125 21.3333ZM19.4167 21.3333C18.4083 21.3333 17.5833 20.5083 17.5833 19.5C17.5833 18.4916 18.4083 17.6666 19.4167 17.6666C20.425 17.6666 21.25 18.4916 21.25 19.5C21.25 20.5083 20.425 21.3333 19.4167 21.3333ZM22.1208 19.0416C21.8917 17.7583 20.7917 16.75 19.4167 16.75C18.0417 16.75 16.9417 17.7583 16.7125 19.0416H15.75V8.95831H20.5167L21.0667 9.87498H18.0417C17.7667 9.87498 17.5833 10.0583 17.5833 10.3333V13.0833C17.5833 13.3583 17.7667 13.5416 18.0417 13.5416H23.0833V19.0416H22.1208Z" fill="#1D1D23"/></svg>
<svg id="i-direct" viewBox="0 0 40 40"><g clip-path="url(#mask0_15_13806)" x="12" y="12" width="16" height="16">
		<path d="M27.6846 19.4888L12.8277 12.0599C12.5992 11.9467 12.3249 11.997 12.15 12.1845C11.9786 12.373 11.9512 12.6531 12.0849 12.8702L16.4722 19.9997L12.0848 27.1291C11.9511 27.3463 11.9774 27.6263 12.15 27.8148C12.262 27.936 12.4151 28 12.5717 28C12.6585 28 12.7454 27.9806 12.8277 27.9394L27.6846 20.5105C27.8777 20.4134 28 20.2157 28 19.9997C28 19.7836 27.8777 19.5859 27.6846 19.4888Z" fill=""/>
	</g><clipPath id="mask0_15_13806">
		<rect width="40" height="40" transform="matrix(-1 0 0 1 40 0)" fill=""/>
	</clipPath></svg>
<svg id="i-direct2" viewBox="0 0 24 24"><path d="M12 2C10.6868 2 9.38641 2.25866 8.17315 2.7612C6.9599 3.26375 5.85751 4.00035 4.92892 4.92893C3.05356 6.8043 1.99999 9.34784 1.99999 12C1.99125 14.3091 2.79078 16.5485 4.25999 18.33L2.25999 20.33C2.12123 20.4706 2.02723 20.6492 1.98986 20.8432C1.95249 21.0372 1.97341 21.2379 2.04999 21.42C2.13305 21.5999 2.26769 21.7511 2.43683 21.8544C2.60598 21.9577 2.80199 22.0083 2.99999 22H12C14.6522 22 17.1957 20.9464 19.0711 19.0711C20.9464 17.1957 22 14.6522 22 12C22 9.34784 20.9464 6.8043 19.0711 4.92893C17.1957 3.05357 14.6522 2 12 2ZM12 20H5.40999L6.33999 19.07C6.52624 18.8826 6.63078 18.6292 6.63078 18.365C6.63078 18.1008 6.52624 17.8474 6.33999 17.66C5.03057 16.352 4.21516 14.6305 4.03268 12.7888C3.8502 10.947 4.31193 9.09901 5.33922 7.55952C6.3665 6.02004 7.89578 4.88436 9.6665 4.34597C11.4372 3.80759 13.3398 3.8998 15.0502 4.60691C16.7606 5.31402 18.1728 6.59227 19.0464 8.22389C19.92 9.85551 20.2009 11.7395 19.8411 13.555C19.4814 15.3705 18.5033 17.005 17.0735 18.1802C15.6438 19.3554 13.8508 19.9985 12 20Z" fill=""/></svg>
<svg id="i-drop-down" viewBox="0 0 24 24"><mask id="mask0_21_16941" style="mask-type:luminance" maskUnits="userSpaceOnUse" x="8" y="10" width="8" height="5">
<path d="M8.22341 11.3667C7.92553 11.054 7.92553 10.5471 8.22341 10.2345C8.50001 9.94417 8.9362 9.92343 9.2356 10.1723L9.30213 10.2345L12.0016 13.0678L14.6979 10.2367C14.9745 9.94642 15.4107 9.92569 15.7101 10.1745L15.7766 10.2367C16.0532 10.5271 16.073 10.9849 15.8359 11.2991L15.7766 11.3689L12.5404 14.7655C12.2638 15.0558 11.8276 15.0766 11.5282 14.8277L11.4617 14.7655L8.22341 11.3667Z" fill="white"/>
</mask><g mask="url(#mask0_21_16941)">
<rect width="24" height="24" transform="matrix(-1 0 0 1 24 0)" fill="black"/>
</g></svg>
<svg id="i-email" viewBox="0 0 24 24"><g clip-path="url(#clip0_454_5278)">
<path d="M12 2C6.48 2 2 6.48 2 12C2 17.52 6.48 22 12 22H17V20H12C7.66 20 4 16.34 4 12C4 7.66 7.66 4 12 4C16.34 4 20 7.66 20 12V13.43C20 14.22 19.29 15 18.5 15C17.71 15 17 14.22 17 13.43V12C17 9.24 14.76 7 12 7C9.24 7 7 9.24 7 12C7 14.76 9.24 17 12 17C13.38 17 14.64 16.44 15.54 15.53C16.19 16.42 17.31 17 18.5 17C20.47 17 22 15.4 22 13.43V12C22 6.48 17.52 2 12 2ZM12 15C10.34 15 9 13.66 9 12C9 10.34 10.34 9 12 9C13.66 9 15 10.34 15 12C15 13.66 13.66 15 12 15Z" fill=""/>
</g><defs>
<clipPath id="clip0_454_5278">
<rect width="24" height="24" fill=""/>
</clipPath>
</defs></svg>
<svg id="i-eye-off" viewBox="0 0 24 24"><path fill-rule="evenodd" clip-rule="evenodd" d="M19.7071 5.70711C20.0976 5.31658 20.0976 4.68342 19.7071 4.29289C19.3166 3.90237 18.6834 3.90237 18.2929 4.29289L14.032 8.55382C13.4365 8.20193 12.7418 8 12 8C9.79086 8 8 9.79086 8 12C8 12.7418 8.20193 13.4365 8.55382 14.032L4.29289 18.2929C3.90237 18.6834 3.90237 19.3166 4.29289 19.7071C4.68342 20.0976 5.31658 20.0976 5.70711 19.7071L9.96803 15.4462C10.5635 15.7981 11.2582 16 12 16C14.2091 16 16 14.2091 16 12C16 11.2582 15.7981 10.5635 15.4462 9.96803L19.7071 5.70711ZM12.518 10.0677C12.3528 10.0236 12.1792 10 12 10C10.8954 10 10 10.8954 10 12C10 12.1792 10.0236 12.3528 10.0677 12.518L12.518 10.0677ZM11.482 13.9323L13.9323 11.482C13.9764 11.6472 14 11.8208 14 12C14 13.1046 13.1046 14 12 14C11.8208 14 11.6472 13.9764 11.482 13.9323ZM15.7651 4.8207C14.6287 4.32049 13.3675 4 12 4C9.14754 4 6.75717 5.39462 4.99812 6.90595C3.23268 8.42276 2.00757 10.1376 1.46387 10.9698C1.05306 11.5985 1.05306 12.4015 1.46387 13.0302C1.92276 13.7326 2.86706 15.0637 4.21194 16.3739L5.62626 14.9596C4.4555 13.8229 3.61144 12.6531 3.18002 12C3.6904 11.2274 4.77832 9.73158 6.30147 8.42294C7.87402 7.07185 9.81574 6 12 6C12.7719 6 13.5135 6.13385 14.2193 6.36658L15.7651 4.8207ZM12 18C11.2282 18 10.4866 17.8661 9.78083 17.6334L8.23496 19.1793C9.37136 19.6795 10.6326 20 12 20C14.8525 20 17.2429 18.6054 19.002 17.0941C20.7674 15.5772 21.9925 13.8624 22.5362 13.0302C22.947 12.4015 22.947 11.5985 22.5362 10.9698C22.0773 10.2674 21.133 8.93627 19.7881 7.62611L18.3738 9.04043C19.5446 10.1771 20.3887 11.3469 20.8201 12C20.3097 12.7726 19.2218 14.2684 17.6986 15.5771C16.1261 16.9282 14.1843 18 12 18Z" fill="#7a7f83"/></svg>
<svg id="i-eye" viewBox="0 0 24 24"><path fill-rule="evenodd" clip-rule="evenodd" d="M6.30147 15.5771C4.77832 14.2684 3.6904 12.7726 3.18002 12C3.6904 11.2274 4.77832 9.73158 6.30147 8.42294C7.87402 7.07185 9.81574 6 12 6C14.1843 6 16.1261 7.07185 17.6986 8.42294C19.2218 9.73158 20.3097 11.2274 20.8201 12C20.3097 12.7726 19.2218 14.2684 17.6986 15.5771C16.1261 16.9282 14.1843 18 12 18C9.81574 18 7.87402 16.9282 6.30147 15.5771ZM12 4C9.14754 4 6.75717 5.39462 4.99812 6.90595C3.23268 8.42276 2.00757 10.1376 1.46387 10.9698C1.05306 11.5985 1.05306 12.4015 1.46387 13.0302C2.00757 13.8624 3.23268 15.5772 4.99812 17.0941C6.75717 18.6054 9.14754 20 12 20C14.8525 20 17.2429 18.6054 19.002 17.0941C20.7674 15.5772 21.9925 13.8624 22.5362 13.0302C22.947 12.4015 22.947 11.5985 22.5362 10.9698C21.9925 10.1376 20.7674 8.42276 19.002 6.90595C17.2429 5.39462 14.8525 4 12 4ZM10 12C10 10.8954 10.8955 10 12 10C13.1046 10 14 10.8954 14 12C14 13.1046 13.1046 14 12 14C10.8955 14 10 13.1046 10 12ZM12 8C9.7909 8 8.00004 9.79086 8.00004 12C8.00004 14.2091 9.7909 16 12 16C14.2092 16 16 14.2091 16 12C16 9.79086 14.2092 8 12 8Z" fill="#7a7f83"/></svg>
<svg id="i-facebook" viewBox="0 0 48 48"><g clip-path="url(#mask0_21_17466)" x="21" y="16" width="7" height="16">
		<path fill-rule="evenodd" clip-rule="evenodd" d="M25.362 31.0001V23.9691H27.896L28 21.4431H25.362V19.5911C25.362 19.2401 25.421 18.9631 25.538 18.7591C25.656 18.5561 25.937 18.4611 26.38 18.4751H27.938L28 16.1181C27.806 16.0891 27.609 16.0721 27.408 16.0641C27.207 16.0581 27.024 16.0471 26.858 16.0331C26.664 16.0191 26.47 16.0121 26.276 16.0121C25.667 15.9701 25.144 16.0371 24.708 16.2121C24.271 16.3881 23.911 16.6331 23.628 16.9491C23.344 17.2651 23.133 17.6261 22.994 18.0331C22.856 18.4401 22.786 18.8541 22.786 19.2751V21.4431H21V23.9691H22.786V31.0001H25.362Z" fill=""/>
	</g><clipPath id="mask0_21_17466">
		<rect width="48" height="48" fill=""/>
	</clipPath></svg>
<svg id="i-filter" viewBox="0 0 24 16"><path d="M5 0H3V1H0V3H3V4H5V3H24V1H5V0Z" fill=""/><path d="M16 6H18V7H24V9H18V10H16V9H0V7H16V6Z" fill=""/><path d="M10 12H8V13H0V15H8V16H10V15H24V13H10V12Z" fill=""/></svg>
<svg id="i-gear" viewBox="0 0 16 16"><path d="M12.3678 5.42417C11.9883 4.75281 12.0406 3.93489 12.4241 3.22209C12.5465 2.99473 12.4739 2.71265 12.2515 2.58161L10.4831 1.53889C10.2548 1.40433 9.96651 1.48545 9.82987 1.71265C9.41643 2.39969 8.75339 2.84849 7.99979 2.84849C7.24619 2.84849 6.58315 2.39985 6.16971 1.71265C6.03307 1.48561 5.74475 1.40433 5.51643 1.53889L3.74827 2.58161C3.52587 2.71281 3.45323 2.99473 3.57547 3.22209C3.95883 3.93489 4.01131 4.75281 3.63179 5.42417C3.25483 6.09121 2.54219 6.45345 1.75227 6.47505C1.49083 6.48225 1.27979 6.68801 1.27979 6.94945V9.05041C1.27979 9.31201 1.49083 9.51761 1.75227 9.52481C2.54203 9.54641 3.25483 9.90865 3.63179 10.5757C4.01131 11.247 3.95899 12.065 3.57547 12.7778C3.45307 13.0051 3.52571 13.2872 3.74811 13.4182L5.51627 14.461C5.74459 14.5955 6.03291 14.5144 6.16955 14.2872C6.58283 13.6002 7.24603 13.1514 7.99963 13.1514C8.75323 13.1514 9.41627 13.6 9.82971 14.2872C9.96635 14.5142 10.2547 14.5955 10.483 14.461L12.2511 13.4182C12.4735 13.287 12.5462 13.0051 12.4238 12.7778C12.0404 12.065 11.9879 11.247 12.3675 10.5757C12.7444 9.90865 13.4571 9.54641 14.247 9.52481C14.5087 9.51777 14.7198 9.31201 14.7198 9.05057V6.94945C14.7198 6.68785 14.5087 6.48225 14.2473 6.47505C13.4574 6.45345 12.7447 6.09121 12.3678 5.42417ZM7.99979 10.4C6.67435 10.4 5.59979 9.32545 5.59979 8.00001C5.59979 6.67457 6.67435 5.60001 7.99979 5.60001C9.32523 5.60001 10.3998 6.67457 10.3998 8.00001C10.3998 9.32545 9.32523 10.4 7.99979 10.4Z" fill="#1D1D23"/></svg>
<svg id="i-heart-filled-hover" viewBox="0 0 40 40"><g clip-path="url(#clip0_21_16940)" x="4" y="4" width="34" height="28">
        <path fill-rule="evenodd" clip-rule="evenodd" d="M19.7053 11.3758L19.8001 11.4825L19.8948 11.3757C22.0797 8.98441 25.6366 8.27573 28.6094 9.81423C32.1246 11.6335 33.5777 15.9405 31.9053 19.5591L31.7671 19.8362L31.609 20.0949L31.5158 20.2377L31.3203 20.5223L31.1007 20.8233L30.7957 21.219L30.4552 21.639L30.1535 21.9969L29.6594 22.5625L29.1126 23.166L28.7157 23.5928L28.0777 24.2636L27.6201 24.7353L26.8892 25.4756L26.1028 26.2575L25.26 27.082L24.0502 28.2462L22.7398 29.4868L21.0785 31.0317C20.8386 31.2978 20.5269 31.4792 20.1409 31.5661L19.9945 31.5888L19.8413 31.5995L19.6757 31.5952L19.5528 31.5821C19.2398 31.5375 18.944 31.4069 18.6552 31.163L18.5688 31.0794L16.8559 29.4826L15.5454 28.2417L14.3355 27.0774L13.4928 26.2529L12.7058 25.4704L11.9753 24.7303L11.5171 24.2579L10.8784 23.5862L10.4807 23.1583L9.93115 22.5516L9.43736 21.986L9.1343 21.6259L8.7293 21.1234L8.48666 20.8062L8.26682 20.5037L8.07338 20.2212L7.97912 20.0756L7.80175 19.7798C5.96503 16.1381 7.39047 11.6775 10.9909 9.81423C13.9637 8.27572 17.5206 8.98443 19.7053 11.3758Z" fill=""/>
    </g><g clip-path="url(#clip1_21_16940)" x="19" y="3" width="20" height="20">
        <circle cx="29" cy="13" r="10" fill="#ff6762" stroke="#ff6762" stroke-opacity="0.8"/>
    </g><defs>
        <clipPath id="clip0_21_16940">
            <rect width="33.7913" height="28" fill="" transform="translate(4.20868 4)"/>
        </clipPath>
        <clipPath id="clip1_21_16940">
            <rect width="20" height="20" fill="" transform="translate(19 3)"/>
        </clipPath>
    </defs></svg>
<svg id="i-heart-filled" viewBox="0 0 40 40"><g clip-path="url(#clip0_21_16940)" x="4" y="4" width="34" height="28">
    <path fill-rule="evenodd" clip-rule="evenodd" d="M19.9052 11.5763L20 11.683L20.0946 11.5762C22.2795 9.18491 25.8365 8.47623 28.8093 10.0147C32.3245 11.834 33.7776 16.141 32.1052 19.7596L31.967 20.0367L31.8088 20.2954L31.7157 20.4382L31.5202 20.7228L31.3006 21.0238L30.9956 21.4195L30.655 21.8395L30.3534 22.1974L29.8593 22.763L29.3125 23.3665L28.9156 23.7933L28.2775 24.4641L27.8199 24.9358L27.0891 25.6761L26.3027 26.458L25.4599 27.2825L24.2501 28.4467L22.9397 29.6873L21.2784 31.2322C21.0385 31.4983 20.7268 31.6797 20.3408 31.7666L20.1944 31.7893L20.0412 31.8L19.8756 31.7957L19.7527 31.7826C19.4397 31.738 19.1439 31.6074 18.8551 31.3635L18.7687 31.2799L17.0558 29.6831L15.7453 28.4422L14.5354 27.2779L13.6927 26.4534L12.9057 25.6709L12.1752 24.9308L11.717 24.4584L11.0783 23.7867L10.6805 23.3588L10.131 22.7521L9.63725 22.1865L9.33419 21.8264L8.92919 21.3239L8.68655 21.0067L8.46671 20.7042L8.27327 20.4217L8.17901 20.2761L8.00164 19.9803C6.16492 16.3386 7.59036 11.878 11.1908 10.0147C14.1636 8.47622 17.7205 9.18493 19.9052 11.5763ZM30.6586 19.076C31.9675 16.2437 30.826 12.86 28.0739 11.4357L27.8546 11.328C25.2816 10.1319 22.2178 11.028 20.6736 13.4403L19.9998 14.493L19.326 13.4403C17.7381 10.9591 14.5421 10.0819 11.9262 11.4357C9.10713 12.8946 7.9873 16.3988 9.39889 19.2034L9.53276 19.4235L9.60385 19.5334L9.77318 19.7809L9.96842 20.0494L10.187 20.3353L10.5688 20.8088L10.8517 21.1449L11.3265 21.6887L11.8593 22.277L12.2439 22.6907L12.8709 23.3501L13.3187 23.8117L14.0391 24.5415L14.8162 25.3143L15.6495 26.1296L16.85 27.2848L18.1514 28.517L19.8701 30.1193L19.9238 30.1741L19.9458 30.1947L19.968 30.2036L19.9845 30.2042L20.0284 30.198C20.0515 30.1927 20.072 30.1808 20.1386 30.1114L21.8441 28.5212L23.1453 27.2893L24.3457 26.1342L25.1792 25.3189L25.9557 24.5468L26.6764 23.8168L27.1236 23.3558L27.75 22.6973L28.1337 22.2846L28.6639 21.6996L29.139 21.1558L29.4216 20.8204L29.7402 20.4277L30.0201 20.0648L30.2137 19.7994L30.3852 19.5499L30.5637 19.2721L30.6586 19.076Z" fill=""/>
</g><g clip-path="url(#clip1_21_16940)" x="19" y="3" width="20" height="20">
    <circle cx="29" cy="13" r="10" fill="#ff6762"/>
</g><defs>
    <clipPath id="clip0_21_16940">
        <rect width="33.7913" height="28" fill="" transform="translate(4.20868 4)"/>
    </clipPath>
    <clipPath id="clip1_21_16940">
        <rect width="20" height="20" fill="#ff6762" transform="translate(19 3)"/>
    </clipPath>
</defs></svg>
<svg id="i-heart-hover" viewBox="0 0 40 40"><path fill-rule="evenodd" clip-rule="evenodd" d="M19.7053 11.3758L19.8001 11.4825L19.8948 11.3757C22.0797 8.98441 25.6366 8.27573 28.6094 9.81423C32.1246 11.6335 33.5777 15.9405 31.9053 19.5591L31.7671 19.8362L31.609 20.0949L31.5158 20.2377L31.3203 20.5223L31.1007 20.8233L30.7957 21.219L30.4552 21.639L30.1535 21.9969L29.6594 22.5625L29.1126 23.166L28.7157 23.5928L28.0777 24.2636L27.6201 24.7353L26.8892 25.4756L26.1028 26.2575L25.26 27.082L24.0502 28.2462L22.7398 29.4868L21.0785 31.0317C20.8386 31.2978 20.5269 31.4792 20.1409 31.5661L19.9945 31.5888L19.8413 31.5995L19.6757 31.5952L19.5528 31.5821C19.2398 31.5375 18.944 31.4069 18.6552 31.163L18.5688 31.0794L16.8559 29.4826L15.5454 28.2417L14.3355 27.0774L13.4928 26.2529L12.7058 25.4704L11.9753 24.7303L11.5171 24.2579L10.8784 23.5862L10.4807 23.1583L9.93115 22.5516L9.43736 21.986L9.1343 21.6259L8.7293 21.1234L8.48666 20.8062L8.26682 20.5037L8.07338 20.2212L7.97912 20.0756L7.80175 19.7798C5.96503 16.1381 7.39047 11.6775 10.9909 9.81423C13.9637 8.27572 17.5206 8.98443 19.7053 11.3758Z" fill=""/></svg>
<svg id="i-heart" viewBox="0 0 40 40"><path fill-rule="evenodd" clip-rule="evenodd" d="M19.9052 11.5763L20 11.683L20.0946 11.5762C22.2795 9.18491 25.8365 8.47623 28.8093 10.0147C32.3245 11.834 33.7776 16.141 32.1052 19.7596L31.967 20.0367L31.8088 20.2954L31.7157 20.4382L31.5202 20.7228L31.3006 21.0238L30.9956 21.4195L30.655 21.8395L30.3534 22.1974L29.8593 22.763L29.3125 23.3665L28.9156 23.7933L28.2775 24.4641L27.8199 24.9358L27.0891 25.6761L26.3027 26.458L25.4599 27.2825L24.2501 28.4467L22.9397 29.6873L21.2784 31.2322C21.0385 31.4983 20.7268 31.6797 20.3408 31.7666L20.1944 31.7893L20.0412 31.8L19.8756 31.7957L19.7527 31.7826C19.4397 31.738 19.1439 31.6074 18.8551 31.3635L18.7687 31.2799L17.0558 29.6831L15.7453 28.4422L14.5354 27.2779L13.6927 26.4534L12.9057 25.6709L12.1752 24.9308L11.717 24.4584L11.0783 23.7867L10.6805 23.3588L10.131 22.7521L9.63725 22.1865L9.33419 21.8264L8.92919 21.3239L8.68655 21.0067L8.46671 20.7042L8.27327 20.4217L8.17901 20.2761L8.00164 19.9803C6.16492 16.3386 7.59036 11.878 11.1908 10.0147C14.1636 8.47622 17.7205 9.18493 19.9052 11.5763ZM30.6586 19.076C31.9675 16.2437 30.826 12.86 28.0739 11.4357L27.8546 11.328C25.2816 10.1319 22.2178 11.028 20.6736 13.4403L19.9998 14.493L19.326 13.4403C17.7381 10.9591 14.5421 10.0819 11.9262 11.4357C9.10713 12.8946 7.9873 16.3988 9.39889 19.2034L9.53276 19.4235L9.60385 19.5334L9.77318 19.7809L9.96842 20.0494L10.187 20.3353L10.5688 20.8088L10.8517 21.1449L11.3265 21.6887L11.8593 22.277L12.2439 22.6907L12.8709 23.3501L13.3187 23.8117L14.0391 24.5415L14.8162 25.3143L15.6495 26.1296L16.85 27.2848L18.1514 28.517L19.8701 30.1193L19.9238 30.1741L19.9458 30.1947L19.968 30.2036L19.9845 30.2042L20.0284 30.198C20.0515 30.1927 20.072 30.1808 20.1386 30.1114L21.8441 28.5212L23.1453 27.2893L24.3457 26.1342L25.1792 25.3189L25.9557 24.5468L26.6764 23.8168L27.1236 23.3558L27.75 22.6973L28.1337 22.2846L28.6639 21.6996L29.139 21.1558L29.4216 20.8204L29.7402 20.4277L30.0201 20.0648L30.2137 19.7994L30.3852 19.5499L30.5637 19.2721L30.6586 19.076Z" fill=""/></svg>
<svg id="i-in-stock" viewBox="0 0 26 26"><path fill-rule="evenodd" clip-rule="evenodd" d="M3.65625 14.1781C2.72919 13.9896 2.03125 13.1706 2.03125 12.1875V9.25031C2.03125 8.99193 2.08081 8.736 2.17669 8.49631C2.40256 7.93 2.91281 6.656 3.27681 5.74601C3.58556 4.97413 4.33225 4.46875 5.16263 4.46875H8.53125V3.25C8.53125 2.57725 9.07725 2.03125 9.75 2.03125C11.3068 2.03125 14.6932 2.03125 16.25 2.03125C16.9228 2.03125 17.4688 2.57725 17.4688 3.25V4.46875H20.8374C21.6678 4.46875 22.4144 4.97413 22.7232 5.74601C23.0872 6.656 23.5974 7.93 23.8233 8.49631C23.9192 8.736 23.9688 8.99193 23.9688 9.25031C23.9688 10.0652 23.9688 12.1875 23.9688 12.1875C23.9688 13.1706 23.2708 13.9896 22.3438 14.1781V21.9375C22.3438 23.0596 21.4346 23.9688 20.3125 23.9688C16.913 23.9688 9.087 23.9688 5.6875 23.9688C4.56544 23.9688 3.65625 23.0596 3.65625 21.9375V14.1781ZM21.5312 14.2188H19.9062C19.2416 14.2188 18.6518 13.8994 18.2812 13.4062C17.9108 13.8994 17.3209 14.2188 16.6562 14.2188C16.0111 14.2188 15.2701 14.2188 14.625 14.2188C13.9604 14.2188 13.3705 13.8994 13 13.4062C12.6295 13.8994 12.0396 14.2188 11.375 14.2188C10.7299 14.2188 9.98887 14.2188 9.34375 14.2188C8.67912 14.2188 8.08925 13.8994 7.71875 13.4062C7.34825 13.8994 6.75838 14.2188 6.09375 14.2188H4.46875V21.9375C4.46875 22.6103 5.01475 23.1562 5.6875 23.1562H14.2188V17.0625C14.2188 16.7391 14.3471 16.4296 14.5754 16.2004C14.8046 15.9721 15.1141 15.8438 15.4375 15.8438C16.3394 15.8438 17.7856 15.8438 18.6875 15.8438C19.0109 15.8438 19.3204 15.9721 19.5496 16.2004C19.7779 16.4296 19.9062 16.7391 19.9062 17.0625V23.1562H20.3125C20.9853 23.1562 21.5312 22.6103 21.5312 21.9375V14.2188ZM19.0938 23.1562V20.7188H17.875C17.6508 20.7188 17.4688 20.5368 17.4688 20.3125C17.4688 20.0882 17.6508 19.9062 17.875 19.9062H19.0938V17.0625C19.0938 16.9544 19.0507 16.8512 18.9751 16.7749C18.8987 16.6993 18.7956 16.6562 18.6875 16.6562C17.7856 16.6562 16.3394 16.6562 15.4375 16.6562C15.3294 16.6562 15.2262 16.6993 15.1499 16.7749C15.0743 16.8512 15.0312 16.9544 15.0312 17.0625V23.1562H19.0938ZM12.5938 17.0625C12.5938 16.7391 12.4654 16.4296 12.2371 16.2004C12.0079 15.9721 11.6984 15.8438 11.375 15.8438C10.2936 15.8438 8.39394 15.8438 7.3125 15.8438C6.98912 15.8438 6.67956 15.9721 6.45044 16.2004C6.22212 16.4296 6.09375 16.7391 6.09375 17.0625C6.09375 17.7702 6.09375 18.7923 6.09375 19.5C6.09375 19.8234 6.22212 20.1329 6.45044 20.3621C6.67956 20.5904 6.98912 20.7188 7.3125 20.7188C8.39394 20.7188 10.2936 20.7188 11.375 20.7188C11.6984 20.7188 12.0079 20.5904 12.2371 20.3621C12.4654 20.1329 12.5938 19.8234 12.5938 19.5V17.0625ZM11.7812 17.0625V19.5C11.7812 19.6081 11.7382 19.7113 11.6626 19.7876C11.5863 19.8632 11.4831 19.9062 11.375 19.9062C10.2936 19.9062 8.39394 19.9062 7.3125 19.9062C7.20444 19.9062 7.10125 19.8632 7.02487 19.7876C6.94931 19.7113 6.90625 19.6081 6.90625 19.5C6.90625 18.7923 6.90625 17.7702 6.90625 17.0625C6.90625 16.9544 6.94931 16.8512 7.02487 16.7749C7.10125 16.6993 7.20444 16.6562 7.3125 16.6562C8.39394 16.6562 10.2936 16.6562 11.375 16.6562C11.4831 16.6562 11.5863 16.6993 11.6626 16.7749C11.7382 16.8512 11.7812 16.9544 11.7812 17.0625ZM7.3125 12.1875V9.74918C7.3125 9.52493 7.49369 9.34375 7.71794 9.34375H7.71956C7.94381 9.34375 8.125 9.52493 8.125 9.74918V12.1875C8.125 12.8603 8.671 13.4062 9.34375 13.4062C9.98887 13.4062 10.7299 13.4062 11.375 13.4062C12.0478 13.4062 12.5938 12.8603 12.5938 12.1875C12.5938 12.1875 12.5938 10.5349 12.5938 9.74918C12.5938 9.52493 12.7749 9.34375 12.9992 9.34375H13.0008C13.2251 9.34375 13.4062 9.52493 13.4062 9.74918V12.1875C13.4062 12.8603 13.9522 13.4062 14.625 13.4062C15.2701 13.4062 16.0111 13.4062 16.6562 13.4062C17.329 13.4062 17.875 12.8603 17.875 12.1875V9.74918C17.875 9.52493 18.0562 9.34375 18.2804 9.34375H18.2821C18.5063 9.34375 18.6875 9.52493 18.6875 9.74918V12.1875C18.6875 12.8603 19.2335 13.4062 19.9062 13.4062C20.5514 13.4062 21.2924 13.4062 21.9375 13.4062C22.6103 13.4062 23.1562 12.8603 23.1562 12.1875C23.1562 12.1875 23.1562 10.0652 23.1562 9.25031C23.1562 9.09512 23.127 8.94157 23.0693 8.79775C22.8426 8.23225 22.3332 6.95824 21.9692 6.04743C21.7839 5.58431 21.3354 5.28125 20.8374 5.28125H17.4688V6.5C17.4688 7.17275 16.9228 7.71875 16.25 7.71875C14.6932 7.71875 11.3068 7.71875 9.75 7.71875C9.07725 7.71875 8.53125 7.17275 8.53125 6.5V5.28125H5.16263C4.66456 5.28125 4.21606 5.58431 4.03081 6.04743C3.66681 6.95824 3.15737 8.23225 2.93069 8.79775C2.873 8.94157 2.84375 9.09512 2.84375 9.25031C2.84375 10.0652 2.84375 12.1875 2.84375 12.1875C2.84375 12.8603 3.38975 13.4062 4.0625 13.4062C4.70762 13.4062 5.44863 13.4062 6.09375 13.4062C6.7665 13.4062 7.3125 12.8603 7.3125 12.1875ZM16.6562 3.25V6.5C16.6562 6.72425 16.4742 6.90625 16.25 6.90625C14.6932 6.90625 11.3068 6.90625 9.75 6.90625C9.52575 6.90625 9.34375 6.72425 9.34375 6.5C9.34375 5.59812 9.34375 4.15188 9.34375 3.25C9.34375 3.02575 9.52575 2.84375 9.75 2.84375C11.3068 2.84375 14.6932 2.84375 16.25 2.84375C16.4742 2.84375 16.6562 3.02575 16.6562 3.25ZM10.5625 6.09375H13.8125C14.0367 6.09375 14.2188 5.91175 14.2188 5.6875C14.2188 5.46325 14.0367 5.28125 13.8125 5.28125H10.5625C10.3383 5.28125 10.1562 5.46325 10.1562 5.6875C10.1562 5.91175 10.3383 6.09375 10.5625 6.09375ZM10.5625 4.46875H15.4375C15.6617 4.46875 15.8438 4.28675 15.8438 4.0625C15.8438 3.83825 15.6617 3.65625 15.4375 3.65625H10.5625C10.3383 3.65625 10.1562 3.83825 10.1562 4.0625C10.1562 4.28675 10.3383 4.46875 10.5625 4.46875Z" fill="black"/></svg>
<svg id="i-info" viewBox="0 0 24 24"><circle cx="12" cy="12" r="9.5" fill="#1D1D23"/><path d="M11.9502 7C12.141 7 12.3028 7.06887 12.4355 7.2066C12.5765 7.33572 12.6471 7.49498 12.6471 7.68436C12.6471 7.87374 12.5765 8.0373 12.4355 8.17504C12.3028 8.30416 12.141 8.36872 11.9502 8.36872C11.7511 8.36872 11.5811 8.30416 11.44 8.17504C11.3073 8.0373 11.241 7.87374 11.241 7.68436C11.241 7.48637 11.3073 7.32281 11.44 7.19369C11.5728 7.06456 11.7428 7 11.9502 7ZM13.4434 16H10.5566C10.4736 15.8106 10.4819 15.6341 10.5814 15.4706L11.44 15.3027C11.4815 14.8207 11.5023 14.2525 11.5023 13.5983V12.3329C11.5023 11.8336 11.4815 11.2525 11.44 10.5897L10.6561 10.1377C10.5732 10.0172 10.5732 9.88379 10.6561 9.73745L12.5973 9.53085L12.6222 9.77618L12.5351 10.4864C12.5185 10.9168 12.5102 11.5366 12.5102 12.3458V13.637C12.5102 14.1793 12.5351 14.7346 12.5848 15.3027L13.4186 15.4706C13.5181 15.6341 13.5264 15.8106 13.4434 16Z" fill="#1D1D23"/></svg>
<svg id="i-instagram" viewBox="0 0 48 48"><g clip-path="url(#mask0_21_17463)" x="14" y="13" width="21" height="21">
		<path fill-rule="evenodd" clip-rule="evenodd" d="M28 13C31.866 13 35 16.134 35 20V27C35 30.866 31.866 34 28 34H21C17.134 34 14 30.866 14 27V20C14 16.134 17.134 13 21 13H28ZM28 15H21C18.2386 15 16 17.2386 16 20V27C16 29.7614 18.2386 32 21 32H28C30.7614 32 33 29.7614 33 27V20C33 17.2386 30.7614 15 28 15ZM29 23.5C29 21.0147 26.9853 19 24.5 19C22.0147 19 20 21.0147 20 23.5C20 25.9853 22.0147 28 24.5 28C26.9853 28 29 25.9853 29 23.5ZM24.5 21C23.1193 21 22 22.1193 22 23.5C22 24.8807 23.1193 26 24.5 26C25.8807 26 27 24.8807 27 23.5C27 22.1193 25.8807 21 24.5 21ZM31 18.5C31 17.6716 30.3284 17 29.5 17C28.6716 17 28 17.6716 28 18.5C28 19.3284 28.6716 20 29.5 20C30.3284 20 31 19.3284 31 18.5Z" fill=""/>
	</g><clipPath id="mask0_21_17463">
		<rect width="48" height="48" fill=""/>
	</clipPath></svg>
<svg id="i-item-delete" viewBox="0 0 16 16"><path d="M10.487 5.67269L9.93219 12.9227C9.906 13.2647 9.60775 13.5245 9.26131 13.4982C8.91712 13.4718 8.65947 13.1715 8.68581 12.8273L9.24066 5.57731C9.267 5.23312 9.56756 4.97559 9.91153 5.00181C10.2557 5.02816 10.5134 5.32853 10.487 5.67269ZM6.75931 5.57731C6.73297 5.23316 6.43247 4.97569 6.08844 5.00181C5.74425 5.02816 5.48659 5.32853 5.51294 5.67269L6.06778 12.9227C6.09403 13.2657 6.39325 13.5245 6.73866 13.4982C7.08284 13.4718 7.3405 13.1715 7.31416 12.8273L6.75931 5.57731ZM14.75 3.125C14.75 3.47019 14.4702 3.75 14.125 3.75H13.454L12.5607 15.4227C12.5357 15.7484 12.2642 16 11.9375 16H4.0625C3.73581 16 3.46425 15.7484 3.43931 15.4227L2.546 3.75H1.875C1.52981 3.75 1.25 3.47019 1.25 3.125C1.25 2.77981 1.52981 2.5 1.875 2.5H4.9375V1.84375C4.9375 0.827094 5.76459 0 6.78125 0H9.21875C10.2354 0 11.0625 0.827094 11.0625 1.84375V2.5H14.125C14.4702 2.5 14.75 2.77981 14.75 3.125ZM6.1875 2.5H9.8125V1.84375C9.8125 1.51634 9.54616 1.25 9.21875 1.25H6.78125C6.45384 1.25 6.1875 1.51634 6.1875 1.84375V2.5ZM12.2003 3.75C11.9362 3.75 3.97381 3.75 3.79966 3.75L4.6415 14.75H11.3585L12.2003 3.75Z" fill=""/></svg>
<svg id="i-like" viewBox="0 0 60 60"><g filter="url(#filter0_d_22_13827)">
<circle cx="30" cy="28" r="22" fill="white"/>
</g><path d="M30.5006 22.6477L30.4377 22.5769C28.9868 20.9897 26.6246 20.5193 24.6504 21.5404C22.2593 22.7772 21.3127 25.7378 22.5324 28.1549L22.6502 28.3512L22.7128 28.4479L22.8413 28.6354L22.9873 28.8361L23.1484 29.0467L23.4174 29.3802L23.6187 29.6192L23.9466 29.9946L24.3115 30.3973L24.5757 30.6813L24.9998 31.1272L25.3041 31.4407L25.7893 31.9319L26.3119 32.4513L26.8715 32.9985L27.675 33.7713L28.5454 34.5949L29.6829 35.6548L29.7403 35.7103C29.9321 35.8722 30.1285 35.9589 30.3364 35.9885L30.418 35.9971L30.528 36L30.6297 35.9929L30.727 35.9778C30.9833 35.9202 31.1903 35.7997 31.3496 35.6231L32.4529 34.5977L33.3231 33.7743L34.1266 33.0016L34.6863 32.4543L35.2085 31.9354L35.6939 31.444L35.9978 31.131L36.4215 30.6857L36.6851 30.4024L37.0483 30.0018L37.3764 29.6265L37.5767 29.3889L37.8028 29.1102L38.0054 28.8475L38.1513 28.6477L38.2811 28.4588L38.3429 28.364L38.448 28.1923L38.5397 28.0084C39.6504 25.6066 38.6854 22.7479 36.3509 21.5404C34.3767 20.5193 32.0145 20.9897 30.5635 22.5768L30.5006 22.6477Z" stroke="#1D1D23" stroke-width="2"/><defs>
<filter id="filter0_d_22_13827" x="0" y="0" width="60" height="60" filterUnits="userSpaceOnUse" color-interpolation-filters="sRGB">
<feFlood flood-opacity="0" result="BackgroundImageFix"/>
<feColorMatrix in="SourceAlpha" type="matrix" values="0 0 0 0 0 0 0 0 0 0 0 0 0 0 0 0 0 0 127 0" result="hardAlpha"/>
<feMorphology radius="4" operator="erode" in="SourceAlpha" result="effect1_dropShadow_22_13827"/>
<feOffset dy="2"/>
<feGaussianBlur stdDeviation="6"/>
<feColorMatrix type="matrix" values="0 0 0 0 0 0 0 0 0 0 0 0 0 0 0 0 0 0 0.2 0"/>
<feBlend mode="normal" in2="BackgroundImageFix" result="effect1_dropShadow_22_13827"/>
<feBlend mode="normal" in="SourceGraphic" in2="effect1_dropShadow_22_13827" result="shape"/>
</filter>
</defs></svg>
<svg id="i-logout" viewBox="0 0 167.000000 167.000000"><g transform="translate(0.000000,167.000000) scale(0.100000,-0.100000)" fill="#000000" stroke="none">
<path d="M637 1403 c-4 -3 -7 -127 -7 -275 l0 -268 -137 0 -138 0 103 103 c76
76 101 108 96 120 -3 9 -14 17 -23 17 -21 0 -271 -250 -271 -272 0 -19 259
-270 274 -265 5 2 14 11 20 21 9 14 -5 32 -91 116 l-102 100 135 0 134 0 0
-264 c0 -211 3 -266 14 -275 9 -8 121 -10 392 -9 l379 3 0 575 0 575 -386 3
c-212 1 -388 -1 -392 -5z m723 -568 l0 -525 -335 0 -335 0 0 245 0 245 213 0
c116 0 218 4 225 9 8 5 12 17 10 27 -3 18 -17 19 -226 22 l-222 2 0 250 0 250
335 0 335 0 0 -525z"/>
</g></svg>
<svg id="i-menu" viewBox="0 0 40 40"><mask id="mask0_21_17468" style="mask-type:luminance" maskUnits="userSpaceOnUse" x="8" y="13" width="24" height="14">
<path fill-rule="evenodd" clip-rule="evenodd" d="M8 14C8 13.4477 8.44772 13 9 13H31C31.5523 13 32 13.4477 32 14C32 14.5523 31.5523 15 31 15H9C8.44772 15 8 14.5523 8 14ZM8 20C8 19.4477 8.44772 19 9 19H31C31.5523 19 32 19.4477 32 20C32 20.5523 31.5523 21 31 21H9C8.44772 21 8 20.5523 8 20ZM9 25C8.44772 25 8 25.4477 8 26C8 26.5523 8.44772 27 9 27H31C31.5523 27 32 26.5523 32 26C32 25.4477 31.5523 25 31 25H9Z" fill="white"/>
</mask><g mask="url(#mask0_21_17468)">
<rect width="40" height="40" fill="#1D1D23"/>
</g></svg>
<svg id="i-messenger" viewBox="0 0 40 40"><g clip-path="url(#mask0_67_18402)" x="10" y="10" width="20" height="20">
		<path fill-rule="evenodd" clip-rule="evenodd" d="M30 19.2593C30 14.1454 25.5231 10 20 10C14.4771 10 10 14.1454 10 19.2593C10 22.155 11.4356 24.7404 13.6835 26.438V30L17.0397 28.1066C17.9753 28.374 18.9697 28.5184 20 28.5184C25.5231 28.5184 30 24.3727 30 19.2593ZM21.5206 19.3488L26.3741 16.7233L21.0115 22.3896L18.4471 19.7172L13.5393 22.3896L18.9321 16.7233L21.5206 19.3488Z" fill=""/>
	</g><clipPath id="#mask0_67_18402">
		<rect width="40" height="40" transform="matrix(-1 0 0 1 40 0)" fill=""/>
	</clipPath></svg>
<svg id="i-messenger2" viewBox="0 0 24 24"><g clip-path="url(#clip0_455_5299)">
<path d="M5.65576 24C5.31592 24 4.97864 23.9051 4.68256 23.7184C4.17023 23.3948 3.85272 22.8402 3.83331 22.2342L3.77417 20.294C1.34106 18.1122 0 15.0488 0 11.6689C0 8.44301 1.23651 5.47639 3.48138 3.31546C5.70282 1.17742 8.72809 0 12 0C15.2719 0 18.2972 1.17742 20.5186 3.31546C22.7635 5.47639 24 8.44301 24 11.6689C24 14.8947 22.7635 17.8613 20.5186 20.0222C18.2972 22.1603 15.2719 23.3379 12 23.3379C10.8204 23.3379 9.66614 23.1853 8.56897 22.8847L6.39093 23.8456C6.15491 23.9491 5.90479 24 5.65576 24ZM12 1.87509C6.22778 1.87509 1.875 6.08542 1.875 11.6689C1.875 14.5129 2.99799 17.0838 5.03705 18.908C5.41315 19.2467 5.62903 19.7056 5.64716 20.2022L5.64734 20.2081L5.7052 22.0987L7.82867 21.1617C8.211 20.9935 8.64221 20.961 9.04376 21.0705C9.98749 21.3309 10.9812 21.4626 12 21.4626C17.7722 21.4626 22.125 17.2523 22.125 11.6689C22.125 6.08542 17.7722 1.87509 12 1.87509ZM6.10016 15.4989L9.60388 12.7975C9.84064 12.6198 10.1666 12.6175 10.4055 12.7953L12.9981 14.8106C13.7752 15.3905 14.8874 15.186 15.4054 14.3684L18.6641 9.20056C18.9789 8.70725 18.3671 8.14966 17.9004 8.50289L14.3983 11.1568C14.1616 11.3346 13.8356 11.3368 13.5967 11.159L11.0041 9.19067C10.227 8.61075 9.11481 8.8151 8.5968 9.6327L5.33643 14.8011C5.02167 15.2944 5.63342 15.8522 6.10016 15.4989Z" fill=""/>
</g><defs>
<clipPath id="clip0_455_5299">
<rect width="24" height="24" fill=""/>
</clipPath>
</defs></svg>
<svg id="i-minus" viewBox="0 0 8 2"><rect width="8" height="2" rx="1" fill="#1D1D23"/></svg>
<svg id="i-navigator" viewBox="0 0 40 40"><mask id="mask0_21_17461" style="mask-type:luminance" maskUnits="userSpaceOnUse" x="13" y="13" width="15" height="15">
<path fill-rule="evenodd" clip-rule="evenodd" d="M26.9554 13.0532C27.2396 12.9428 27.5553 13.0059 27.7763 13.2266C27.9815 13.4474 28.0605 13.7627 27.95 14.0465L22.6141 27.5112C22.5036 27.8108 22.2194 28 21.9037 28H21.8879C21.5722 27.9842 21.288 27.795 21.1775 27.4955L19.1094 21.8983L13.5052 19.8329C13.2052 19.7225 13 19.4387 13 19.1234C13 18.808 13.1894 18.5085 13.4894 18.3981L26.9554 13.0532ZM20.4197 21.0311L21.9195 25.0832L25.8661 15.1344L15.9047 19.0761L19.9619 20.5739C20.1829 20.6527 20.3408 20.8262 20.4197 21.0311Z" fill="white"/>
</mask><g mask="url(#mask0_21_17461)">
<rect width="40" height="40" fill="black"/>
</g></svg>
<svg id="i-np" viewBox="0 0 20 20"><path d="M10.1293 0H9.87079L9.63216 0.0994279L5.9235 3.76832C5.76441 3.97712 5.81413 4.12626 6.08258 4.12626H7.72314C7.9916 4.12626 8.2004 4.345 8.2004 4.60351V7.32784C8.2004 7.58635 8.4092 7.79515 8.67765 7.79515H11.3721C11.6903 7.79515 11.8991 7.58635 11.8991 7.32784V4.60351C11.8991 4.345 12.1179 4.12626 12.3764 4.12626H13.9175C14.176 4.12626 14.2357 3.97712 14.0766 3.76832L10.3679 0.0994279L10.1293 0Z" fill="#ED1C24"/><path d="M16.2441 5.96562C16.1646 5.85625 16.085 5.81648 16.0254 5.83636C15.9657 5.85625 15.9259 5.93579 15.9259 6.06505V13.552C15.9259 13.6812 15.9657 13.7807 16.0254 13.8105C16.085 13.8403 16.1646 13.8105 16.2441 13.7111L19.8434 10.1515C20.0522 9.99245 20.0522 9.67428 19.8434 9.46548L16.2441 5.96562Z" fill="#ED1C24"/><path d="M4.07406 5.7569C4.13371 5.79668 4.17349 5.88616 4.17349 6.01542V13.6515C4.17349 13.7907 4.13371 13.8702 4.07406 13.8901C4.00446 13.9199 3.91497 13.8901 3.8056 13.8106L0.156599 10.1516C-0.0521996 9.99253 -0.0521996 9.67436 0.156599 9.46557L3.8056 5.85633C3.91497 5.7569 4.00446 5.72708 4.07406 5.7569Z" fill="#ED1C24"/><path d="M11.3721 11.7722H8.67756C8.40911 11.7722 8.20031 11.981 8.20031 12.2495V15.1229C8.20031 15.4411 7.99151 15.6499 7.72306 15.6499H6.18192C5.92341 15.6499 5.81404 15.7991 6.03278 15.9581L9.63207 19.5674C9.7315 19.6767 9.8707 19.7265 9.99996 19.7265C10.1292 19.7265 10.2585 19.6767 10.3678 19.5674L13.9671 15.9581C14.1759 15.7991 14.0765 15.6499 13.808 15.6499H12.3763C12.1178 15.6499 11.909 15.4411 11.909 15.1229V12.2495C11.909 11.981 11.6902 11.7722 11.3721 11.7722Z" fill="#ED1C24"/></svg>
<svg id="i-open-fancybox" viewBox="0 0 40 40"><g x="14" y="14" width="12" height="12">
<path fill-rule="evenodd" clip-rule="evenodd" d="M18.4 14C18.7314 14 19 14.2686 19 14.6V15.4C19 15.7314 18.7314 16 18.4 16H16V18.4C16 18.7314 15.7314 19 15.4 19H14.6C14.2686 19 14 18.7314 14 18.4V14.6C14 14.2686 14.2686 14 14.6 14H18.4ZM19 25.4C19 25.7314 18.7314 26 18.4 26H14.6C14.2686 26 14 25.7314 14 25.4V21.6C14 21.2686 14.2686 21 14.6 21H15.4C15.7314 21 16 21.2686 16 21.6V24H18.4C18.7314 24 19 24.2686 19 24.6V25.4ZM21 25.4C21 25.7314 21.2686 26 21.6 26H25.4C25.7314 26 26 25.7314 26 25.4V21.6C26 21.2686 25.7314 21 25.4 21H24.6C24.2686 21 24 21.2686 24 21.6V24H21.6C21.2686 24 21 24.2686 21 24.6V25.4ZM21 14.6C21 14.2686 21.2686 14 21.6 14H25.4C25.7314 14 26 14.2686 26 14.6V18.4C26 18.7314 25.7314 19 25.4 19H24.6C24.2686 19 24 18.7314 24 18.4V16H21.6C21.2686 16 21 15.7314 21 15.4V14.6Z" fill=""/>
</g></svg>
<svg id="i-person" viewBox="0 0 167.000000 167.000000"><g transform="translate(0.000000,167.000000) scale(0.100000,-0.100000)" fill="#000000" stroke="none">
<path d="M755 1411 c-89 -23 -175 -95 -217 -179 -19 -39 -23 -63 -23 -142 0
-111 21 -167 89 -235 89 -89 232 -119 350 -75 76 29 147 94 183 169 24 48 28
68 28 141 0 73 -4 93 -28 141 -32 67 -100 132 -165 162 -51 22 -165 32 -217
18z m182 -87 c47 -17 117 -87 139 -139 20 -48 18 -151 -5 -200 -81 -179 -325
-203 -441 -44 -105 145 -29 347 148 395 52 14 95 11 159 -12z"/>
<path d="M540 677 c-159 -37 -272 -164 -287 -321 -5 -60 -4 -66 20 -90 l26
-26 540 0 539 0 27 32 c24 28 26 37 21 81 -19 137 -111 260 -231 307 -57 23
-74 24 -330 27 -191 1 -286 -1 -325 -10z m610 -83 c97 -29 200 -157 200 -251
l0 -23 -513 0 -514 0 7 43 c19 112 88 194 199 233 57 21 550 19 621 -2z"/>
</g></svg>
<svg id="i-phone" viewBox="0 0 24 24"><g clip-path="url(#mask0_22_13800)" x="6" y="6" width="12" height="12">
		<path d="M9.70093 7.11463C9.95837 7.37189 10.2167 7.62842 10.4729 7.88685C10.9249 8.34266 10.9257 8.87431 10.4756 9.3266C10.1527 9.65107 9.8317 9.97744 9.50251 10.2953C9.41552 10.3792 9.40864 10.4483 9.45272 10.554C9.66886 11.0731 9.98136 11.5327 10.333 11.965C11.0397 12.8337 11.8389 13.6047 12.7921 14.203C12.9962 14.3311 13.222 14.4244 13.4347 14.5398C13.544 14.5991 13.619 14.5802 13.7066 14.4897C14.0286 14.1569 14.3584 13.8314 14.6874 13.5053C15.1184 13.0783 15.6593 13.0775 16.0922 13.5062C16.6211 14.0301 17.1477 14.5564 17.6721 15.0847C18.112 15.5278 18.1085 16.0693 17.6661 16.5156C17.3673 16.8172 17.0514 17.1034 16.7688 17.4194C16.3574 17.8793 15.8414 18.0282 15.2511 17.9957C14.3931 17.9486 13.6016 17.6639 12.8394 17.2935C11.1451 16.4702 9.69668 15.3291 8.48505 13.887C7.58915 12.8208 6.84876 11.6604 6.36185 10.3498C6.12638 9.71593 5.95797 9.0667 6.00923 8.37999C6.04086 7.95625 6.20004 7.59576 6.51239 7.29853C6.84773 6.97919 7.16726 6.6433 7.49762 6.31854C7.9302 5.89319 8.47129 5.89407 8.90489 6.31971C9.17258 6.58239 9.43573 6.84946 9.70093 7.11463Z" fill=""/>
	</g><clipPath id="mask0_22_13800">
		<rect width="24" height="24" transform="matrix(-1 0 0 1 24 0)" fill=""/>
	</clipPath></svg>
<svg id="i-pin" viewBox="0 0 24 24"><path fill-rule="evenodd" clip-rule="evenodd" d="M8.6107 6.57218C10.8383 4.4128 14.4666 4.47784 16.6008 6.76731C18.6017 8.90067 18.4149 12.2438 16.3074 14.2861L13.5328 17.5902C12.9726 18.1366 12.0522 18.1366 11.4919 17.5902L8.6107 14.1821C6.4631 12.0877 6.4631 8.67953 8.6107 6.57218ZM9.9446 10.3966C9.9446 11.7755 11.0918 12.8812 12.4924 12.8812C13.9063 12.8812 15.0401 11.7755 15.0401 10.3966C15.0401 9.01775 13.893 7.91204 12.4924 7.91204C11.0784 7.91204 9.9446 9.01775 9.9446 10.3966Z" fill=""/></svg>
<svg id="i-pinterest" viewBox="0 0 48 48"><path fill-rule="evenodd" clip-rule="evenodd" d="M30.9241 19.738C30.5391 16.903 28.0221 15 24.66 15C24.332 15 23.997 15.018 23.667 15.056C20.1109 15.46 18.0958 18.379 18.0058 20.92C17.9238 23.201 18.7098 24.494 20.4069 24.877L20.4949 24.896L20.5399 24.816C21.0949 23.82 20.7879 23.305 20.4909 22.807C20.3419 22.558 20.1879 22.3 20.1349 21.969C19.9379 20.73 20.2829 19.507 21.1059 18.524C22.0169 17.436 23.4319 16.761 24.797 16.761C25.873 16.761 26.833 17.164 27.5721 17.927C28.7201 19.11 28.6741 21.677 27.9741 23.377C27.361 24.863 26.325 25.608 25.17 25.378C24.754 25.293 24.476 25.122 24.321 24.856C23.972 24.253 24.3 23.204 24.618 22.189C25.063 20.769 25.523 19.3 24.249 18.788C23.3999 18.444 22.5929 18.788 22.0909 19.683C21.5329 20.68 21.4869 22.081 21.9799 22.967C21.8369 23.675 21.6559 24.358 21.4649 25.081C20.9279 27.114 20.3729 29.217 20.7299 31.795L20.7589 32L20.9239 31.878C22.4799 30.73 23.0189 28.614 23.4519 26.341C23.5859 26.427 23.709 26.513 23.827 26.598C24.335 26.956 24.773 27.264 25.556 27.326C25.685 27.336 25.812 27.341 25.937 27.341C27.265 27.341 28.4491 26.779 29.3621 25.717C30.6251 24.244 31.2231 21.953 30.9241 19.738Z" fill=""/><g clip-path="url(#mask0_21_17467)" x="18" y="15" width="13" height="17">
		<path fill-rule="evenodd" clip-rule="evenodd" d="M30.9241 19.738C30.5391 16.903 28.0221 15 24.66 15C24.332 15 23.997 15.018 23.667 15.056C20.1109 15.46 18.0958 18.379 18.0058 20.92C17.9238 23.201 18.7098 24.494 20.4069 24.877L20.4949 24.896L20.5399 24.816C21.0949 23.82 20.7879 23.305 20.4909 22.807C20.3419 22.558 20.1879 22.3 20.1349 21.969C19.9379 20.73 20.2829 19.507 21.1059 18.524C22.0169 17.436 23.4319 16.761 24.797 16.761C25.873 16.761 26.833 17.164 27.5721 17.927C28.7201 19.11 28.6741 21.677 27.9741 23.377C27.361 24.863 26.325 25.608 25.17 25.378C24.754 25.293 24.476 25.122 24.321 24.856C23.972 24.253 24.3 23.204 24.618 22.189C25.063 20.769 25.523 19.3 24.249 18.788C23.3999 18.444 22.5929 18.788 22.0909 19.683C21.5329 20.68 21.4869 22.081 21.9799 22.967C21.8369 23.675 21.6559 24.358 21.4649 25.081C20.9279 27.114 20.3729 29.217 20.7299 31.795L20.7589 32L20.9239 31.878C22.4799 30.73 23.0189 28.614 23.4519 26.341C23.5859 26.427 23.709 26.513 23.827 26.598C24.335 26.956 24.773 27.264 25.556 27.326C25.685 27.336 25.812 27.341 25.937 27.341C27.265 27.341 28.4491 26.779 29.3621 25.717C30.6251 24.244 31.2231 21.953 30.9241 19.738Z" fill=""/>
	</g><clipPath id="mask0_21_17467">
		<rect width="48" height="48" fill=""/>
	</clipPath></svg>
<svg id="i-plus" viewBox="0 0 8 8"><path fill-rule="evenodd" clip-rule="evenodd" d="M4 0C3.44772 0 3 0.447708 3 1V3H1C0.447716 3 0 3.44771 0 4C0 4.55229 0.447716 5 1 5H3V7C3 7.55229 3.44772 8 4 8C4.55228 8 5 7.55229 5 7V5H7C7.55228 5 8 4.55229 8 4C8 3.44771 7.55228 3 7 3H5V1C5 0.447708 4.55228 0 4 0Z" fill=""/></svg>
<svg id="i-quote" viewBox="0 0 56 36"><path d="M26.8272 34.3837C29.1728 29.1918 32.1536 23.5102 35.7696 17.3388C39.3857 11.1673 42.904 5.38775 46.3246 0H56C53.5567 5.77959 50.9668 11.951 48.2304 18.5143C45.4939 25.0776 43.2461 30.9061 41.4869 36H27.4136L26.8272 34.3837ZM0 34.3837C2.34555 29.1918 5.27749 23.5102 8.79581 17.3388C12.3141 11.1673 15.7836 5.38775 19.2042 0H29.0262C26.5829 5.77959 23.993 11.951 21.2565 18.5143C18.6178 25.0776 16.37 30.9061 14.5131 36H0.43979L0 34.3837Z" fill="#FF6662"/></svg>
<svg id="i-search" viewBox="0 0 40 40"><path fill-rule="evenodd" clip-rule="evenodd" d="M26.7782 11.2218C22.4824 6.92606 15.5176 6.92606 11.2218 11.2218C6.92606 15.5176 6.92606 22.4824 11.2218 26.7782C15.3274 30.8837 21.8709 31.0655 26.1923 27.3235L30.4551 31.5865L31.5865 30.4551L27.3235 26.1923C31.0655 21.8709 30.8837 15.3274 26.7782 11.2218ZM12.3532 25.6468C8.68227 21.9759 8.68227 16.0241 12.3532 12.3532C16.0241 8.68227 21.9759 8.68227 25.6468 12.3532C29.3177 16.0241 29.3177 21.9759 25.6468 25.6468C21.9759 29.3177 16.0241 29.3177 12.3532 25.6468Z" fill=""/></svg>
<svg id="i-share-more" viewBox="0 0 22 6"><circle cx="3" cy="3" r="3" fill=""/><circle cx="11" cy="3" r="3" fill=""/><circle cx="19" cy="3" r="3" fill=""/></svg>
<svg id="i-spinner" viewBox="0 0 48 48"><g fill="none">
        <path id="track" fill="#C6CCD2" d="M24,48 C10.745166,48 0,37.254834 0,24 C0,10.745166 10.745166,0 24,0 C37.254834,0 48,10.745166 48,24 C48,37.254834 37.254834,48 24,48 Z M24,44 C35.045695,44 44,35.045695 44,24 C44,12.954305 35.045695,4 24,4 C12.954305,4 4,12.954305 4,24 C4,35.045695 12.954305,44 24,44 Z"/>
        <path id="section" fill="#3F4850" d="M24,0 C37.254834,0 48,10.745166 48,24 L44,24 C44,12.954305 35.045695,4 24,4 L24,0 Z"/>
    </g></svg>
<svg id="i-sub-menu-success" viewBox="0 0 24 24"><rect x="0.5" y="0.5" width="23" height="23" rx="11.5" stroke="white"/><path d="M16.7646 9.13794L11.1379 14.7646L8 11.6267" stroke="white" stroke-width="2" stroke-linecap="round" stroke-linejoin="round"/></svg>
<svg id="i-telegram" viewBox="0 0 40 40"><g clip-path="url(#mask0_15_13804)" x="9" y="12" width="19" height="16">
		<path d="M16.4554 22.5451L16.1411 27.0122C16.5908 27.0122 16.7856 26.817 17.0191 26.5826L19.1274 24.5467L23.4959 27.7794C24.2971 28.2306 24.8616 27.993 25.0777 27.0346L27.9452 13.4571L27.946 13.4563C28.2001 12.2595 27.5177 11.7915 26.7371 12.0851L9.88208 18.6059C8.73176 19.0571 8.74918 19.7051 9.68653 19.9987L13.9957 21.3531L24.005 15.0243C24.476 14.7091 24.9043 14.8835 24.552 15.1987L16.4554 22.5451Z" fill=""/>
	</g><clipPath id="mask0_15_13804">
		<rect width="40" height="40" transform="matrix(-1 0 0 1 40 0)" fill=""/>
	</clipPath></svg>
<svg id="i-telegram2" viewBox="0 0 24 24"><path d="M22.2646 2.42778C21.9799 2.19091 21.6363 2.03567 21.2704 1.97858C20.9044 1.92149 20.5298 1.96469 20.1865 2.10357L2.2656 9.33892C1.88235 9.4966 1.55612 9.76711 1.3302 10.1145C1.10428 10.462 0.989366 10.8699 1.0007 11.2841C1.01204 11.6984 1.1491 12.0994 1.39368 12.434C1.63826 12.7685 1.9788 13.0208 2.3701 13.1573L5.9951 14.418L8.0156 21.0997C8.04306 21.1889 8.0829 21.2739 8.13398 21.352C8.14173 21.364 8.15266 21.373 8.1609 21.3846C8.2199 21.467 8.29121 21.5397 8.37233 21.6004C8.3954 21.618 8.41749 21.6345 8.44215 21.6501C8.53708 21.7131 8.64222 21.7591 8.75288 21.7862L8.76472 21.7872L8.77143 21.7901C8.83796 21.8036 8.90568 21.8105 8.97358 21.8106C8.98011 21.8106 8.98591 21.8074 8.99238 21.8073C9.09484 21.8055 9.19641 21.7879 9.29347 21.755C9.31605 21.7473 9.3354 21.7345 9.35731 21.7252C9.42969 21.6952 9.49826 21.6567 9.5616 21.6106C9.61232 21.5679 9.66306 21.5251 9.71382 21.4824L12.416 18.4991L16.4462 21.6211C16.8011 21.8974 17.2378 22.0475 17.6875 22.0479C18.1586 22.0473 18.6153 21.8847 18.9808 21.5874C19.3464 21.2901 19.5987 20.8762 19.6953 20.4151L22.958 4.39849C23.0319 4.03801 23.0065 3.66421 22.8843 3.31708C22.7622 2.96995 22.548 2.66255 22.2646 2.42778ZM9.3701 14.7364C9.23144 14.8745 9.13666 15.0505 9.09764 15.2422L8.78813 16.7462L8.00407 14.1532L12.0693 12.0362L9.3701 14.7364ZM17.6719 20.0401L12.9092 16.3506C12.7099 16.1966 12.4599 16.1234 12.2091 16.1455C11.9583 16.1675 11.7249 16.2833 11.5556 16.4697L10.6902 17.4249L10.9961 15.9385L18.0791 8.85549C18.2481 8.68665 18.3511 8.46285 18.3694 8.22461C18.3877 7.98638 18.3201 7.74947 18.1788 7.55681C18.0375 7.36414 17.8318 7.22845 17.5991 7.17433C17.3664 7.1202 17.122 7.15121 16.9101 7.26174L6.74485 12.5544L3.02049 11.1915L20.999 3.99905L17.6719 20.0401Z" fill=""/></svg>
<svg id="i-tooltip-plus" viewBox="0 0 16 16"><path fill-rule="evenodd" clip-rule="evenodd" d="M8 0C7.44772 0 7 0.447708 7 1V7H1C0.447716 7 0 7.44771 0 8C0 8.55229 0.447716 9 1 9H7V15C7 15.5523 7.44772 16 8 16C8.55228 16 9 15.5523 9 15V9H15C15.5523 9 16 8.55229 16 8C16 7.44771 15.5523 7 15 7H9V1C9 0.447708 8.55228 0 8 0Z" fill=""/></svg>
<svg id="i-twitter" viewBox="0 0 48 48"><g clip-path="url(#mask0_21_17465)" x="16" y="17" width="17" height="14">
		<path fill-rule="evenodd" clip-rule="evenodd" d="M32.5 18.6488C31.8928 18.9286 31.2405 19.1179 30.5552 19.2026C31.2548 18.7672 31.7916 18.0775 32.0435 17.2566C31.3901 17.6595 30.6652 17.9521 29.8941 18.11C29.277 17.4261 28.397 17 27.4235 17C25.2389 17 23.6318 19.1179 24.1257 21.3182C21.313 21.1719 18.8182 19.7716 17.1484 17.6433C16.2618 19.2235 16.6886 21.2926 18.1967 22.34C17.6412 22.3214 17.1198 22.1635 16.6633 21.8999C16.6259 23.5289 17.7501 25.0535 19.3781 25.3925C18.9018 25.5272 18.3793 25.5585 17.8491 25.4529C18.2803 26.8509 19.5299 27.868 21.0116 27.8959C19.5882 29.0547 17.7963 29.5725 16 29.3531C17.4982 30.3505 19.278 30.9333 21.1887 30.9333C27.4741 30.9333 31.0249 25.4169 30.8104 20.4694C31.4726 19.9736 32.0457 19.3536 32.5 18.6488Z" fill=""/>
	</g><clipPath id="mask0_21_17465">
		<rect width="48" height="48" fill=""/>
	</clipPath></svg>
<svg id="i-twitter2" viewBox="0 0 24 24"><path d="M22.9912 3.95021C22.9913 3.77357 22.9446 3.60007 22.8558 3.44735C22.7671 3.29464 22.6394 3.16817 22.4859 3.08084C22.3324 2.9935 22.1584 2.94842 21.9818 2.95017C21.8052 2.95193 21.6322 3.00046 21.4804 3.09083C20.8951 3.43921 20.265 3.70601 19.6074 3.88383C18.6684 3.07806 17.4708 2.63713 16.2334 2.64164C14.876 2.6432 13.5723 3.17223 12.5976 4.11702C11.623 5.06181 11.0536 6.3484 11.0098 7.70512C8.33378 7.27838 5.90843 5.88164 4.19625 3.78126C4.09308 3.65609 3.96133 3.55757 3.81211 3.494C3.66288 3.43043 3.50056 3.40368 3.33883 3.41601C3.17719 3.42932 3.02122 3.4818 2.88442 3.56892C2.74762 3.65603 2.63409 3.77516 2.55367 3.91601C2.1412 4.63582 1.9043 5.44276 1.86222 6.27131C1.82014 7.09986 1.97406 7.92666 2.31148 8.68456L2.30953 8.68651C2.15788 8.77991 2.03272 8.91066 1.94603 9.06625C1.85935 9.22185 1.81403 9.39708 1.81441 9.57519C1.81257 9.72211 1.82139 9.86898 1.84078 10.0146C1.94292 11.2729 2.50056 12.4507 3.40914 13.3271C3.3475 13.4446 3.30988 13.5731 3.29848 13.7052C3.28708 13.8373 3.30212 13.9704 3.34273 14.0967C3.73884 15.3308 4.58123 16.3727 5.70504 17.0185C4.56328 17.46 3.33046 17.614 2.11519 17.4668C1.89026 17.4386 1.66242 17.4876 1.46904 17.6059C1.27566 17.7242 1.12822 17.9047 1.0509 18.1178C0.973592 18.3309 0.970999 18.5639 1.04355 18.7787C1.1161 18.9935 1.25949 19.1772 1.45019 19.2998C3.54028 20.646 5.97387 21.3617 8.45996 21.3613C11.2792 21.393 14.0299 20.4921 16.2842 18.7988C18.5385 17.1054 20.1699 14.7145 20.9248 11.998C21.2778 10.8146 21.4581 9.58648 21.46 8.35157C21.46 8.28614 21.46 8.21876 21.459 8.15138C21.9811 7.58831 22.3855 6.92668 22.6486 6.20527C22.9117 5.48387 23.0282 4.7172 22.9912 3.95021ZM19.6845 7.16212C19.5194 7.35746 19.4358 7.60891 19.4511 7.86427C19.4609 8.02927 19.4599 8.19527 19.4599 8.35157C19.4579 9.39511 19.3049 10.4329 19.0058 11.4326C18.3893 13.744 17.015 15.7817 15.1029 17.2192C13.1908 18.6568 10.8516 19.4111 8.45996 19.3613C7.60084 19.3616 6.74468 19.2606 5.90918 19.0606C6.97459 18.7172 7.97077 18.1879 8.85156 17.4971C9.01378 17.3693 9.13251 17.1945 9.19145 16.9967C9.25038 16.7988 9.24664 16.5875 9.18073 16.3918C9.11483 16.1961 8.98999 16.0257 8.82334 15.9038C8.65669 15.7819 8.4564 15.7145 8.24996 15.7109C7.41879 15.698 6.62509 15.363 6.03609 14.7764C6.18551 14.7481 6.33395 14.7129 6.48141 14.6709C6.69742 14.6094 6.88645 14.477 7.01807 14.295C7.14969 14.1131 7.21623 13.8921 7.20698 13.6677C7.19773 13.4433 7.11324 13.2285 6.96709 13.058C6.82095 12.8874 6.62167 12.7711 6.40133 12.7275C5.91887 12.6323 5.46487 12.427 5.07464 12.1277C4.68441 11.8284 4.36845 11.4432 4.15133 11.002C4.33206 11.0266 4.51394 11.0419 4.69625 11.0479C4.91283 11.0511 5.12484 10.9854 5.30162 10.8603C5.47841 10.7351 5.6108 10.5569 5.67965 10.3516C5.74563 10.1443 5.74223 9.92123 5.66998 9.7161C5.59772 9.51096 5.46055 9.33499 5.27926 9.21485C4.83941 8.92182 4.4791 8.52427 4.23061 8.0578C3.98213 7.59134 3.85322 7.07052 3.85543 6.54201C3.85543 6.47561 3.85738 6.4092 3.86129 6.34377C6.10255 8.43402 9.00961 9.66621 12.0703 9.82326C12.2248 9.82934 12.3786 9.80024 12.5202 9.73816C12.6618 9.67607 12.7875 9.58262 12.8877 9.46486C12.9869 9.34596 13.0571 9.20566 13.0928 9.05501C13.1286 8.90437 13.1289 8.74748 13.0937 8.5967C13.0365 8.35806 13.0073 8.11357 13.0068 7.86818C13.0077 7.01271 13.3479 6.19254 13.9528 5.58764C14.5577 4.98274 15.3779 4.64251 16.2334 4.64161C16.6735 4.64043 17.1091 4.7305 17.5127 4.90615C17.9162 5.0818 18.279 5.3392 18.5781 5.66212C18.6934 5.7862 18.8386 5.87871 18.9998 5.93085C19.161 5.98299 19.3328 5.99303 19.499 5.96001C19.9097 5.88006 20.3146 5.7724 20.7109 5.63775C20.4406 6.19072 20.0952 6.70369 19.6845 7.16212Z" fill=""/></svg>
<svg id="i-ukr" viewBox="0 0 20 20"><path d="M16.1422 11.4815C16.1417 11.4814 9.52025 9.983 9.52025 9.983C7.54664 9.53637 6.30858 7.5743 6.75508 5.60056C7.20183 3.62682 9.1639 2.38902 11.1375 2.83552C13.1112 3.28218 14.3492 5.24422 13.9026 7.21782C13.6789 8.20598 13.0753 9.00895 12.2806 9.50919C12.2804 9.50919 12.2785 9.51081 12.2778 9.5112C12.2544 9.52798 12.2393 9.55529 12.2393 9.58601C12.2393 9.62906 12.269 9.66524 12.3092 9.67489C12.3093 9.67502 15.2548 10.3411 15.2553 10.3411C15.3254 10.357 15.3981 10.3299 15.4412 10.2731C15.4414 10.2725 15.4413 10.2729 15.4413 10.2729C16.2528 9.19917 16.7402 7.85938 16.7402 6.41027C16.7402 2.99759 14.074 0.208649 10.7109 0.0105629C10.681 0.00890541 10.4987 0.00178528 10.4371 0.000907898C8.94813 -0.0224667 7.43841 0.40449 6.12556 1.32392C2.81014 3.64535 2.00462 8.21472 4.32581 11.53L10.2169 19.9435C10.2421 19.9778 10.2826 20 10.328 20C10.3739 20 10.4145 19.9774 10.4395 19.9429C10.4395 19.9429 16.2245 11.6929 16.225 11.6922C16.2397 11.6704 16.2485 11.6438 16.2485 11.6154C16.2485 11.5501 16.2031 11.4955 16.1422 11.4815Z" fill="#FABC26"/></svg>
<svg id="i-viber" viewBox="0 0 40 40"><path d="M20.8287 14.1314C20.7839 14.1247 20.73 14.1209 20.673 14.1169C20.4373 14.1001 19.9471 14.0653 19.9761 13.5718C19.9887 13.3583 20.0871 13 20.6047 13C20.6624 13 20.7194 13.0038 20.7699 13.0071L20.7787 13.0077C20.8187 13.0103 20.8563 13.0128 20.8871 13.0128C20.9074 13.0128 20.9192 13.0117 20.9256 13.0108C20.9386 13.009 20.9514 13.0083 20.9649 13.0087C24.2152 13.1156 27.0311 15.9882 26.991 19.1561C26.9904 19.1978 26.9926 19.2454 26.9949 19.2959L26.9951 19.2988C27.0048 19.5089 27.0168 19.7705 26.844 19.9465C26.7449 20.0475 26.6064 20.0986 26.4323 20.0986L26.4151 20.0984C25.86 20.088 25.8516 19.5847 25.8476 19.3427C25.8465 19.2747 25.8454 19.2103 25.8386 19.1577C25.4363 16.0602 23.9849 14.604 20.8287 14.1314Z" fill=""/><path d="M21.2614 14.8414C23.4006 15.0916 25.127 16.9011 25.1097 18.8749C25.1097 18.884 25.109 18.8931 25.1077 18.9021C25.1027 18.9379 25.1046 18.9916 25.1066 19.0485C25.1138 19.2512 25.1286 19.6737 24.6542 19.7439C24.6067 19.7509 24.5611 19.7545 24.5187 19.7545C24.0092 19.7545 23.9804 19.293 23.9666 19.0712C23.9629 19.012 23.9594 18.9559 23.9517 18.9107C23.6354 17.0549 22.9882 16.3974 21.0662 15.9792C21.0199 15.9691 20.9649 15.9617 20.9065 15.9538L20.9018 15.9532C20.6966 15.9259 20.4411 15.8917 20.2959 15.6995C20.2096 15.5852 20.181 15.4391 20.211 15.2652C20.2418 15.0863 20.359 14.7864 20.7975 14.7864C20.908 14.7864 21.0175 14.804 21.1234 14.8211C21.1724 14.829 21.2189 14.8365 21.2614 14.8414Z" fill=""/><path d="M25.6864 23.161C25.6193 23.1111 25.5499 23.0594 25.485 23.0084C25.1405 22.7385 24.774 22.4897 24.4196 22.249C24.346 22.1991 24.272 22.1489 24.1987 22.0988C23.7446 21.7881 23.3363 21.6372 22.9505 21.6372C22.4309 21.6372 21.9779 21.9168 21.604 22.468C21.4384 22.7124 21.2374 22.8312 20.9898 22.8312C20.8433 22.8312 20.6769 22.7905 20.4952 22.7102C19.0293 22.0629 17.9825 21.0704 17.3839 19.7602C17.0946 19.127 17.1884 18.7131 17.6976 18.3762C17.9868 18.1851 18.5251 17.8293 18.487 17.1479C18.4438 16.3741 16.6905 14.0459 15.9518 13.7815C15.6391 13.6695 15.3105 13.6684 14.9734 13.7789C14.1242 14.0569 13.5148 14.5451 13.2109 15.1906C12.9172 15.8144 12.9305 16.5469 13.2492 17.3088C14.1707 19.5116 15.4662 21.4322 17.0999 23.0171C18.699 24.5686 20.6645 25.8395 22.9417 26.7943C23.1469 26.8803 23.3622 26.9272 23.5194 26.9614L23.5309 26.964C23.5796 26.9746 23.6217 26.9838 23.6529 26.9922C23.6715 26.9971 23.6906 26.9997 23.7097 26.9999L23.7277 27C24.7988 27 26.0848 26.047 26.4798 24.9604C26.8258 24.0091 26.1941 23.5388 25.6864 23.161Z" fill=""/><path d="M21.1469 16.6332C21.6329 16.6218 22.1673 16.8687 22.6107 17.3071C23.0524 17.7442 23.3122 18.2929 23.3065 18.7763C23.3222 19.2394 23.1488 19.4953 22.7912 19.5367C22.7688 19.5394 22.7463 19.5406 22.7244 19.5406C22.427 19.5406 22.1954 19.3068 22.1611 18.9719C22.0873 18.2536 21.7183 17.8667 20.9999 17.7545C20.8018 17.7234 20.584 17.6667 20.4703 17.4819C20.3928 17.3559 20.3853 17.2023 20.448 17.0254C20.5818 16.6471 20.9634 16.6377 21.1469 16.6332Z" fill=""/></svg>
<svg id="i-viber2" viewBox="0 0 24 24"><g clip-path="url(#clip0_455_5306)">
<path d="M6.328 20.3781C6.297 21.8431 6.124 23.5171 7.399 23.9211C8.649 24.3281 9.374 23.3231 11.004 21.2831C17.082 21.6981 22.447 19.9891 23.165 13.8621C23.808 8.41506 22.977 4.34006 20.838 2.40106C17.701 -0.604939 7.49 -1.02594 3.752 2.54706C2.213 4.14806 1.463 6.49706 1.393 9.94006C1.336 12.7521 1.22 18.5021 6.328 20.3781ZM2.893 9.97106C2.955 6.92806 3.571 4.89906 4.81 3.60906C7.931 0.62706 17.18 0.97206 19.815 3.50006C21.574 5.09306 22.253 8.80606 21.676 13.6871C21.152 18.1631 18.27 18.9271 17.185 19.2141C14.938 19.8071 12.796 19.9361 10.741 19.7581C10.2 19.7001 9.987 20.2121 9.79 20.3981C8.811 21.5751 8.105 22.4251 7.922 22.5391C7.787 22.3381 7.808 21.3871 7.824 20.6231C7.775 20.2791 8.083 19.3281 7.28 19.1131C2.735 17.7711 2.838 12.6981 2.893 9.97106Z" fill=""/>
<path d="M5.76204 7.98066C6.56304 9.57766 7.34404 12.3997 10.343 14.8557C11.384 15.7137 14.5 17.6937 15.72 17.6937C17.463 17.6937 19.454 14.9517 17.996 13.7287C17.34 13.0877 16.417 12.4567 15.825 12.1097C15.824 12.1087 15.823 12.1087 15.823 12.1087C14.286 11.2197 13.444 12.8557 13.344 12.9197C11.092 14.9357 8.31804 11.4337 10.262 9.73967C10.501 9.44267 11.927 8.75466 11.081 7.19066C10.331 5.83366 9.83604 5.36666 9.55604 4.97966C8.07904 3.13566 4.88304 6.19866 5.76204 7.98066ZM14.936 13.3537C15.038 13.4177 15.927 13.8067 16.988 14.8397C17.123 14.9527 16.223 16.2607 15.65 16.1857C15.537 16.1347 14.72 15.9397 12.965 14.8667C14.631 14.3007 14.617 13.4137 14.936 13.3537ZM8.27004 5.92866C8.33204 5.89566 8.36404 5.89366 8.36104 5.88566C8.64904 6.28666 9.07904 6.66866 9.76504 7.90966C9.94704 8.24666 9.49804 8.37767 9.20804 8.67367C8.79504 9.03967 8.49204 9.47567 8.30604 9.95667C7.69204 8.79767 7.41704 7.96266 7.13704 7.37866C7.02504 6.84666 7.79404 6.20066 8.27004 5.92866Z" fill=""/>
<path d="M12.812 8.54962C12.823 8.55062 13.911 8.68962 14.106 9.86062C14.271 10.8546 15.747 10.5876 15.585 9.61462C15.282 7.79562 13.751 7.14762 12.982 7.05962C11.997 6.94862 11.828 8.43562 12.812 8.54962Z" fill=""/>
<path d="M12.031 5.31541C12.048 5.31541 14.409 5.27341 15.946 6.91741C17.464 8.54141 17.129 10.9024 17.126 10.9234C16.973 11.8964 18.451 12.1544 18.607 11.1564C18.627 11.0314 19.068 8.06041 17.042 5.89241C15.031 3.74041 12.106 3.80741 11.985 3.81541C10.96 3.84941 11.084 5.39341 12.031 5.31541Z" fill=""/>
</g><defs>
<clipPath id="clip0_455_5306">
<rect width="24" height="24" fill=""/>
</clipPath>
</defs></svg>
<svg id="i-watch" viewBox="0 0 24 24"><path fill-rule="evenodd" clip-rule="evenodd" d="M12 2C17.5228 2 22 6.47715 22 12C22 17.5228 17.5228 22 12 22C6.47715 22 2 17.5228 2 12C2 6.47715 6.47715 2 12 2ZM12 3.6C7.36081 3.6 3.6 7.36081 3.6 12C3.6 16.6392 7.36081 20.4 12 20.4C16.6392 20.4 20.4 16.6392 20.4 12C20.4 7.36081 16.6392 3.6 12 3.6ZM12.6912 7.45345C12.6555 7.06578 12.3324 6.77201 11.9315 6.78171C11.4998 6.79215 11.1414 7.15058 11.1309 7.58229L11.0174 12.2755L11.0205 12.3665C11.0562 12.7542 11.3793 13.0479 11.7802 13.0382L16.4702 12.9248L16.5615 12.9173C16.9514 12.8628 17.2611 12.5251 17.2708 12.1242L17.2678 12.0332C17.232 11.6455 16.9089 11.3517 16.5081 11.3614L12.5997 11.4568L12.6943 7.54448L12.6912 7.45345Z" fill="#1D1D23"/></svg>
<svg id="i-whatsapp" viewBox="0 0 40 40"><g clip-path="url(#mask0_15_13805)" x="11" y="10" width="18" height="18">
		<path fill-rule="evenodd" clip-rule="evenodd" d="M19.9978 10H20.0022C24.9646 10 29 14.0376 29 19C29 23.9624 24.9646 28 20.0022 28C18.1719 28 16.4742 27.4555 15.0511 26.5128L11.5918 27.6186L12.7134 24.2751C11.6345 22.7935 11 20.9688 11 19C11 14.0365 15.0354 10 19.9978 10ZM23.4729 23.9792C24.1602 23.8307 25.022 23.3222 25.2391 22.7091C25.4563 22.0949 25.4562 21.5717 25.3932 21.4604C25.3424 21.372 25.2221 21.3141 25.0425 21.2276C24.9958 21.2051 24.945 21.1807 24.8904 21.1532C24.626 21.0216 23.3401 20.386 23.0971 20.3016C22.8586 20.2116 22.6314 20.2431 22.4514 20.4974C22.4171 20.5453 22.383 20.5933 22.349 20.6411C22.1319 20.9465 21.9224 21.2411 21.7483 21.4289C21.5896 21.5976 21.3309 21.619 21.1138 21.529C21.0901 21.5191 21.063 21.5082 21.0326 21.4959C20.6888 21.3571 19.9263 21.0491 19.0033 20.2274C18.2248 19.5344 17.696 18.6715 17.543 18.4128C17.3928 18.1532 17.5224 18.001 17.6421 17.8603C17.6443 17.8577 17.6465 17.8551 17.6487 17.8525C17.726 17.757 17.8009 17.6774 17.8762 17.5975C17.9304 17.54 17.9847 17.4823 18.0402 17.4183C18.0485 17.4087 18.0565 17.3995 18.0643 17.3905C18.1823 17.2549 18.2525 17.1742 18.3316 17.0054C18.4216 16.831 18.3575 16.651 18.2934 16.5182C18.2493 16.4253 17.9767 15.764 17.7427 15.1963C17.6426 14.9534 17.5496 14.7276 17.4845 14.5709C17.3101 14.1535 17.1774 14.1378 16.913 14.1265C16.9049 14.1261 16.8967 14.1257 16.8885 14.1253C16.8049 14.121 16.7129 14.1164 16.6115 14.1164C16.2673 14.1164 15.9084 14.2176 15.6912 14.4392C15.6837 14.447 15.6758 14.455 15.6675 14.4634C15.3898 14.7459 14.771 15.3752 14.771 16.6296C14.771 17.8865 15.6628 19.1029 15.8278 19.3279C15.8323 19.3341 15.8363 19.3396 15.8397 19.3442C15.8497 19.3573 15.8684 19.3844 15.8956 19.4238C16.2325 19.9117 17.8736 22.2882 20.3206 23.302C22.3884 24.1593 23.0026 24.0794 23.4729 23.9792Z" fill=""/>
	</g><clipPath id="mask0_15_13805">
		<rect width="40" height="40" transform="matrix(-1 0 0 1 40 0)" fill=""/>
	</clipPath></svg>
<svg id="i-whatsapp2" viewBox="0 0 24 24"><path d="M16.6 13.9996C16.4 13.8996 15.1 13.2996 14.9 13.1996C14.7 13.0996 14.5 13.0996 14.3 13.2996C14.1 13.4996 13.7 14.0996 13.5 14.2996C13.4 14.4996 13.2 14.4996 13 14.3996C12.3 14.0996 11.6 13.6996 11 13.1996C10.5 12.6996 10 12.0996 9.6 11.4996C9.5 11.2996 9.6 11.0996 9.7 10.9996C9.8 10.8996 9.9 10.6996 10.1 10.5996C10.2 10.4996 10.3 10.2996 10.3 10.1996C10.4 10.0996 10.4 9.89961 10.3 9.79961C10.2 9.69961 9.7 8.49961 9.5 7.99961C9.4 7.29961 9.2 7.29961 9 7.29961C8.9 7.29961 8.7 7.29961 8.5 7.29961C8.3 7.29961 8 7.49961 7.9 7.59961C7.3 8.19961 7 8.89961 7 9.69961C7.1 10.5996 7.4 11.4996 8 12.2996C9.1 13.8996 10.5 15.1996 12.2 15.9996C12.7 16.1996 13.1 16.3996 13.6 16.4996C14.1 16.6996 14.6 16.6996 15.2 16.5996C15.9 16.4996 16.5 15.9996 16.9 15.3996C17.1 14.9996 17.1 14.5996 17 14.1996C17 14.1996 16.8 14.0996 16.6 13.9996ZM19.1 4.89961C15.2 0.999609 8.9 0.999609 5 4.89961C1.8 8.09961 1.2 12.9996 3.4 16.8996L2 21.9996L7.3 20.5996C8.8 21.3996 10.4 21.7996 12 21.7996C17.5 21.7996 21.9 17.3996 21.9 11.8996C22 9.29961 20.9 6.79961 19.1 4.89961ZM16.4 18.8996C15.1 19.6996 13.6 20.1996 12 20.1996C10.5 20.1996 9.1 19.7996 7.8 19.0996L7.5 18.8996L4.4 19.6996L5.2 16.6996L5 16.3996C2.6 12.3996 3.8 7.39961 7.7 4.89961C11.6 2.39961 16.6 3.69961 19 7.49961C21.4 11.3996 20.3 16.4996 16.4 18.8996Z" fill=""/></svg></svg>