<svg width="10" height="12" viewBox="0 0 10 12" fill="none" xmlns="http://www.w3.org/2000/svg">
<path fill-rule="evenodd" clip-rule="evenodd" d="M5 0C2.23858 0 0 2.23858 0 5V7C0 9.76142 2.23858 12 5 12C7.76142 12 10 9.76142 10 7V5C10 2.23858 7.76142 0 5 0ZM4.26131 7.6375C4.33602 7.43478 4.51706 7.26458 4.80441 7.12688H8.132V6.36955H5.68372L6.47683 5.80729H8.132V5.04995H7.30441C7.49982 4.91226 7.63775 4.74588 7.71821 4.55081C7.79867 4.35573 7.8389 4.1664 7.8389 3.98281C7.8389 3.68446 7.78143 3.41098 7.66648 3.16236C7.55154 2.91374 7.37913 2.69955 7.14924 2.51978C6.91936 2.34001 6.632 2.19849 6.28717 2.09522C5.94234 1.99194 5.5343 1.94031 5.06303 1.94031C4.61476 1.94031 4.21821 1.99959 3.87338 2.11817C3.52855 2.23674 3.23545 2.39547 2.99407 2.59437C2.75269 2.79326 2.57166 3.02084 2.45097 3.27711C2.33028 3.53338 2.26993 3.79921 2.26993 4.0746V4.36147H4.02855V4.10903C4.02855 3.97133 4.04005 3.8432 4.06303 3.72463C4.08602 3.60605 4.13775 3.50087 4.21821 3.40907C4.29867 3.31727 4.40499 3.2446 4.53717 3.19105C4.66936 3.1375 4.85039 3.11073 5.08028 3.11073C5.29867 3.11073 5.47395 3.13942 5.60614 3.19679C5.73832 3.25416 5.8389 3.32875 5.90786 3.42055C5.97683 3.51234 6.0228 3.61562 6.04579 3.73036C6.06878 3.84511 6.08028 3.95986 6.08028 4.0746C6.08028 4.2429 6.03143 4.41884 5.93372 4.60244C5.83602 4.78604 5.68373 4.93521 5.47683 5.04995H2.132V5.80729H4.58028L3.76993 6.36955H2.132V7.12688H2.95959C2.76418 7.25693 2.61476 7.42139 2.51131 7.62029C2.40786 7.81919 2.35614 8.0372 2.35614 8.27435C2.35614 8.87869 2.60039 9.35871 3.0889 9.71443C3.5774 10.0701 4.26418 10.248 5.14924 10.248C5.57453 10.248 5.96533 10.1964 6.32166 10.0931C6.67798 9.98982 6.98545 9.85021 7.24407 9.67426C7.50269 9.49832 7.70096 9.29369 7.8389 9.06037C7.97683 8.82705 8.04579 8.57652 8.04579 8.30877V7.87273H6.28717V8.19403C6.28717 8.30112 6.26993 8.40631 6.23545 8.50958C6.20097 8.61285 6.14349 8.70656 6.06303 8.79071C5.98257 8.87486 5.87051 8.94371 5.72683 8.99726C5.58315 9.05081 5.40212 9.07758 5.18372 9.07758C4.98832 9.07758 4.82453 9.05272 4.69234 9.00299C4.56016 8.95327 4.45384 8.89016 4.37338 8.81366C4.29292 8.73716 4.23545 8.64919 4.20097 8.54974C4.16648 8.45029 4.14924 8.34702 4.14924 8.23993C4.14924 8.04103 4.1866 7.84022 4.26131 7.6375Z" fill="#39AB6B"/>
</svg>
