<svg width="104" height="19" viewBox="0 0 104 19" fill="none" xmlns="http://www.w3.org/2000/svg">
<path d="M95.3348 0.984098L101.573 15.7067C101.801 16.2104 102.109 16.6248 102.499 16.9498C102.85 17.2423 103.267 17.4295 103.749 17.5114L103.913 17.5348V18.0467H96.8213V17.5348C97.4874 17.5348 98.0154 17.3926 98.4053 17.1082C98.7952 16.8239 98.9902 16.4379 98.9902 15.9504C98.9902 15.7554 98.9424 15.5365 98.8469 15.2938L97.528 12.0991H90.8997L89.7056 14.9998C89.5594 15.341 89.4863 15.6498 89.4863 15.926C89.4863 16.446 89.7016 16.8401 90.1321 17.1082C90.5267 17.354 91.0613 17.494 91.7358 17.5281L91.9231 17.5348V18.0467H86.2696V17.5348C86.9032 17.4373 87.4068 17.2098 87.7804 16.8523C88.1167 16.5305 88.4201 16.0838 88.6906 15.5119L88.7796 15.3167L94.8231 0.984098H95.3348ZM72.4425 0.984098L82.6531 14.366V3.71411C82.6531 3.12911 82.4784 2.62942 82.1291 2.21504C81.809 1.8352 81.424 1.61579 80.9741 1.55682L80.8498 1.54473L79.5826 1.49598V0.984098H86.1379V1.49598L85.2606 1.54473C84.7244 1.56098 84.2818 1.77628 83.9325 2.19066C83.6123 2.57051 83.4389 3.02888 83.4122 3.56575L83.4086 3.71411V18.0467H82.6287L71.5165 3.71411V15.3167C71.5165 15.8854 71.6952 16.381 72.0526 16.8035C72.3802 17.1908 72.7625 17.4143 73.1993 17.4739L73.3198 17.486L74.5626 17.5348V18.0467H68.0561V17.5348L68.9578 17.486C69.4776 17.4698 69.9122 17.2504 70.2615 16.8279C70.5817 16.4406 70.7551 15.9851 70.7818 15.4612L70.7855 15.3167V3.15348L70.4199 2.69036C70.095 2.26786 69.7294 1.97128 69.3233 1.80066C68.9578 1.64709 68.4804 1.54948 67.8912 1.5078L67.6906 1.49598V0.984098H72.4425ZM65.3227 0.984098V1.49598L64.2992 1.54473C63.7631 1.57723 63.3447 1.73973 63.0442 2.03223C62.771 2.29814 62.6219 2.65133 62.5971 3.09183L62.5934 3.22661V15.8042C62.5934 16.3079 62.7436 16.706 63.0442 16.9985C63.3174 17.2644 63.6813 17.4229 64.1357 17.474L64.2748 17.486L65.3227 17.5348V18.0467H57.5002V17.5348L58.5481 17.486C59.068 17.4535 59.4782 17.291 59.7787 16.9985C60.052 16.7326 60.201 16.3794 60.2258 15.9389L60.2295 15.8042V3.22661C60.2295 2.72286 60.0793 2.32473 59.7787 2.03223C59.5055 1.76632 59.135 1.60784 58.667 1.55681L58.5237 1.54473L57.5002 1.49598V0.984098H65.3227ZM48.9231 0.984098V1.49598L48.1433 1.54473C47.6072 1.57723 47.1889 1.73973 46.8883 2.03223C46.6151 2.29814 46.466 2.65133 46.4412 3.09183L46.4374 3.22661V15.6823C46.4374 16.251 46.6121 16.706 46.9614 17.0473C47.2815 17.3601 47.7007 17.5296 48.2189 17.5556L48.3626 17.5592H50.0928C52.6879 17.5592 54.3781 15.8815 55.1633 12.526L55.2103 12.3185H55.7707L55.1371 18.0467H41.5881V17.5348L42.3922 17.486C42.9283 17.4535 43.3426 17.291 43.635 16.9985C43.9008 16.7326 44.0459 16.3794 44.0701 15.9389L44.0737 15.8042V3.22661C44.0737 2.72286 43.9234 2.32473 43.6229 2.03223C43.3496 1.76632 42.9791 1.60784 42.5112 1.55681L42.3679 1.54473L41.5881 1.49598V0.984098H48.9231ZM31.4676 0.984098L37.7061 15.7067C37.9335 16.2104 38.2422 16.6248 38.6321 16.9498C38.983 17.2423 39.3997 17.4295 39.8822 17.5114L40.0455 17.5348V18.0467H32.9541V17.5348C33.6202 17.5348 34.1482 17.3926 34.5381 17.1082C34.928 16.8239 35.1229 16.4379 35.1229 15.9504C35.1229 15.7554 35.0752 15.5365 34.9797 15.2938L33.6608 12.0991H27.0325L25.8384 14.9998C25.6922 15.341 25.6191 15.6498 25.6191 15.926C25.6191 16.446 25.8343 16.8401 26.2648 17.1082C26.6595 17.354 27.194 17.494 27.8685 17.5281L28.056 17.5348V18.0467H22.4023V17.5348C23.0359 17.4373 23.5396 17.2098 23.9132 16.8523C24.2495 16.5305 24.5529 16.0838 24.8234 15.5119L24.9124 15.3167L30.9559 0.984098H31.4676ZM5.40985 0.984098L10.8198 14.951L16.1566 0.984098H20.8597V1.49598L20.0556 1.54473C19.5195 1.57723 19.1052 1.73973 18.8127 2.03223C18.5469 2.29814 18.4019 2.64462 18.3777 3.07169L18.3741 3.20223V15.8042C18.3741 16.3079 18.5203 16.706 18.8127 16.9985C19.0786 17.2644 19.4452 17.4229 19.9124 17.474L20.0556 17.486L20.8597 17.5348V18.0467H13.5247V17.5348L14.3289 17.486C14.865 17.4535 15.2793 17.291 15.5717 16.9985C15.8376 16.7326 15.9825 16.3794 16.0067 15.9389L16.0103 15.8042V3.47036L10.308 17.7785H9.50385L3.46033 2.66598V15.3167C3.46033 15.9017 3.63503 16.4014 3.98431 16.8157C4.30449 17.1956 4.68948 17.415 5.13934 17.4739L5.26367 17.486L6.4577 17.5348V18.0467H0V17.5348L0.925964 17.486C1.42959 17.4698 1.8561 17.2504 2.20538 16.8279C2.52556 16.4406 2.69897 15.9851 2.72565 15.4612L2.72931 15.3167V3.20223C2.72931 2.71473 2.58308 2.32473 2.29065 2.03223C2.02481 1.76632 1.65828 1.60784 1.19104 1.55681L1.04785 1.54473L0.243652 1.49598V0.984098H5.40985ZM94.1651 4.10412L91.119 11.5629H97.2844L94.1651 4.10412ZM30.2979 4.10412L27.2518 11.5629H33.4171L30.2979 4.10412Z" fill="#1D1D23"/>
</svg>
