<svg width="64" height="64" viewBox="0 0 64 64" fill="none" xmlns="http://www.w3.org/2000/svg">
<g clip-path="url(#clip0_314_4966)">
<path d="M13.25 45.125C10.1484 45.125 7.625 47.6484 7.625 50.75C7.625 53.8516 10.1484 56.375 13.25 56.375C16.3516 56.375 18.875 53.8516 18.875 50.75C18.875 47.6484 16.3516 45.125 13.25 45.125ZM13.25 52.625C12.2161 52.625 11.375 51.7839 11.375 50.75C11.375 49.7161 12.2161 48.875 13.25 48.875C14.2839 48.875 15.125 49.7161 15.125 50.75C15.125 51.7839 14.2839 52.625 13.25 52.625Z" fill="white"/>
<path d="M60.6159 38.092C61.895 36.361 62.1306 33.9471 60.9675 31.9328L53.4714 18.824C52.1746 16.578 49.4401 15.5531 47.0009 16.2051C47.5202 13.8705 46.5013 11.3659 44.323 10.1082L31.3334 2.60875C29.4783 1.5375 27.2601 1.64725 25.5543 2.70237C24.5656 1.08325 22.782 0 20.75 0H5.625C2.52338 0 0 2.52338 0 5.625C0 6.92562 0 56.8778 0 58.375C0 61.4766 2.52338 64 5.625 64C7.08162 64 51.246 64 58.375 64C61.4766 64 64 61.4766 64 58.375V43.25C64 40.9446 62.6054 38.9596 60.6159 38.092ZM22.625 58.375C22.625 59.4089 21.7839 60.25 20.75 60.25H5.625C4.59113 60.25 3.75 59.4089 3.75 58.375C3.75 57.5184 3.75 42.1978 3.75 41.375H22.625V58.375ZM22.625 37.625H3.75V22.5H22.625V37.625ZM22.625 18.75H3.75V5.625C3.75 4.59113 4.59113 3.75 5.625 3.75H20.75C21.7839 3.75 22.625 4.59113 22.625 5.625V18.75ZM26.375 7.446L26.8964 6.54287C27.4136 5.64725 28.5629 5.33925 29.4584 5.85638L42.448 13.3559C43.3436 13.873 43.6515 15.0223 43.133 15.9204L40.9665 19.6863C40.9123 19.7664 40.8635 19.8496 40.8225 19.9365L26.375 45.0494V7.446ZM26.375 52.5694L43.9027 22.1022L47.5269 20.0099C48.4456 19.4795 49.7057 19.8016 50.22 20.6922L57.7161 33.801C58.2346 34.699 57.9323 35.8503 57.025 36.374C55.686 37.1491 27.6936 53.3548 26.375 54.1181V52.5694ZM60.25 58.375C60.25 59.4089 59.4089 60.25 58.375 60.25H26.0525C26.2524 59.6862 26.3645 59.0817 26.3731 58.4524L55.8713 41.375H58.375C59.4089 41.375 60.25 42.2161 60.25 43.25V58.375Z" fill="white"/>
</g>
<defs>
<clipPath id="clip0_314_4966">
<rect width="64" height="64" fill="white"/>
</clipPath>
</defs>
</svg>
