<svg width="14" height="14" fill="none" xmlns="http://www.w3.org/2000/svg"><path d="M11.368 4.424c-.38-.671-.327-1.49.056-2.202a.477.477 0 00-.172-.64L9.482.539a.478.478 0 00-.653.174C8.416 1.4 7.753 1.848 7 1.848c-.754 0-1.417-.448-1.83-1.135a.478.478 0 00-.654-.174L2.748 1.582a.477.477 0 00-.173.64c.384.713.436 1.53.057 2.202-.377.667-1.09 1.03-1.88 1.051a.478.478 0 00-.472.474V8.05c0 .262.21.468.472.475.79.021 1.503.384 1.88 1.05.38.672.327 1.49-.057 2.203a.477.477 0 00.173.64l1.768 1.043a.478.478 0 00.654-.174c.413-.687 1.076-1.136 1.83-1.136.753 0 1.416.449 1.83 1.136a.478.478 0 00.653.174l1.768-1.043a.477.477 0 00.173-.64c-.384-.713-.436-1.531-.056-2.202.376-.667 1.09-1.03 1.879-1.051a.478.478 0 00.473-.474V5.949a.478.478 0 00-.473-.474c-.79-.022-1.502-.384-1.88-1.05zM7 9.4a2.4 2.4 0 110-4.8 2.4 2.4 0 010 4.8z" fill="#1D1D23"/></svg>