<svg width="154" height="197" viewBox="0 0 154 197" fill="none" xmlns="http://www.w3.org/2000/svg">
<path d="M87.9205 143.239C88.0744 143.385 88.0903 143.625 87.957 143.79C85.8795 146.364 83.3026 147.051 80.3288 145.818C80.1213 145.732 80.0228 145.494 80.1088 145.286C80.1947 145.078 80.4325 144.98 80.64 145.066C83.1053 146.088 85.1832 145.643 86.9575 143.706L87.0761 143.573L86.9845 143.496C84.4034 141.372 81.2005 141.964 77.2663 145.371L77.2138 145.28C78.3657 147.24 79.3099 149.206 80.0464 151.178C79.9926 149.88 80.8623 148.706 82.145 148.39L82.2703 148.362L82.4347 148.333L82.5643 148.309L82.6783 148.285L82.7764 148.262L82.9054 148.227L83.1467 148.158L83.204 148.145C83.414 148.108 83.6216 148.179 83.7239 148.385L83.7513 148.451L83.7625 148.489L83.7696 148.519L83.7793 148.581L83.7876 148.687L83.7952 148.895L83.8003 148.981L83.8143 149.141L83.8288 149.264L83.8667 149.534C84.0211 150.908 83.1304 152.186 81.7847 152.52L81.6572 152.548L81.4253 152.589L81.3037 152.613L81.1969 152.637L81.1079 152.659L80.7801 152.752L80.6962 152.769L80.6273 152.775C80.6165 152.775 80.6058 152.775 80.5953 152.774C82.0311 157.313 82.3699 161.886 81.6127 166.487C82.4609 164.989 83.3681 164.077 84.6808 163.528L84.8544 163.458L85.0711 163.378C87.2425 162.609 89.5411 162.766 91.9465 163.839C92.1514 163.931 92.2436 164.171 92.1525 164.376C91.0471 166.866 89.3718 168.551 87.1368 169.41C84.8562 170.286 83.2268 170.309 80.9966 169.367C80.4575 171.416 79.702 173.47 78.7303 175.529C78.3561 176.39 78.0435 177.276 77.7927 178.186C79.0973 176.329 81.226 174.896 84.1612 173.892C84.4209 173.803 84.6923 173.992 84.6993 174.266C84.7741 177.221 83.9143 179.01 82.0756 179.503C81.8586 179.561 81.6357 179.433 81.5776 179.215C81.5195 178.998 81.6482 178.775 81.8651 178.717C83.1146 178.382 83.7974 177.203 83.8818 175.087L83.8884 174.854L83.694 174.928C79.9808 176.363 77.8476 178.547 77.2451 181.489L77.2087 181.678C77.1967 181.745 77.1689 181.805 77.13 181.855C76.9157 184.15 77.0453 186.585 77.5184 189.16C77.7492 186.755 78.5786 184.802 79.8947 183.271C81.2259 181.721 82.9266 180.752 84.5359 180.308C87.7961 179.619 90.2734 180.9 91.0084 183.216C91.7128 185.435 90.4859 187.68 87.9322 188.208C85.6195 188.443 84.0602 187.361 84.0645 185.654C84.0651 185.429 84.2476 185.247 84.4722 185.248C84.6967 185.248 84.8783 185.431 84.8777 185.656C84.8748 186.825 85.9755 187.589 87.8086 187.405C89.8377 186.983 90.795 185.232 90.2334 183.462C89.6306 181.563 87.5716 180.499 84.7281 181.098C83.2881 181.497 81.7273 182.386 80.5112 183.801C78.779 185.817 77.9576 188.645 78.3694 192.429C78.3771 192.5 78.3662 192.568 78.3406 192.63C78.6968 193.872 79.1269 195.144 79.6301 196.446C79.7111 196.656 79.6071 196.891 79.3976 196.972C79.1882 197.054 78.9527 196.949 78.8717 196.74C75.6671 188.448 75.3592 181.277 77.973 175.232C77.8891 175.233 77.8033 175.208 77.7297 175.154C72.8224 171.553 70.9804 167.802 72.3089 163.947C72.4 163.682 72.7241 163.586 72.944 163.759C75.1642 165.5 76.6265 167.34 77.3205 169.282C77.3962 169.494 77.2861 169.727 77.0746 169.802C76.8632 169.878 76.6305 169.768 76.5549 169.556C75.9912 167.979 74.8561 166.451 73.1425 164.975L72.9089 164.777L72.8826 164.881C72.1268 168.058 73.8013 171.196 77.9878 174.332L78.2105 174.497C78.2372 174.517 78.2607 174.539 78.2811 174.563C80.5349 169.556 81.4799 164.591 81.1146 159.663C78.3888 160.333 76.0025 160.12 74.0356 158.937C71.9836 157.703 70.6262 155.752 69.9695 153.108C69.9153 152.891 70.0478 152.67 70.2654 152.615C72.9057 151.955 75.2639 152.239 77.316 153.473C78.8399 154.389 79.9813 155.59 80.7407 157.127L80.8464 157.347L80.7793 156.941C80.1467 153.279 78.7864 149.637 76.698 146.011C74.5839 148.014 72.2448 149.087 69.6918 149.219C68.4041 149.285 67.1548 149.109 65.9732 148.741L65.7017 148.652L65.4448 148.562L65.1984 148.468L64.9628 148.372L64.7424 148.276L64.423 148.127L64.2274 148.029L64.0439 147.932L63.8727 147.837L63.7176 147.747L63.4998 147.612L63.3712 147.528L63.2076 147.414L63.1105 147.341L63.0013 147.252L62.9587 147.214L62.8915 147.146L62.8444 147.089L62.8207 147.053L62.7828 146.972L62.7618 146.904C62.7528 146.868 62.7521 146.841 62.7615 146.797L62.7743 146.747L62.8101 146.63L62.9034 146.461L62.9693 146.348L63.0802 146.17L63.1487 146.067L63.2254 145.957L63.3107 145.84L63.4047 145.718L63.5077 145.59L63.62 145.457L63.7417 145.321L63.8732 145.182L64.0102 145.045L64.2412 144.831C65.5552 143.664 67.3386 142.925 69.6545 142.831C72.8159 142.704 75.1488 143.369 76.626 144.85C81.088 140.945 84.8963 140.369 87.9205 143.239ZM75.0765 190.919C75.8911 190.919 76.5515 191.58 76.5515 192.396C76.5515 193.211 75.8911 193.872 75.0765 193.872C74.2618 193.872 73.6015 193.211 73.6015 192.396C73.6015 191.58 74.2618 190.919 75.0765 190.919ZM75.0765 191.733C74.711 191.733 74.4147 192.03 74.4147 192.396C74.4147 192.762 74.711 193.058 75.0765 193.058C75.442 193.058 75.7383 192.762 75.7383 192.396C75.7383 192.03 75.442 191.733 75.0765 191.733ZM81.6089 190.014C82.4235 190.014 83.0839 190.675 83.0839 191.49C83.0839 192.306 82.4235 192.967 81.6089 192.967C80.7942 192.967 80.1338 192.306 80.1338 191.49C80.1338 190.675 80.7942 190.014 81.6089 190.014ZM81.6089 190.828C81.2434 190.828 80.9471 191.125 80.9471 191.49C80.9471 191.856 81.2434 192.153 81.6089 192.153C81.9744 192.153 82.2707 191.856 82.2707 191.49C82.2707 191.125 81.9744 190.828 81.6089 190.828ZM57.5618 158.507C57.7282 158.657 57.741 158.915 57.5902 159.081C56.192 160.627 55.0109 162.296 54.014 164.174L53.7783 164.628C53.4353 165.306 53.1151 166.01 52.8163 166.746C53.3992 166.315 54.1785 166.185 54.8909 166.452L55.0159 166.503L55.1294 166.552L55.2286 166.591L55.3149 166.622L55.3893 166.647L55.5536 166.698L55.6302 166.726L55.6914 166.757C55.8445 166.845 55.9375 167.006 55.9108 167.223L55.8973 167.298L55.865 167.376L55.8361 167.43L55.7287 167.607L55.6645 167.724L55.6162 167.819L55.5153 168.035C55.1752 168.708 54.5318 169.134 53.8315 169.224C55.4504 169.861 56.459 171.577 56.2082 173.345L56.1455 173.727L56.1172 173.935L56.098 174.115L56.0854 174.27L56.0666 174.579L56.0535 174.696L56.0339 174.789C55.9784 174.981 55.8319 175.122 55.5931 175.145L55.5101 175.148L55.403 175.13L55.3141 175.105L54.9388 174.975L54.6919 174.901L54.4915 174.849L54.0745 174.753C52.5574 174.357 51.4738 173.051 51.2719 171.544C51.1113 172.179 50.961 172.836 50.8199 173.515L50.6916 174.151L50.6354 174.447C50.649 174.507 50.6492 174.57 50.6335 174.634C50.6059 174.747 50.5744 174.858 50.5394 174.968L50.4505 175.463C50.412 175.686 50.3743 175.911 50.3375 176.138L50.2114 176.948C50.5936 180.869 53.7852 184.015 56.9131 183.788L57.066 183.773L57.0856 183.667C57.3974 181.741 55.6372 180.106 54.0745 180.2L53.9791 180.208C53.7558 180.232 53.5555 180.07 53.5319 179.846C53.5082 179.623 53.67 179.422 53.8933 179.399C56.1066 179.164 58.5837 181.53 57.7848 184.253C57.741 184.403 57.6161 184.514 57.4628 184.54C54.3423 185.071 51.147 182.663 49.9024 179.231L49.7796 180.293L49.6779 181.261L49.6012 182.052L49.5286 182.858L49.4601 183.681L49.3954 184.52L49.337 185.344C50.7355 184.864 52.0812 184.879 53.3564 185.395C54.6937 185.936 55.7048 186.926 56.3792 188.348C56.4813 188.563 56.3778 188.82 56.155 188.903C54.6831 189.457 53.2684 189.467 51.9311 188.926C50.8059 188.471 49.9115 187.697 49.2545 186.617L49.2236 187.135L49.1735 188.041L49.1267 188.964C49.1158 189.189 48.9252 189.362 48.7009 189.351C48.4766 189.34 48.3036 189.149 48.3144 188.925L48.3618 187.991L48.4099 187.122C47.7574 188.129 46.4626 188.509 45.3306 188.013L45.2141 187.959L45.0181 187.856L44.9139 187.804L44.8215 187.761L44.7432 187.727L44.4731 187.618L44.4294 187.598L44.3733 187.566L44.3444 187.546L44.2975 187.509C44.1545 187.377 44.1205 187.199 44.1789 187.017L44.2051 186.949L44.2413 186.885L44.2978 186.799L44.3707 186.693L44.4391 186.587L44.4901 186.503L44.546 186.405L44.6697 186.177C45.2993 185.095 46.6419 184.673 47.8034 185.181L47.9189 185.235L48.1235 185.342L48.2277 185.394L48.3182 185.436L48.438 185.488L48.5099 185.516L48.5249 185.294L48.619 184.002L48.6867 183.161L48.7584 182.337L48.8343 181.528L48.9144 180.734L48.9988 179.956L49.0878 179.193L49.1813 178.444L49.2794 177.71L49.3303 177.348L49.3782 177.028C49.0823 177.382 48.7453 177.721 48.3726 178.043C47.8572 178.488 47.3067 178.873 46.756 179.197C46.6594 179.254 46.5662 179.307 46.4769 179.356L46.1652 179.52L46.0091 179.595C45.8044 179.688 45.5636 179.597 45.4713 179.392C45.379 179.187 45.4702 178.946 45.6749 178.853L45.8519 178.767C45.9997 178.691 46.165 178.601 46.3436 178.496C46.8545 178.195 47.3657 177.837 47.8412 177.427C48.7004 176.684 49.3397 175.858 49.6826 174.956L49.7449 174.78L49.822 174.364C50.0277 173.274 50.2549 172.237 50.5057 171.248C48.5354 173.611 46.5875 174.029 44.4224 172.645C44.2942 172.563 44.2225 172.416 44.2365 172.264C44.4289 170.182 45.6782 169.088 47.854 169.079C48.0786 169.078 48.2614 169.259 48.2623 169.484C48.2633 169.709 48.082 169.892 47.8574 169.893C46.2485 169.899 45.3637 170.551 45.1041 171.921L45.0759 172.09L45.0858 172.096C47.0302 173.216 48.7247 172.555 50.669 169.679L50.8945 169.338L51.0081 169.159L51.1796 168.882L51.2934 168.531L51.4775 167.988C52.7886 164.223 54.571 161.205 56.9875 158.535C57.1382 158.368 57.3953 158.356 57.5618 158.507ZM73.5903 186.134C74.405 186.134 75.0654 186.795 75.0654 187.61C75.0654 188.425 74.405 189.086 73.5903 189.086C72.7757 189.086 72.1153 188.425 72.1153 187.61C72.1153 186.795 72.7757 186.134 73.5903 186.134ZM50.4865 185.883L52.3047 186.568C52.5149 186.647 52.6212 186.882 52.5422 187.093C52.4704 187.284 52.2701 187.389 52.0764 187.347L52.0186 187.33L50.2781 186.676C50.7217 187.255 51.2588 187.701 51.8915 188.016L52.0664 188.099L52.2358 188.171C53.1465 188.54 54.0963 188.609 55.0952 188.378L55.2957 188.327L55.4315 188.288L55.3611 188.165C54.8602 187.327 54.207 186.709 53.3971 186.305L53.2211 186.222L53.0518 186.15C52.2309 185.818 51.3783 185.728 50.4865 185.883ZM73.5903 186.948C73.2248 186.948 72.9285 187.244 72.9285 187.61C72.9285 187.976 73.2248 188.272 73.5903 188.272C73.9558 188.272 74.2521 187.976 74.2521 187.61C74.2521 187.244 73.9558 186.948 73.5903 186.948ZM45.3796 186.575L45.3291 186.666L45.258 186.799L45.1913 186.915L45.134 187.009L45.2652 187.07L45.3879 187.131L45.584 187.234C46.3834 187.631 47.3209 187.361 47.7631 186.621L47.9188 186.337L48.0069 186.188L47.8764 186.128L47.7538 186.067L47.5576 185.964C46.7582 185.567 45.8207 185.837 45.3796 186.575ZM43.886 182.727C44.0452 183.417 43.6152 184.106 42.9255 184.265C42.2358 184.425 41.5476 183.994 41.3884 183.304C41.2291 182.614 41.6592 181.925 42.3489 181.765C43.0386 181.606 43.7268 182.037 43.886 182.727ZM109.723 175.074L109.771 175.076L109.842 175.09L109.884 175.104C112.06 175.981 113.462 176.986 114.08 178.15C114.926 179.743 115.234 181.481 114.866 183.253C114.819 183.48 114.592 183.622 114.368 183.565C112.454 183.078 110.996 182.069 110.11 180.591C109.375 179.362 109.11 177.728 109.302 175.693L109.33 175.423L109.338 175.381L109.355 175.329L109.378 175.282L109.4 175.247L109.436 175.203L109.475 175.166L109.52 175.134C109.544 175.119 109.569 175.108 109.594 175.099L109.642 175.084L109.698 175.076L109.723 175.074ZM68.5161 176.049L68.5731 176.05C70.5206 176.229 72.0831 176.985 73.2381 178.315C74.3598 179.607 74.8845 181.113 74.8407 182.948L74.8301 183.2L74.8198 183.254L74.8044 183.301L74.7738 183.362L74.7608 183.382L74.7388 183.411L74.6954 183.455L74.6509 183.489L74.6317 183.502L74.5738 183.53L74.5159 183.547L74.467 183.555L74.4246 183.557L74.3933 183.556C72.3851 183.371 70.8482 182.672 69.7215 181.375C68.5665 180.045 68.0359 178.391 68.1297 176.436C68.1399 176.224 68.3102 176.058 68.5161 176.049ZM42.5318 182.559C42.2797 182.617 42.1225 182.869 42.1807 183.121C42.2389 183.373 42.4905 183.531 42.7425 183.472C42.9752 183.419 43.1271 183.2 43.1033 182.968L43.0936 182.91L43.0768 182.853C42.9967 182.635 42.7645 182.505 42.5318 182.559ZM110.764 176.389L112.065 178.525C112.182 178.717 112.121 178.967 111.93 179.084C111.755 179.191 111.533 179.15 111.406 178.998L111.371 178.949L110.055 176.793C110.039 178.186 110.293 179.312 110.808 180.172C111.447 181.24 112.437 182.031 113.738 182.517L113.946 182.592L114.144 182.656L114.167 182.473C114.301 181.255 114.08 180.06 113.559 178.931L113.458 178.72L113.362 178.532C112.961 177.777 112.096 177.057 110.764 176.389ZM68.9318 176.911L68.9361 177.118C68.9826 178.585 69.449 179.821 70.3353 180.841C71.1083 181.731 72.1072 182.299 73.3827 182.58L71.1757 180.073C71.0272 179.904 71.0434 179.647 71.2119 179.499C71.3635 179.365 71.5868 179.365 71.7382 179.489L71.7858 179.535L73.9979 182.047C73.892 180.95 73.5242 180.009 72.8818 179.165L72.7497 178.998L72.6244 178.849C71.7824 177.88 70.6953 177.259 69.35 176.985L69.1354 176.944L68.9318 176.911ZM93.5815 145.076C94.9199 146.368 96.4091 148.212 97.8867 150.377L98.2892 150.976C99.4825 152.774 100.659 154.768 101.731 156.836C101.769 156.837 101.807 156.844 101.843 156.856C101.884 156.807 101.938 156.764 102.001 156.73L102.067 156.699L102.129 156.677L102.352 156.61L102.488 156.565L102.593 156.527L102.713 156.479L102.956 156.376C104.287 155.846 105.798 156.429 106.434 157.697L106.489 157.814L106.55 157.946L106.607 158.062L106.658 158.16L106.729 158.286L106.813 158.426L106.885 158.555L106.911 158.614C106.974 158.784 106.952 158.971 106.787 159.131L106.727 159.183L106.656 159.222L106.613 159.24L106.552 159.261L106.284 159.343L106.192 159.374L106.087 159.412L105.967 159.46L105.724 159.563C104.693 159.973 103.553 159.716 102.796 158.988C103.024 159.468 103.243 159.95 103.454 160.432C103.734 161.068 103.998 161.699 104.245 162.323L104.487 162.945L104.531 162.949C110.046 163.426 113.145 166.182 113.714 171.149C113.742 171.396 113.544 171.611 113.296 171.602C110.174 171.493 108.253 170.338 107.644 168.132C107.584 167.915 107.711 167.691 107.927 167.631C108.144 167.571 108.368 167.698 108.428 167.915C108.892 169.595 110.292 170.542 112.714 170.752L112.841 170.762L112.817 170.614C112.134 166.547 109.493 164.291 104.803 163.792C105.005 164.351 105.193 164.904 105.367 165.45L105.569 166.102C107.099 171.185 107.375 175.663 106.108 179.024C106.073 179.116 106.009 179.187 105.93 179.233C105.705 179.691 105.349 180.093 104.878 180.376C103.573 181.161 101.879 180.738 101.095 179.432C100.334 178.164 100.709 176.529 101.925 175.717L102.038 175.645L102.154 175.579C103.442 174.886 105.06 175.321 105.822 176.589C105.845 176.628 105.867 176.667 105.889 176.707C106.596 172.598 105.462 167.14 102.864 161.114L102.635 160.588C102.703 162.697 102.416 164.92 101.968 166.529C100.929 169.639 98.7511 170.888 96.7277 170.033C94.8147 169.224 94.1038 166.941 95.4848 165.009C95.6155 164.826 95.8694 164.784 96.0521 164.915C96.2347 165.046 96.2768 165.3 96.1461 165.483C95.0748 166.981 95.6016 168.673 97.0441 169.283C98.5948 169.938 100.298 168.962 101.191 166.291C101.78 164.174 102.079 160.837 101.574 158.326C101.402 157.976 101.225 157.628 101.046 157.281L100.687 156.597C99.7805 154.896 98.8086 153.254 97.8227 151.746L97.4278 151.15L97.0321 150.57L96.8342 150.285L96.4387 149.73C96.2412 149.456 96.0441 149.19 95.8478 148.93L95.4565 148.421C94.6115 147.341 93.7871 146.405 93.017 145.662C92.8554 145.506 92.8507 145.248 93.0065 145.086C93.1624 144.925 93.4198 144.92 93.5815 145.076ZM39.772 176.966C41.0522 177.174 42.1307 177.883 42.993 179.072C43.1248 179.254 43.0846 179.508 42.9031 179.64C41.7235 180.499 40.4828 180.832 39.2017 180.624C37.9605 180.422 36.8895 179.665 35.9929 178.428C35.8611 178.246 35.9013 177.992 36.0828 177.86C37.2231 177.03 38.4414 176.749 39.772 176.966ZM102.457 176.343C101.537 176.896 101.239 178.092 101.792 179.013C102.345 179.934 103.539 180.232 104.459 179.678C105.38 179.125 105.678 177.93 105.125 177.008C104.572 176.087 103.377 175.789 102.457 176.343ZM37.1749 178.137L37.0203 178.221L36.9108 178.286L37.0287 178.426C37.6294 179.114 38.292 179.56 39.0173 179.753L39.1737 179.79L39.332 179.82C40.048 179.936 40.7482 179.849 41.439 179.552L39.7529 179.282C39.5311 179.247 39.38 179.038 39.4154 178.816C39.4478 178.613 39.6256 178.469 39.8259 178.473L39.881 178.478L41.6378 178.758C41.1407 178.3 40.5876 177.995 39.9758 177.839L39.8076 177.8L39.6417 177.769C38.7584 177.626 37.9499 177.739 37.1749 178.137ZM52.2106 169.607L52.1959 169.799L52.1743 170.001L52.1429 170.233L52.0799 170.619C51.8798 172.085 52.7711 173.5 54.142 173.927L54.2679 173.963L54.684 174.058L54.9102 174.117L55.1873 174.2L55.2729 174.23L55.2884 174.04L55.3099 173.838L55.3414 173.606L55.3838 173.349C55.6567 171.837 54.752 170.349 53.3387 169.911L53.2164 169.876L52.8002 169.781L52.5767 169.723L52.3787 169.664L52.2106 169.607ZM37.2167 163.829L37.2638 163.875L37.3082 163.929L37.4897 164.18L37.5496 164.257L37.6203 164.344L37.7042 164.442L37.8795 164.637C38.8255 165.736 38.7692 167.374 37.7719 168.402L37.5186 168.648L37.4347 168.735L37.363 168.813L37.3022 168.882L37.1295 169.085L37.0704 169.146L37.0184 169.189C36.8693 169.3 36.6792 169.32 36.4899 169.209L36.4269 169.167L36.4039 169.146L36.3621 169.102L36.3064 169.032L36.1928 168.873L36.114 168.768L36.0104 168.639L35.9265 168.541L35.7512 168.347C34.8053 167.247 34.8615 165.609 35.8588 164.581L36.1105 164.337L36.2333 164.208L36.2985 164.136L36.5126 163.886L36.5483 163.849L36.6124 163.794C36.81 163.647 37.0392 163.674 37.2167 163.829ZM85.1458 164.218C83.7986 164.736 82.9297 165.672 82.0402 167.407L81.9412 167.603L81.7996 167.892L85.5715 166.174C85.7759 166.081 86.017 166.171 86.11 166.376C86.1946 166.562 86.1277 166.778 85.9612 166.886L85.9084 166.915L81.7726 168.8C83.4284 169.416 84.7093 169.398 86.415 168.807L86.6305 168.731L86.8454 168.65C88.6681 167.95 90.0798 166.643 91.0881 164.712L91.1985 164.495L91.2345 164.421L91.1581 164.39C89.0339 163.546 87.036 163.492 85.1458 164.218ZM52.9387 167.795L52.8935 167.878L52.798 168.082L52.7369 168.203L52.8565 168.251L52.9871 168.307C53.6347 168.595 54.3886 168.349 54.739 167.761L54.7842 167.678L54.8848 167.464L54.9406 167.352L54.8212 167.305L54.6907 167.249C54.043 166.961 53.2891 167.207 52.9387 167.795ZM36.8736 164.712L36.8295 164.762L36.6873 164.91L36.5185 165.074C35.7692 165.773 35.6814 166.922 36.288 167.718L36.361 167.808L36.5365 168.003L36.6354 168.118L36.7568 168.27L36.8433 168.176L36.9434 168.073L37.1122 167.909C37.8615 167.21 37.9493 166.061 37.3428 165.265L37.2697 165.175L37.0942 164.98L36.9968 164.867L36.913 164.764L36.8736 164.712ZM133.635 163.822C133.763 164.627 133.214 165.384 132.409 165.511C131.604 165.639 130.849 165.089 130.721 164.284C130.594 163.479 131.143 162.722 131.948 162.595C132.752 162.467 133.508 163.017 133.635 163.822ZM132.075 163.399C131.714 163.456 131.467 163.795 131.525 164.157C131.582 164.518 131.921 164.764 132.282 164.707C132.619 164.654 132.856 164.355 132.839 164.021L132.832 163.949L132.817 163.879C132.73 163.556 132.412 163.345 132.075 163.399ZM55.9875 144.459C56.1485 144.616 56.1522 144.873 55.9957 145.035C53.0553 148.062 50.1468 150.535 47.2693 152.452C48.3579 153.393 49.0133 154.534 49.2238 155.865C49.4494 157.29 49.1221 158.668 48.2518 159.979C48.1201 160.177 47.8471 160.221 47.6606 160.073C46.4282 159.095 45.6914 157.886 45.4658 156.46C45.2958 155.386 45.4398 154.339 45.8935 153.327C44.8196 153.98 43.7496 154.554 42.6838 155.049L42.7526 154.981C42.1772 155.529 41.7164 156.191 41.3691 156.97C40.4502 159.032 40.5623 160.816 41.5077 162.711C41.6081 162.912 41.5266 163.156 41.3257 163.257C41.1249 163.357 40.8806 163.276 40.7803 163.074C39.731 160.972 39.6031 158.934 40.6265 156.638C40.7695 156.317 40.9303 156.013 41.1089 155.726C38.8261 156.626 36.5623 157.165 34.3178 157.34C34.792 158.578 34.8469 159.807 34.4783 161.014C34.0566 162.394 33.1591 163.489 31.8027 164.285C31.5975 164.406 31.3331 164.325 31.2303 164.11C30.5507 162.691 30.4181 161.281 30.8398 159.9C31.1385 158.922 31.6759 158.088 32.446 157.401C31.9723 157.397 31.499 157.375 31.0265 157.336C30.9964 157.341 30.9654 157.341 30.934 157.338C28.6148 157.083 26.9856 157.984 26.2018 159.333C26.089 159.527 25.8401 159.593 25.646 159.48C25.4518 159.367 25.3859 159.118 25.4988 158.924C26.0444 157.985 26.9246 157.23 28.0857 156.82C26.6867 156.332 25.3917 155.688 24.2015 154.89L23.9064 154.688L23.7499 154.641C18.8664 153.191 13.9479 153.635 11.6665 156.74L11.5579 156.892L11.6308 156.938C13.5894 158.114 18.3272 157.891 20.0783 156.692L20.1905 156.61C20.3686 156.474 20.6239 156.507 20.7607 156.685C20.8975 156.864 20.8639 157.119 20.6858 157.256C18.6364 158.831 12.7557 159.054 10.7433 157.298C10.5946 157.168 10.5605 156.95 10.6624 156.781C11.626 155.182 13.1098 154.133 14.8967 153.561C13.7439 153.217 12.9253 152.143 12.9329 150.91L12.9439 150.571L12.9441 150.453L12.9417 150.348L12.9377 150.258L12.9208 149.995L12.9214 149.911L12.9284 149.844C12.9588 149.662 13.0817 149.515 13.2943 149.464L13.3685 149.45L13.399 149.449L13.46 149.452L13.5474 149.463L13.7363 149.498L13.864 149.518L14.0255 149.539L14.1517 149.551L14.4089 149.569C15.8376 149.7 16.9217 150.908 16.9114 152.335L16.9008 152.661L16.9014 152.836L16.9047 152.932L16.9144 153.126C18.6036 152.919 20.4577 153.04 22.3408 153.441C20.6827 151.952 19.2747 150.098 18.118 147.881C17.9801 147.616 18.1635 147.298 18.4611 147.286C24.0584 147.047 28.3325 148.849 31.2373 152.688C31.3729 152.868 31.3376 153.123 31.1586 153.259C30.9796 153.394 30.7246 153.359 30.589 153.18C28.0027 149.761 24.2721 148.062 19.358 148.079L19.1504 148.081L19.2942 148.334C20.5821 150.568 22.153 152.375 24.0029 153.757L24.2671 153.95L24.2768 153.954C24.3254 153.976 24.3679 154.008 24.4029 154.045C25.6581 154.925 27.0363 155.615 28.5361 156.118L28.8109 156.208C33.0663 157.064 37.422 156.505 41.8799 154.524L42.2134 154.373L42.2391 154.352C42.2883 154.318 42.3433 154.296 42.4 154.285C44.4222 153.34 46.4649 152.103 48.5288 150.573C47.7526 150.616 46.9605 150.473 46.1977 150.074C45.4269 149.672 44.745 149.027 44.1755 148.118C44.0562 147.927 44.1138 147.676 44.304 147.557C44.4943 147.437 44.7452 147.495 44.8644 147.685C45.3588 148.475 45.934 149.018 46.5738 149.353C47.5108 149.842 48.5186 149.86 49.4622 149.594L49.5519 149.568L49.7074 149.517L49.8286 149.472L49.9134 149.436C49.9559 149.415 50.0001 149.403 50.0444 149.399C51.5393 148.194 53.0452 146.837 54.5621 145.328L55.1288 144.758C55.2234 144.661 55.318 144.565 55.4126 144.467C55.5691 144.306 55.8265 144.302 55.9875 144.459ZM143.725 143.773C143.913 143.808 144.051 143.969 144.057 144.161C144.172 148.187 141.901 151.145 137.325 153.002C139.826 153.252 142.017 153.964 143.32 155.095C145.716 157.418 146.003 160.161 144.439 162.018C142.946 163.79 140.369 163.984 138.508 162.164C137.02 160.376 137.044 158.477 138.461 157.526C138.647 157.401 138.9 157.45 139.025 157.637C139.15 157.824 139.1 158.077 138.914 158.202C137.944 158.853 137.927 160.194 139.104 161.612C140.592 163.064 142.623 162.911 143.817 161.493C145.093 159.979 144.856 157.717 142.771 155.694C141.115 154.258 137.678 153.552 134.096 153.748C133.262 153.865 132.436 153.959 131.617 154.029C131.339 154.077 131.063 154.131 130.789 154.191C130.695 154.211 130.602 154.198 130.522 154.158C130.456 154.163 130.389 154.151 130.327 154.123C127.529 154.285 124.814 154.178 122.183 153.802L122.11 153.648C122.285 153.997 122.426 154.372 122.531 154.773C123.711 156.029 124.315 157.484 124.332 159.119C124.35 160.79 123.752 162.339 122.551 163.753C122.395 163.936 122.116 163.945 121.949 163.772C120.712 162.496 120.078 161.01 120.061 159.334C120.045 157.803 120.546 156.373 121.555 155.057L121.711 154.859C121.625 154.558 121.515 154.276 121.383 154.014C121.319 153.886 121.25 153.762 121.176 153.642C118.579 153.201 116.064 152.49 113.634 151.513C114.259 152.273 114.377 153.347 113.873 154.21L113.804 154.322L113.709 154.47L113.659 154.555L113.617 154.631L113.582 154.697L113.481 154.9L113.441 154.967L113.403 155.018C113.287 155.156 113.111 155.217 112.908 155.157L112.839 155.133L112.815 155.12L112.765 155.089L112.702 155.041L112.574 154.935L112.487 154.865L112.374 154.781L112.284 154.718L112.095 154.593C111.047 153.866 110.729 152.484 111.353 151.423L111.512 151.171L111.585 151.045L111.622 150.976L111.754 150.716L111.764 150.701C108.367 149.115 105.14 146.988 102.084 144.322C101.915 144.174 101.897 143.917 102.045 143.748C102.193 143.578 102.449 143.561 102.619 143.708C105.783 146.469 109.13 148.639 112.663 150.217C113.913 150.635 115.064 150.384 116.091 149.697C116.329 149.538 116.539 149.368 116.72 149.198L116.829 149.091L116.928 148.985C117.073 148.814 117.329 148.792 117.501 148.938C117.672 149.083 117.694 149.34 117.549 149.511C117.359 149.735 117.019 150.055 116.543 150.374C116.018 150.725 115.459 150.982 114.873 151.12C116.965 151.893 119.119 152.469 121.336 152.845C121.196 151.352 121.488 149.948 122.211 148.643C123.019 147.185 124.215 146.118 125.788 145.45C126.032 145.347 126.307 145.5 126.349 145.761C126.617 147.451 126.346 149.032 125.539 150.489C124.936 151.579 124.115 152.45 123.081 153.1C125.437 153.386 127.863 153.455 130.357 153.306L130.721 152.924L130.887 152.754L131.206 152.433C131.31 152.33 131.411 152.232 131.51 152.138L131.797 151.87L132.069 151.628C132.376 151.361 132.65 151.147 132.893 150.987C133.534 150.563 134.366 150.095 135.392 149.581C135.593 149.481 135.837 149.562 135.937 149.763C136.038 149.964 135.957 150.208 135.756 150.309C135.589 150.392 135.428 150.475 135.273 150.555L134.822 150.793C134.242 151.106 133.748 151.397 133.341 151.666C132.936 151.934 132.408 152.389 131.762 153.028L131.581 153.209C132.392 153.072 133.214 152.981 134.03 152.936C134.583 152.858 135.139 152.77 135.699 152.672L136.064 152.607L136.281 152.53C140.902 150.868 143.196 148.228 143.247 144.573L143.246 144.514L143.066 144.484C138.102 143.688 134.664 145.081 132.661 148.664L132.56 148.848C132.454 149.046 132.208 149.12 132.01 149.014C131.812 148.908 131.737 148.662 131.843 148.464C134.077 144.284 138.073 142.719 143.725 143.773ZM33.6854 157.997L33.052 160.377C32.9943 160.594 32.7716 160.723 32.5546 160.666C32.3573 160.613 32.2326 160.424 32.2549 160.227L32.2661 160.168L32.7906 158.194C32.2351 158.745 31.8455 159.392 31.6175 160.138C31.3303 161.079 31.3436 162.032 31.6613 163.008L31.7289 163.203L31.78 163.335L31.8961 163.254C32.6869 162.682 33.2445 161.976 33.576 161.134L33.6436 160.951L33.7007 160.776C33.979 159.865 33.975 158.941 33.6854 157.997ZM121.918 155.945L121.8 156.127C121.169 157.135 120.862 158.199 120.874 159.326C120.887 160.527 121.259 161.61 121.998 162.585L122.132 162.756L122.222 162.862L122.341 162.701C123.056 161.705 123.443 160.652 123.509 159.537L123.518 159.327L123.519 159.128C123.509 158.148 123.259 157.247 122.767 156.419C122.789 156.977 122.761 157.572 122.685 158.204C122.658 158.427 122.456 158.587 122.233 158.56C122.01 158.533 121.851 158.33 121.878 158.107C121.973 157.316 121.986 156.596 121.918 155.945ZM65.8455 150.884L65.875 150.884L65.9111 150.888L65.9568 150.898L65.991 150.909L66.0214 150.922L66.0824 150.957L66.1386 151.004L66.1648 151.034L66.1865 151.063L66.2082 151.099C67.0331 152.701 67.2085 154.262 66.7252 155.764C66.2571 157.219 65.1486 158.36 63.4881 159.197C63.2889 159.298 63.046 159.219 62.9438 159.02C62.15 157.479 62.0337 155.956 62.5364 154.394C63.0005 152.951 63.9877 151.825 65.4777 151.025L65.6838 150.919L65.717 150.906L65.7919 150.888L65.8455 150.884ZM71.1851 153.248L70.9463 153.295L70.8661 153.312L70.8882 153.391C71.4851 155.426 72.549 156.958 74.0842 158.002L74.2706 158.125L74.4545 158.239C75.9898 159.163 77.8306 159.429 79.9493 159.074L75.7917 157.022C75.5903 156.922 75.5075 156.678 75.6068 156.477C75.6971 156.294 75.9067 156.208 76.0955 156.269L76.1513 156.292L80.3923 158.384C79.7819 156.69 78.7515 155.396 77.2842 154.416L77.0904 154.29L76.8971 154.17C75.2236 153.164 73.3255 152.855 71.1851 153.248ZM47.408 153.75L47.8128 156.312C47.8479 156.534 47.6966 156.743 47.4748 156.778C47.2715 156.81 47.0795 156.686 47.0219 156.494L47.0096 156.44L46.5868 153.772C46.2352 154.606 46.1306 155.458 46.269 156.333C46.4227 157.304 46.8521 158.155 47.5651 158.893L47.7114 159.039L47.8152 159.135L47.8841 159.011C48.3441 158.15 48.5364 157.271 48.4653 156.368L48.446 156.174L48.4206 155.992C48.2885 155.157 47.9526 154.411 47.408 153.75ZM103.368 157.091L103.265 157.129L103.032 157.228L102.883 157.287L102.756 157.334L102.712 157.348L102.737 157.392L102.83 157.572L102.897 157.713L102.979 157.889C103.418 158.742 104.414 159.147 105.312 158.848L105.415 158.81L105.657 158.707L105.797 158.652L105.967 158.59L105.944 158.549L105.882 158.432L105.816 158.297L105.749 158.15C105.339 157.23 104.3 156.781 103.368 157.091ZM99.1323 156.542C99.5519 157.241 99.326 158.148 98.6277 158.568C97.9294 158.988 97.0232 158.762 96.6036 158.063C96.2015 157.393 96.3923 156.532 97.0235 156.092L97.1083 156.037L97.1966 155.988C97.8813 155.637 98.7302 155.872 99.1323 156.542ZM130.432 154.161L130.488 154.165L130.559 154.178L130.641 154.203L130.885 154.297L130.962 154.324L131.051 154.352L131.155 154.383L131.371 154.44C132.586 154.794 133.32 156.022 133.075 157.256L133.048 157.375L133.034 157.434L133.009 157.547L132.989 157.647L132.974 157.735L132.962 157.811L132.932 158.04L132.917 158.116L132.898 158.176C132.835 158.346 132.689 158.464 132.474 158.474L132.4 158.474L132.374 158.47L132.314 158.455L132.239 158.43L132.086 158.37L131.983 158.332L131.851 158.289L131.747 158.258L131.531 158.201C130.316 157.847 129.582 156.619 129.826 155.39L129.893 155.097L129.921 154.949L129.934 154.869L129.974 154.574L129.985 154.525L130.004 154.465C130.045 154.353 130.116 154.272 130.203 154.222L130.27 154.189C130.302 154.176 130.336 154.167 130.374 154.163L130.432 154.161ZM65.0594 152.248C64.1993 152.886 63.6196 153.683 63.3105 154.643C62.9517 155.759 62.9544 156.834 63.3512 157.929L63.4254 158.122L63.4891 158.274L63.6836 158.161C64.7222 157.534 65.4423 156.764 65.828 155.847L65.8964 155.673L65.9511 155.514C66.2757 154.505 66.2535 153.465 65.8787 152.382L64.971 154.828C64.8928 155.038 64.6588 155.146 64.4483 155.067C64.2569 154.996 64.1509 154.796 64.1919 154.602L64.2087 154.544L65.0594 152.248ZM97.5272 156.735C97.2138 156.923 97.1125 157.33 97.3007 157.644C97.489 157.957 97.8955 158.059 98.2089 157.87C98.5222 157.682 98.6236 157.275 98.4353 156.961C98.247 156.648 97.8405 156.546 97.5272 156.735ZM130.72 155.1L130.689 155.264L130.622 155.559C130.475 156.344 130.917 157.118 131.651 157.385L131.749 157.416L131.965 157.474L132.091 157.511L132.182 157.54L132.213 157.38L132.242 157.249L132.259 157.18C132.464 156.361 132.015 155.531 131.247 155.255L131.153 155.225L130.937 155.167L130.813 155.131L130.72 155.1ZM149.725 155.112C149.853 155.917 149.304 156.674 148.499 156.801C147.694 156.929 146.939 156.379 146.811 155.574C146.684 154.769 147.233 154.012 148.038 153.885C148.842 153.757 149.598 154.307 149.725 155.112ZM148.165 154.689C147.804 154.746 147.557 155.085 147.615 155.447C147.672 155.808 148.011 156.055 148.372 155.997C148.733 155.94 148.979 155.601 148.922 155.239C148.865 154.878 148.526 154.631 148.165 154.689ZM5.16052 149.754C6.54613 150.126 7.54163 150.947 8.52325 152.401L8.64593 152.586L8.83624 152.886L8.92938 153.038C8.94312 153.06 8.95442 153.083 8.96337 153.107L8.98187 153.172L8.98889 153.229L8.98724 153.293L8.98132 153.331L8.97662 153.352C8.96261 153.406 8.93735 153.458 8.90179 153.503L8.85906 153.549L8.82012 153.581L8.77612 153.609L8.49993 153.758L8.22595 153.901C6.38776 154.84 4.94685 155.109 3.37817 154.571C2.27514 154.193 1.62915 153.721 1.05139 152.922L0.955683 152.785L0.82464 152.587L0.781733 152.519L0.559259 152.155L0.211176 151.565L0.0580387 151.309C-0.0606913 151.111 0.00881891 150.854 0.211115 150.743C2.15921 149.673 3.59194 149.334 5.16052 149.754ZM97.198 152.254C97.6176 152.953 97.3916 153.86 96.6934 154.28C95.9951 154.7 95.0889 154.474 94.6693 153.775C94.2672 153.105 94.458 152.244 95.0892 151.804L95.1739 151.749L95.2623 151.7C95.9469 151.349 96.7959 151.585 97.198 152.254ZM112.287 151.455L112.207 151.593L112.101 151.76C111.654 152.437 111.818 153.343 112.464 153.855L112.55 153.919L112.739 154.044L112.848 154.12L112.935 154.185L113.015 154.047L113.121 153.88C113.568 153.202 113.404 152.297 112.759 151.785L112.672 151.72L112.483 151.595L112.376 151.521L112.287 151.455ZM1.18469 151.152L0.974665 151.258L1.25756 151.737L1.38586 151.95L1.50604 152.143L1.63049 152.331C2.13191 153.065 2.64443 153.46 3.64153 153.801C4.8455 154.214 5.97475 154.06 7.41888 153.39L4.97058 152.8C4.75224 152.747 4.61779 152.528 4.67028 152.309C4.7184 152.109 4.90688 151.979 5.10613 151.999L5.16064 152.008L7.68176 152.615C6.9408 151.577 6.20553 150.962 5.26061 150.636L5.10113 150.584L4.95007 150.541C3.77219 150.225 2.66436 150.42 1.18469 151.152ZM95.5928 152.447C95.2795 152.635 95.1781 153.042 95.3664 153.356C95.5546 153.67 95.9612 153.771 96.2745 153.583C96.5878 153.394 96.6892 152.987 96.501 152.674C96.3127 152.36 95.9061 152.258 95.5928 152.447ZM13.7542 150.325L13.7572 150.443L13.7569 150.585L13.7464 150.924C13.7484 151.886 14.456 152.703 15.3954 152.843L15.5007 152.855L15.7582 152.873L15.905 152.887L16.0898 152.91L16.0876 152.653L16.0983 152.311C16.0962 151.349 15.3886 150.532 14.4492 150.393L14.3439 150.38L14.0864 150.362L13.9372 150.348L13.7542 150.325ZM125.61 146.432L125.496 146.492C124.389 147.088 123.533 147.935 122.923 149.037C122.35 150.071 122.082 151.169 122.118 152.337L122.129 152.571L122.14 152.7L122.254 152.64C123.227 152.117 124.005 151.4 124.594 150.485L124.718 150.287L124.828 150.095C125.4 149.061 125.668 147.963 125.632 146.795L125.621 146.561L125.61 146.432ZM39.0162 150.383L39.11 150.707L39.1647 150.873L39.1973 150.963L39.3312 151.314L39.3498 151.396C39.3863 151.639 39.2555 151.829 39.0353 151.912L38.9731 151.932L38.905 151.946L38.6038 151.988L38.509 152.004L38.4008 152.026L38.277 152.053L38.027 152.116C36.6287 152.433 35.2261 151.621 34.7961 150.27L34.7015 149.943L34.6651 149.83L34.6306 149.732L34.5989 149.647L34.5017 149.402L34.4765 149.323L34.4623 149.257C34.4349 149.073 34.5066 148.896 34.6928 148.781L34.7592 148.745L34.7879 148.735L34.8466 148.719L34.9332 148.702L35.1237 148.677L35.2516 148.657L35.4115 148.627L35.5381 148.598L35.7853 148.536C37.1836 148.22 38.5862 149.032 39.0162 150.383ZM82.9898 149.047L82.8575 149.079L82.7231 149.108L82.5781 149.134L82.4189 149.162C81.4333 149.358 80.7642 150.275 80.8665 151.269L80.9133 151.612L80.9276 151.748L80.9365 151.863L81.1345 151.817L81.276 151.789L81.5079 151.748C82.4935 151.552 83.1626 150.635 83.0598 149.638L83.0458 149.531L83.0228 149.371L83.0055 149.226L82.9898 149.047ZM153.375 146.35C153.597 146.417 153.718 146.655 153.642 146.874C152.997 148.722 151.886 150.057 150.317 150.857C148.811 151.625 147.155 151.762 145.368 151.272L145.114 151.197L145.078 151.181L145.036 151.157L145.006 151.135L144.989 151.12L144.954 151.085L144.944 151.073C144.927 151.052 144.912 151.028 144.899 151.003L144.877 150.95L144.86 150.882L144.855 150.823L144.856 150.781L144.86 150.753L144.87 150.71L144.887 150.66C145.532 148.824 146.64 147.498 148.202 146.701C149.771 145.901 151.502 145.786 153.375 146.35ZM36.078 149.308L35.9739 149.328L35.7333 149.389L35.5773 149.424L35.3964 149.458L35.4355 149.57L35.4789 149.705L35.5431 149.928C35.8041 150.903 36.7631 151.509 37.7342 151.345L37.8383 151.325L38.0887 151.262L38.2326 151.229L38.4158 151.194L38.3965 151.14L38.3332 150.948L38.2385 150.622C37.9396 149.708 37.0144 149.149 36.078 149.308ZM148.571 147.426C147.493 147.976 146.663 148.813 146.076 149.946L149.075 148.416C149.275 148.314 149.52 148.394 149.622 148.594C149.715 148.776 149.657 148.995 149.496 149.11L149.444 149.142L146.444 150.671C147.564 150.841 148.607 150.717 149.582 150.303L149.776 150.216L149.948 150.132C151.092 149.548 151.957 148.643 152.548 147.402L152.639 147.204L152.719 147.015L152.519 146.968C151.086 146.659 149.775 146.813 148.571 147.426ZM99.8536 146.264L99.8863 146.323L99.909 146.378L99.9954 146.614L100.03 146.698L100.074 146.795L100.177 147.009C100.64 148.042 100.242 149.255 99.2742 149.814L99.0627 149.927L98.9698 149.98L98.8913 150.027L98.8254 150.07L98.6825 150.166L98.6121 150.207L98.5502 150.236C98.3854 150.299 98.2018 150.27 98.0496 150.113L98.0001 150.055L97.9596 149.981L97.9363 149.925L97.8661 149.729L97.8162 149.606L97.7723 149.508L97.6687 149.295C97.2055 148.262 97.6039 147.049 98.5718 146.49L98.6739 146.434L98.7833 146.377L98.8761 146.324L98.9546 146.276L99.0206 146.234L99.1699 146.134L99.2203 146.104L99.2831 146.074L99.3605 146.048C99.5781 145.997 99.7481 146.094 99.8536 146.264ZM94.5244 148.003C94.944 148.702 94.718 149.609 94.0198 150.029C93.3215 150.449 92.4153 150.223 91.9957 149.524C91.5761 148.825 91.8021 147.918 92.5004 147.498C93.1986 147.078 94.1048 147.304 94.5244 148.003ZM92.9192 148.196C92.6059 148.384 92.5045 148.791 92.6927 149.105C92.881 149.419 93.2876 149.52 93.6009 149.332C93.9143 149.143 94.0156 148.736 93.8273 148.423C93.6391 148.109 93.2325 148.008 92.9192 148.196ZM99.2858 147.027L99.1741 147.09L99.0485 147.157C98.4169 147.479 98.1339 148.22 98.37 148.863L98.4054 148.95L98.5087 149.163L98.5597 149.277L98.6719 149.214L98.7974 149.147C99.4291 148.825 99.7121 148.083 99.476 147.441L99.4406 147.354L99.3373 147.141L99.2858 147.027ZM69.6872 143.645C67.6433 143.727 66.0808 144.345 64.9226 145.317L64.7855 145.435L64.6426 145.566L64.4562 145.75L64.3403 145.872L64.2331 145.992L64.1345 146.108L64.0442 146.22L63.962 146.327L63.8878 146.429L63.8212 146.525L63.7639 146.611L63.6774 146.749L63.8265 146.854L63.9378 146.927L64.0663 147.007L64.2738 147.129L64.4302 147.216L64.5986 147.305L64.7787 147.395L64.9742 147.488L65.2776 147.621L65.4959 147.71L65.7243 147.797L65.9674 147.883C67.1306 148.278 68.3711 148.472 69.6498 148.406C71.849 148.292 73.8799 147.419 75.7518 145.774L75.9591 145.588L76.0892 145.466L76.0079 145.384C74.7075 144.114 72.6094 143.527 69.6872 143.645ZM117.313 120.676C117.914 120.676 118.399 120.942 118.766 121.482C119.142 122.014 119.329 122.711 119.329 123.563C119.329 124.416 119.142 125.113 118.766 125.652C118.399 126.184 117.914 126.45 117.313 126.45C116.711 126.45 116.226 126.184 115.851 125.652C115.484 125.113 115.296 124.416 115.296 123.563C115.296 122.711 115.484 122.014 115.851 121.482C116.226 120.942 116.711 120.676 117.313 120.676ZM49.6764 120.676C50.5698 120.676 51.2504 121.053 51.59 121.717L51.6384 121.819L51.2007 122.124C50.9115 121.475 50.3877 121.146 49.6686 121.146C49.2934 121.146 48.9808 121.248 48.7385 121.443C48.4962 121.639 48.3712 121.889 48.3712 122.194C48.3712 122.539 48.5275 122.773 48.8714 122.938L48.9499 122.973L49.0358 123.008L49.1351 123.043L49.2543 123.08L49.484 123.143L50.0432 123.282L50.2571 123.339L50.511 123.412L50.6358 123.452L50.6848 123.47C50.8411 123.524 50.974 123.587 51.0912 123.657C51.5055 123.908 51.7087 124.275 51.7087 124.8C51.7087 125.277 51.5212 125.676 51.146 125.989C50.7708 126.294 50.3018 126.45 49.739 126.45C49.2388 126.45 48.7854 126.333 48.3712 126.098C48.0099 125.89 47.7412 125.619 47.5707 125.293L47.5113 125.167L47.9568 124.823C48.2773 125.543 48.9417 125.981 49.7468 125.981C50.1611 125.981 50.505 125.879 50.7707 125.668C51.0365 125.457 51.1694 125.175 51.1694 124.839C51.1694 124.455 51.0053 124.197 50.6222 124.009C50.5363 123.97 50.4269 123.923 50.3018 123.884L50.1888 123.851L49.9463 123.785L49.4864 123.673L49.2578 123.614L49.0643 123.561L48.9061 123.514C48.8826 123.507 48.8607 123.5 48.8401 123.493C48.676 123.43 48.5353 123.36 48.418 123.29C48.035 123.047 47.8474 122.711 47.8474 122.233C47.8474 121.78 48.0194 121.404 48.3633 121.115C48.7151 120.825 49.1527 120.676 49.6764 120.676ZM95.7305 120.755V124.229C95.7305 125.363 96.1604 125.942 97.0358 125.942C97.8776 125.942 98.3075 125.407 98.3393 124.357L98.3412 124.229V120.755H98.8805V124.252C98.8805 125.684 98.2239 126.45 97.0358 126.45C95.8873 126.45 95.2355 125.734 95.1934 124.393L95.1912 124.252V120.755H95.7305ZM63.3585 120.676C64.1958 120.676 64.8186 121.17 65.1106 122.056L65.1484 122.179L64.6482 122.359C64.4606 121.6 63.9916 121.162 63.3663 121.162C62.8895 121.162 62.5065 121.381 62.2095 121.827C61.9203 122.273 61.7717 122.852 61.7717 123.563C61.7717 124.283 61.9124 124.862 62.2017 125.308C62.4909 125.746 62.866 125.965 63.3428 125.965C63.7415 125.965 64.0698 125.793 64.3121 125.441C64.5301 125.124 64.6533 124.706 64.6814 124.198L64.6872 124.025H63.2568V123.548H65.1797V126.372H64.7342V125.332C64.5388 126.012 63.9916 126.45 63.3116 126.45C62.7019 126.45 62.2016 126.184 61.8108 125.645C61.42 125.105 61.2246 124.416 61.2246 123.571C61.2246 122.726 61.4278 122.03 61.8265 121.49C62.2251 120.95 62.741 120.676 63.3585 120.676ZM83.4711 120.676C84.3644 120.676 85.045 121.053 85.3846 121.717L85.433 121.819L84.9953 122.124C84.7061 121.475 84.1824 121.146 83.4632 121.146C83.0881 121.146 82.7754 121.248 82.5331 121.443C82.2908 121.639 82.1658 121.889 82.1658 122.194C82.1658 122.539 82.3221 122.773 82.666 122.938L82.7446 122.973L82.8304 123.008L82.9297 123.043L83.0489 123.08L83.2786 123.143L83.8378 123.282L84.0517 123.339L84.2299 123.389L84.3725 123.433L84.4794 123.47C84.6357 123.524 84.7686 123.587 84.8859 123.657C85.3001 123.908 85.5033 124.275 85.5033 124.8C85.5033 125.277 85.3158 125.676 84.9406 125.989C84.5654 126.294 84.0964 126.45 83.5336 126.45C83.0334 126.45 82.58 126.333 82.1658 126.098C81.8045 125.89 81.5358 125.619 81.3653 125.293L81.306 125.167L81.7515 124.823C82.0719 125.543 82.7363 125.981 83.5414 125.981C83.9557 125.981 84.2997 125.879 84.5654 125.668C84.8312 125.457 84.964 125.175 84.964 124.839C84.964 124.455 84.7999 124.197 84.4169 124.009C84.3309 123.97 84.2215 123.923 84.0964 123.884L83.9124 123.831L83.6403 123.76L83.2811 123.673L83.0524 123.614L82.8589 123.561L82.7007 123.514C82.6772 123.507 82.6553 123.5 82.6348 123.493C82.4706 123.43 82.3299 123.36 82.2126 123.29C81.8296 123.047 81.642 122.711 81.642 122.233C81.642 121.78 81.814 121.404 82.158 121.115C82.5097 120.825 82.9474 120.676 83.4711 120.676ZM68.8199 120.755L71.2586 125.339V120.755H71.7745V126.372H71.2664L68.7417 121.608V126.372H68.2258V120.755H68.8199ZM112.492 120.755V121.232H110.827V125.895H112.492V126.372H108.607V125.895H110.28V121.232H108.607V120.755H112.492ZM103.123 120.755C103.959 120.755 104.615 121.005 105.092 121.514C105.569 122.014 105.811 122.695 105.811 123.563C105.811 124.432 105.569 125.113 105.092 125.621C104.647 126.089 104.046 126.338 103.287 126.369L103.123 126.372H102.02V120.755H103.123ZM92.4733 120.755V121.232H90.5505V126.372H90.0033V121.232H88.0805V120.755H92.4733ZM58.4208 120.755V121.232H56.7559V125.895H58.4208V126.372H54.536V125.895H56.2087V121.232H54.536V120.755H58.4208ZM44.817 120.755V121.232H41.7294V123.227H44.3714V123.704H41.7294V125.895H44.817V126.372H41.1901V120.755H44.817ZM35.5333 120.755C36.3697 120.755 37.0262 121.005 37.503 121.514C37.9799 122.014 38.2222 122.695 38.2222 123.563C38.2222 124.432 37.9799 125.113 37.503 125.621C37.058 126.089 36.4564 126.338 35.6982 126.369L35.5333 126.372H34.4312V120.755H35.5333ZM117.313 121.162C116.867 121.162 116.508 121.381 116.234 121.819C115.968 122.257 115.835 122.836 115.835 123.563C115.835 124.291 115.968 124.87 116.234 125.308C116.508 125.746 116.867 125.965 117.313 125.965C117.758 125.965 118.118 125.746 118.391 125.308C118.665 124.862 118.798 124.283 118.798 123.563C118.798 122.844 118.665 122.265 118.391 121.827C118.118 121.381 117.758 121.162 117.313 121.162ZM35.5255 121.232H34.9705V125.895H35.5333C36.8778 125.895 37.6829 125.011 37.6829 123.563C37.6829 122.146 36.9272 121.287 35.6506 121.235L35.5255 121.232ZM103.115 121.232H102.56V125.895H103.123C104.467 125.895 105.272 125.011 105.272 123.563C105.272 122.146 104.517 121.287 103.24 121.235L103.115 121.232ZM120.57 83.9256L126.809 98.6584C127.036 99.1625 127.345 99.5771 127.735 99.9024C128.086 100.195 128.502 100.382 128.985 100.464L129.148 100.488V101H122.057V100.488C122.723 100.488 123.251 100.345 123.641 100.061C124.031 99.7763 124.226 99.3901 124.226 98.9023C124.226 98.7072 124.178 98.4881 124.082 98.2452L122.763 95.0484H116.135L114.941 97.951C114.795 98.2925 114.722 98.6015 114.722 98.8779C114.722 99.3983 114.937 99.7926 115.367 100.061C115.762 100.307 116.297 100.447 116.971 100.481L117.159 100.488V101H111.505V100.488C112.139 100.39 112.642 100.163 113.016 99.8048C113.352 99.4828 113.656 99.0357 113.926 98.4635L114.015 98.2681L120.058 83.9256H120.57ZM97.6779 83.9256L107.889 97.3168V86.6575C107.889 86.0721 107.714 85.5721 107.365 85.1574C107.044 84.7773 106.659 84.5578 106.21 84.4987L106.085 84.4866L104.818 84.4379V83.9256H111.373V84.4379L110.496 84.4866C109.96 84.5029 109.517 84.7184 109.168 85.133C108.848 85.5131 108.674 85.9718 108.648 86.5091L108.644 86.6575V101H107.864L96.7519 86.6575V98.2681C96.7519 98.8372 96.9306 99.3332 97.288 99.756C97.6156 100.144 97.9979 100.367 98.4347 100.427L98.5552 100.439L99.798 100.488V101H93.2916V100.488L94.1932 100.439C94.713 100.423 95.1477 100.203 95.4969 99.7804C95.8171 99.3928 95.9905 98.937 96.0172 98.4128L96.0209 98.2681V86.0965L95.6553 85.6331C95.3304 85.2103 94.9649 84.9135 94.5587 84.7428C94.1932 84.5891 93.7158 84.4914 93.1266 84.4497L92.926 84.4379V83.9256H97.6779ZM90.5581 83.9256V84.4379L89.5346 84.4866C88.9985 84.5192 88.5801 84.6818 88.2796 84.9745C88.0064 85.2406 87.8574 85.594 87.8325 86.0348L87.8288 86.1697V98.7559C87.8288 99.26 87.979 99.6584 88.2796 99.9511C88.5528 100.217 88.9167 100.376 89.3711 100.427L89.5102 100.439L90.5581 100.488V101H82.7356V100.488L83.7835 100.439C84.3034 100.406 84.7136 100.244 85.0142 99.9511C85.2874 99.6851 85.4364 99.3316 85.4612 98.8908L85.465 98.7559V86.1697C85.465 85.6656 85.3147 85.2672 85.0142 84.9745C84.7409 84.7084 84.3704 84.5498 83.9025 84.4987L83.7591 84.4866L82.7356 84.4379V83.9256H90.5581ZM74.1585 83.9256V84.4379L73.3787 84.4866C72.8426 84.5192 72.4243 84.6818 72.1237 84.9745C71.8505 85.2406 71.7014 85.594 71.6766 86.0348L71.6728 86.1697V98.634C71.6728 99.2031 71.8475 99.6584 72.1968 99.9999C72.517 100.313 72.9362 100.483 73.4543 100.509L73.598 100.512H75.3282C77.9233 100.512 79.6135 98.8333 80.3987 95.4756L80.4457 95.2679H81.0062L80.3726 101H66.8235V100.488L67.6276 100.439C68.1637 100.406 68.578 100.244 68.8704 99.9511C69.1363 99.6851 69.2813 99.3316 69.3055 98.8908L69.3091 98.7559V86.1697C69.3091 85.6656 69.1588 85.2672 68.8583 84.9745C68.585 84.7084 68.2145 84.5498 67.7466 84.4987L67.6033 84.4866L66.8235 84.4379V83.9256H74.1585ZM56.703 83.9256L62.9415 98.6584C63.1689 99.1625 63.4776 99.5771 63.8675 99.9024C64.2184 100.195 64.6351 100.382 65.1176 100.464L65.2809 100.488V101H58.1895V100.488C58.8556 100.488 59.3836 100.345 59.7735 100.061C60.1634 99.7763 60.3583 99.3901 60.3583 98.9023C60.3583 98.7072 60.3106 98.4881 60.2151 98.2452L58.8962 95.0484H52.2679L51.0738 97.951C50.9276 98.2925 50.8545 98.6015 50.8545 98.8779C50.8545 99.3983 51.0697 99.7926 51.5002 100.061C51.8949 100.307 52.4295 100.447 53.1039 100.481L53.2914 100.488V101H47.6378V100.488C48.2713 100.39 48.775 100.163 49.1486 99.8048C49.4849 99.4828 49.7883 99.0357 50.0588 98.4635L50.1478 98.2681L56.1913 83.9256H56.703ZM30.6453 83.9256L36.0552 97.9022L41.392 83.9256H46.0951V84.4379L45.291 84.4866C44.7549 84.5192 44.3406 84.6818 44.0482 84.9745C43.7823 85.2406 43.6373 85.5873 43.6132 86.0147L43.6096 86.1453V98.7559C43.6096 99.26 43.7557 99.6584 44.0482 99.9511C44.314 100.217 44.6806 100.376 45.1478 100.427L45.291 100.439L46.0951 100.488V101H38.7601V100.488L39.5643 100.439C40.1004 100.406 40.5147 100.244 40.8071 99.9511C41.073 99.6851 41.218 99.3316 41.2421 98.8908L41.2457 98.7559V86.4136L35.5435 100.732H34.7393L28.6957 85.6087V98.2681C28.6957 98.8535 28.8704 99.3535 29.2197 99.7682C29.5399 100.148 29.9249 100.368 30.3748 100.427L30.4991 100.439L31.6931 100.488V101H25.2354V100.488L26.1614 100.439C26.665 100.423 27.0915 100.203 27.4408 99.7804C27.761 99.3928 27.9344 98.937 27.9611 98.4128L27.9647 98.2681V86.1453C27.9647 85.6575 27.8185 85.2672 27.5261 84.9745C27.2602 84.7084 26.8937 84.5498 26.4264 84.4987L26.2833 84.4866L25.4791 84.4379V83.9256H30.6453ZM119.401 87.0478L116.354 94.5117H122.52L119.401 87.0478ZM55.5333 87.0478L52.4872 94.5117H58.6525L55.5333 87.0478ZM30.094 48.4381C31.5838 49.5567 32.4824 50.9898 32.7748 52.7209C33.0543 54.3751 32.7308 56.0067 31.8127 57.6015L31.7937 57.6328C31.935 57.936 32.097 58.2148 32.2798 58.4692C32.37 58.5947 32.4641 58.7147 32.5621 58.8291C35.3612 58.8605 38.116 59.1899 40.8267 59.8163C40.01 59.137 39.689 58.0135 40.0837 57.0136L40.2062 56.7284L40.2444 56.6314L40.3011 56.4706L40.3728 56.2444L40.4028 56.17L40.4327 56.1126C40.4559 56.0742 40.4834 56.0399 40.5144 56.0104L40.5635 55.9697L40.5889 55.9508C40.6317 55.9215 40.6821 55.9004 40.7399 55.8907L40.8 55.885L40.8663 55.887L40.934 55.8978L40.9747 55.9094L41.0556 55.9418L41.1284 55.9802L41.2792 56.07L41.3816 56.1283L41.5133 56.1973L41.6175 56.2479L41.8336 56.3461C43.0325 56.9246 43.5842 58.2972 43.1123 59.493L42.9905 59.7763L42.9351 59.9198L42.9075 59.9982L42.8137 60.2888L42.7979 60.3265C46.5897 61.4135 50.2938 63.0911 53.9091 65.3591C54.0999 65.4784 54.1569 65.7296 54.0377 65.9201C53.9184 66.1105 53.6674 66.1681 53.4772 66.0488C49.7364 63.702 45.902 61.9997 41.9727 60.9418C40.6822 60.7283 39.5766 61.1168 38.6436 61.9107C38.3766 62.1379 38.1455 62.3818 37.9521 62.625L37.8512 62.7561L37.7499 62.9006C37.742 62.9127 37.7352 62.9235 37.7295 62.9328C37.6131 63.125 37.3631 63.1864 37.1711 63.0699C36.9791 62.9533 36.9178 62.703 37.0342 62.5108C37.2248 62.1961 37.5854 61.7427 38.1169 61.2905C38.545 60.9262 39.0084 60.6327 39.5054 60.4249L39.6057 60.3849C37.2738 59.9145 34.909 59.6667 32.511 59.6415C32.9078 61.1731 32.8375 62.6833 32.2999 64.1616C31.7031 65.803 30.6396 67.1039 29.1199 68.0538C28.8957 68.1939 28.5997 68.0861 28.5179 67.8345C27.9638 66.1291 27.9846 64.4483 28.5815 62.8069C29.0345 61.5612 29.7561 60.5115 30.7421 59.6626C28.2271 59.7505 25.6751 60.0796 23.0868 60.6505L22.789 61.0818L22.6515 61.2768L22.3202 61.7346L22.0065 62.1501C21.5595 62.7285 21.1691 63.1707 20.8332 63.4783C20.2384 64.0229 19.4518 64.6452 18.4723 65.3467C18.2897 65.4775 18.0358 65.4354 17.9051 65.2526C17.7744 65.0698 17.8165 64.8156 17.9991 64.6848L18.4606 64.3495L18.8898 64.0278C19.4407 63.608 19.9056 63.2244 20.2843 62.8777C20.5603 62.6249 20.8877 62.258 21.265 61.7782L21.4974 61.4767L21.618 61.3158L21.8994 60.9304C21.0616 61.2152 20.2034 61.4514 19.344 61.6372C18.7774 61.8099 18.2092 61.9945 17.6392 62.1903L17.2795 62.3151L17.0745 62.4267C12.5334 64.9192 10.5797 68.0504 11.1351 71.8705L11.145 71.9357L11.3395 71.9375C16.643 71.9509 19.997 69.9331 21.4913 65.8675L21.5633 65.6659C21.637 65.4536 21.8687 65.3412 22.0808 65.4149C22.2929 65.4886 22.4052 65.7205 22.3316 65.9328C20.7026 70.6296 16.8207 72.9061 10.7896 72.7433C10.5982 72.7381 10.4363 72.5999 10.4009 72.4115C9.61826 68.2392 11.5089 64.7878 15.9978 62.1056C13.3326 62.27 10.9111 61.895 9.36193 60.9285C6.5014 58.9175 5.75632 56.129 7.06903 53.9541C8.32141 51.8792 10.9504 51.2574 13.1695 52.8319C14.999 54.4354 15.2839 56.3961 13.9799 57.6072C13.8152 57.7601 13.5579 57.7505 13.4052 57.5857C13.2525 57.4209 13.2621 57.1634 13.4267 57.0105C14.3365 56.1656 14.132 54.7574 12.6669 53.4703C10.8744 52.2008 8.77818 52.6965 7.76507 54.3751C6.68387 56.1664 7.30396 58.487 9.81066 60.2501C11.7705 61.4723 15.459 61.6392 19.15 60.8455C19.997 60.5867 20.8403 60.3533 21.68 60.1446C21.9599 60.0495 22.2376 59.948 22.5122 59.8409C22.6035 59.8053 22.6997 59.8049 22.7861 59.8332C22.8542 59.8162 22.9268 59.8174 22.996 59.8376L23.2391 59.7847C26.047 59.1865 28.8142 58.8681 31.5404 58.8294L31.4797 58.7404C31.2984 58.4631 31.1376 58.1649 30.9972 57.8457C29.5679 56.7388 28.7034 55.3318 28.4176 53.6403C28.126 51.9141 28.491 50.2126 29.5029 48.5518C29.6279 48.3467 29.9021 48.294 30.094 48.4381ZM7.85858 65.2715L8.11602 65.3044L8.15515 65.3142L8.20477 65.3328L8.26275 65.365L8.29937 65.3927L8.33019 65.4216L8.36596 65.4644C8.3816 65.486 8.39478 65.5086 8.40563 65.5318L8.42834 65.5929L8.43829 65.6375L8.44238 65.6704L8.44348 65.7152C8.44291 65.7354 8.44081 65.7557 8.43713 65.7761C8.07227 67.7954 7.14113 69.3588 5.6488 70.444C4.15647 71.5293 2.38324 71.9326 0.351862 71.6559C0.122447 71.6247 -0.0346189 71.4083 0.00658611 71.1802C0.37144 69.1609 1.30258 67.5975 2.79492 66.5123C4.22985 65.4688 5.92446 65.0558 7.85858 65.2715ZM6.89605 66.0298C5.52533 66.0276 4.32143 66.4083 3.27288 67.1708C2.12044 68.0089 1.34834 69.1682 0.953119 70.6636L0.894587 70.8973L1.14623 70.9151C2.53406 70.9904 3.75763 70.691 4.82794 70.0178L5.00488 69.9021L5.17077 69.7855C6.21933 69.023 6.95306 67.9945 7.37451 66.6889L4.46081 68.8074C4.27914 68.9395 4.02487 68.8992 3.89288 68.7174C3.77288 68.5521 3.79527 68.3267 3.93682 68.1878L3.98284 68.1489L6.89605 66.0298ZM115.696 49.1346L115.792 49.2045L115.915 49.302L115.986 49.3612L116.144 49.5005C116.466 49.7935 116.786 50.144 117.086 50.5525C117.649 51.3204 118.059 52.177 118.279 53.1197C118.387 52.9446 118.506 52.7742 118.635 52.6085C119.565 51.4171 120.853 50.6843 122.479 50.4151C122.713 50.3762 122.931 50.5465 122.95 50.7839C123.082 52.4276 122.684 53.8556 121.754 55.047C120.905 56.1347 119.757 56.8403 118.327 57.1596L118.083 57.2101C117.736 58.3882 117.215 59.3503 116.518 60.1412C117.633 59.7773 118.697 59.5121 119.849 59.3072C121.14 59.0776 122.445 58.9605 123.781 58.9645C125.623 54.5715 129.139 52.2242 134.186 52.9258C134.382 52.9529 134.53 53.1167 134.537 53.3141C134.642 56.2015 133.726 57.4424 131.23 58.0412C131.011 58.0935 130.792 57.9588 130.739 57.7402C130.687 57.5216 130.822 57.302 131.04 57.2496C133.014 56.7761 133.721 55.9657 133.732 53.8235L133.731 53.6894L133.628 53.678C129.328 53.2355 126.338 55.2329 124.659 58.9842C126.81 59.0752 129.048 59.4776 131.437 60.2263C131.875 60.406 132.288 60.5989 132.678 60.805L133.042 60.8957C133.309 60.9607 133.572 61.0213 133.829 61.0772L134.336 61.1832C139.089 62.132 141.954 61.4465 143.024 59.2069L143.064 59.1197L143.033 59.0986C141.414 57.9772 139.747 58.0107 137.951 59.2085L137.796 59.314C137.613 59.4429 137.359 59.3982 137.23 59.2141C137.101 59.03 137.146 58.7762 137.33 58.6472C139.574 57.0744 141.768 57.0744 143.809 58.6591C143.949 58.7677 144.002 58.9544 143.941 59.1208C142.866 62.0548 139.704 63.0028 134.557 62.0533C136.448 63.6352 137.405 65.7273 137.405 68.3112C137.405 68.5108 137.26 68.6809 137.063 68.7129C129.271 69.9817 124.1 68.1304 121.661 63.1298C121.562 62.9278 121.646 62.6842 121.848 62.5855C122.05 62.4869 122.293 62.5707 122.392 62.7727C124.561 67.2197 129.082 68.9844 136.052 68.0409L136.585 67.9641L136.583 67.9157C136.465 65.1238 135.076 63.0178 132.397 61.5733L132.296 61.5475C132.209 61.525 132.136 61.4762 132.083 61.4117C131.856 61.296 131.619 61.1859 131.373 61.0802L131.162 60.9913C128.844 60.2659 126.672 59.8784 124.584 59.795C124.931 60.8164 125.924 61.6872 127.484 62.6182L127.881 62.8495L128.088 62.9663C128.284 63.0759 128.354 63.3238 128.245 63.52C128.135 63.7163 127.887 63.7866 127.691 63.6771C125.453 62.4264 124.099 61.322 123.731 59.7788C122.461 59.7774 121.219 59.8902 119.992 60.1086C118.39 60.3935 116.957 60.8009 115.296 61.4402L114.763 61.6499L114.579 61.7247L114.691 61.7155L114.824 61.7L115.091 61.662C116.579 61.4862 117.948 62.4852 118.244 63.9382L118.306 64.2826L118.332 64.4051L118.357 64.5121L118.381 64.6044L118.455 64.87L118.473 64.9542L118.48 65.0231C118.488 65.2097 118.398 65.3792 118.2 65.4748L118.129 65.5038L118.098 65.5114L118.038 65.5214L117.947 65.5289L117.745 65.5344L117.608 65.541L117.437 65.5553L117.304 65.5708L117.036 65.6088C115.549 65.7847 114.179 64.7856 113.882 63.3256L113.823 62.9906L113.784 62.8104L113.759 62.7122L113.658 62.3334L113.648 62.2477C113.646 62.2059 113.649 62.1662 113.656 62.1286C113.642 62.131 113.627 62.1315 113.612 62.1312L113.046 62.3791L112.424 62.6581L111.774 62.9563L109.588 63.9759L109.359 64.0793C109.792 64.1497 110.226 64.2807 110.65 64.4845C111.647 64.9629 112.48 65.8053 113.091 67.0558C113.19 67.2577 113.107 67.5014 112.905 67.6003C112.703 67.6991 112.46 67.6156 112.361 67.4137C111.829 66.3252 111.128 65.6165 110.299 65.2185C109.417 64.7953 108.469 64.7501 107.598 64.9295L107.445 64.9638L107.329 64.9945L107.251 65.0189C107.218 65.0305 107.184 65.0376 107.151 65.0404C105.926 65.5319 104.831 65.8897 103.75 66.1363C101.322 66.7077 98.8946 66.9936 96.4677 66.9936C96.2431 66.9936 96.0611 66.8113 96.0611 66.5866C96.0611 66.3618 96.2431 66.1796 96.4677 66.1796C98.8315 66.1796 101.197 65.9011 103.567 65.3433C104.772 65.0682 106.004 64.6467 107.437 64.042L107.853 63.8635L108.288 63.6723L108.994 63.3534L111.436 62.2159L112.097 61.9127L112.73 61.6288L113.336 61.3636L113.63 61.2377L114 61.0832C115.701 60.17 116.798 58.8469 117.358 56.7882C117.353 56.7136 117.37 56.6385 117.409 56.571L117.416 56.5589L117.42 56.5439C117.393 55.8383 117.468 55.1742 117.644 54.5532C117.609 53.2088 117.166 52.0386 116.43 51.0339C116.164 50.6714 115.88 50.3607 115.596 50.1026L115.527 50.0407L115.406 49.9366L115.308 49.8586L115.237 49.8069C115.052 49.6802 115.004 49.427 115.13 49.2413C115.257 49.0557 115.51 49.0079 115.696 49.1346ZM84.9534 0.432037C84.7819 3.21988 83.9783 5.46706 82.5231 7.17539C81.2947 8.48322 79.9304 9.22351 78.4019 9.56891L78.1924 9.61357L77.9183 9.66408L77.5957 9.71289L77.3688 9.74092L77.1496 9.76356L76.9372 9.78172L76.6372 9.80211L75.8799 9.84177C76.6907 12.6886 77.145 15.3974 77.2419 17.9682L77.253 18.018C77.2669 18.0815 77.2652 18.1448 77.2504 18.2038C77.3565 21.8458 76.7411 25.2088 75.4005 28.2922C74.9168 29.3174 74.4852 30.3408 74.1057 31.3627C73.9307 32.3792 73.6324 33.4434 73.2028 34.5551C78.5636 34.4294 81.8492 32.7876 83.1435 29.6474L83.1885 29.5324L83.1705 29.5336C80.7449 29.6925 78.7835 30.2584 77.2823 31.2246L77.097 31.3475C76.9116 31.4742 76.6586 31.4264 76.532 31.2408C76.4054 31.0551 76.4531 30.8019 76.6385 30.6752C78.4237 29.4554 80.7985 28.7965 83.757 28.6889C84.0362 28.6788 84.2422 28.947 84.1606 29.2144C83.0989 32.6971 80.1323 34.6977 75.3307 35.2311C76.7603 38.0152 79.5214 39.6279 83.662 40.0659L83.8798 40.0873L83.8708 40.0542C83.228 37.8254 82.2232 36.7327 80.8626 36.6752L80.7484 36.6728C80.5238 36.6728 80.3418 36.4906 80.3418 36.2658C80.3418 36.0411 80.5238 35.8589 80.7484 35.8589C82.7373 35.8589 84.0896 37.4334 84.8145 40.4445C84.8788 40.7116 84.6656 40.9645 84.3917 40.9459C79.4051 40.6075 76.0741 38.7309 74.4628 35.3114C73.9546 35.3467 73.4277 35.3681 72.8821 35.3746C72.1337 38.5107 71.8809 41.6317 72.1236 44.7387C72.5313 43.7849 73.4397 43.0941 74.5273 43.0002L74.6642 42.9916L74.912 42.9878L75.0428 42.9828L75.1581 42.9753L75.2548 42.9669L75.6091 42.924L75.6516 42.9213L75.6969 42.9209L75.767 42.926C75.9821 42.9561 76.1281 43.1083 76.1666 43.327L76.1748 43.3946L76.1738 43.4656L76.1685 43.5285L76.1392 43.7733L76.1301 43.8668L76.1219 43.9741L76.1156 44.0968L76.1086 44.4457C76.0451 45.8916 74.9143 47.0665 73.468 47.187L73.3396 47.1949L73.1641 47.1973L73.0251 47.2008L72.9023 47.2072L72.7961 47.2153L72.6561 47.23L72.4297 47.2585C73.0358 50.9357 74.3393 54.5937 76.3404 58.2347L76.3153 57.7222L76.2902 57.1487L76.2674 56.4881L76.2546 55.881C76.2505 55.5697 76.2509 55.277 76.256 54.9964L76.2672 54.5837C76.2746 54.381 76.2848 54.1832 76.2979 53.9876C76.7014 49.0189 79.1966 45.6513 82.3739 44.3563L82.5417 44.29C84.0579 43.6664 86.2916 43.5507 88.2045 44.1169C90.6145 44.8303 92.3668 46.5139 93.0594 49.1826C93.9061 52.7321 92.7012 55.4621 90.146 56.7956C87.8977 57.969 85.025 57.7666 83.3936 56.2821C82.0515 55.087 81.4844 53.6142 81.714 51.9061C81.7439 51.6834 81.9486 51.5271 82.1711 51.557C82.3937 51.587 82.5498 51.7919 82.5199 52.0146C82.3269 53.4506 82.7911 54.6562 83.9374 55.6769C85.3046 56.921 87.8088 57.0974 89.7701 56.0738C91.9911 54.9147 93.0295 52.562 92.2704 49.3795C91.6545 47.0067 90.1206 45.5329 87.9739 44.8975C86.3084 44.4044 84.3587 44.4823 83.007 44.9821L82.8412 45.0467C79.8658 46.1829 77.4934 49.312 77.1088 54.0477C77.0963 54.2351 77.0866 54.4253 77.0795 54.6208L77.0688 55.02C77.064 55.2919 77.0638 55.5766 77.0679 55.8803L77.0773 56.351L77.0929 56.855L77.1318 57.7708L77.2403 59.9599L77.2693 60.7013L77.284 61.3211L77.2865 61.6561L77.2824 62.0831L77.2742 62.4031C77.2638 62.7243 77.2446 63.0685 77.2166 63.4357L77.168 64.004C77.1495 64.1992 77.1289 64.4001 77.1061 64.6069L77.0399 65.1719L76.9632 65.7643L76.8762 66.3842C76.8608 66.4898 76.845 66.5966 76.8287 66.7045L76.7259 67.3656L76.6808 67.646C82.2061 68.4417 85.4267 67.1239 86.4929 63.716L86.5284 63.596C83.8109 62.8277 81.6881 63.5599 80.0696 65.8146L79.96 65.9706C79.8328 66.1559 79.5797 66.2028 79.3946 66.0755C79.2096 65.9482 79.1627 65.6948 79.2898 65.5096C81.2005 62.7269 83.8549 61.8591 87.1492 62.9348C87.3509 63.0006 87.4681 63.2105 87.4184 63.4169C86.3882 67.703 82.6583 69.3642 76.4062 68.4283L76.1441 68.3878C76.1179 68.3833 76.0928 68.3765 76.0688 68.3675C76.0257 68.3514 75.9868 68.3285 75.9527 68.3002C75.9144 68.2684 75.8823 68.23 75.858 68.1871C75.8416 68.1582 75.8288 68.1274 75.8199 68.0952C75.8044 68.0394 75.8006 67.9795 75.8108 67.9187L75.8679 67.5759L76.0237 66.589L76.088 66.1446L76.0326 66.1411L75.8063 66.1121L75.6688 66.0973L75.5616 66.0889L75.4392 66.0823L75.1036 66.0756C73.6065 66.0164 72.4104 64.8152 72.3451 63.3314L72.3405 63.0556L72.3358 62.9268L72.3243 62.7566L72.3155 62.6639L72.2865 62.4195L72.2794 62.3259V62.264L72.2869 62.1918C72.32 62.0045 72.4503 61.8661 72.6533 61.8167L72.7236 61.8035L72.7568 61.8019L72.8021 61.8023L72.8694 61.8074L73.1382 61.8414L73.2858 61.8556L73.4004 61.8633L73.5319 61.8686L73.7992 61.8729C74.9832 61.9198 75.9791 62.681 76.376 63.7337C76.4197 63.2403 76.4481 62.7882 76.4614 62.3769C76.4681 62.1677 76.472 61.9657 76.473 61.7564L76.4705 61.311L76.4587 60.8024L76.4231 59.884C76.3544 59.8501 76.2944 59.7964 76.2526 59.7254C75.5199 58.4792 74.8672 57.2304 74.2945 55.979C71.8207 57.2732 69.4459 57.6495 67.2215 57.011C64.8086 56.3185 62.9049 54.7113 61.5225 52.2113C61.4138 52.0148 61.4847 51.7674 61.6808 51.6584C64.1768 50.2715 66.6421 49.9183 69.055 50.6109C70.617 51.0592 71.9432 51.8053 73.043 52.8831C71.8758 49.5601 71.2692 46.2194 71.2233 42.8631L71.0483 42.8659L70.3509 42.8704L69.8089 42.8647L69.3004 42.8497C69.1253 42.8426 68.9561 42.8336 68.7924 42.8225L68.551 42.8043L68.2035 42.7707C66.5092 42.5835 65.4421 42.1022 64.3836 41.0791C62.578 39.3338 61.6509 37.0202 61.6028 34.1632C61.5991 33.9386 61.7777 33.7534 62.002 33.7494C64.8562 33.6977 67.1987 34.5444 69.0043 36.2897C70.2096 37.4548 70.9445 38.5158 71.335 39.8207C71.585 36.9402 72.2459 34.0485 73.3176 31.147C73.6893 28.9197 73.4264 26.9595 72.6411 25.2505C71.8203 23.4642 70.4982 22.1101 69.1772 21.3008C66.4465 19.8525 64.0467 20.3333 62.882 22.0864C61.7959 23.7212 62.2592 25.782 64.1601 26.784C66.0091 27.524 67.3554 27.0672 67.6946 25.8721C67.7559 25.6559 67.9808 25.5304 68.1968 25.5918C68.4128 25.6532 68.5382 25.8783 68.4768 26.0945C67.9907 27.8073 66.116 28.4435 63.82 27.5222C61.4442 26.2729 60.8576 23.6636 62.2048 21.6357C63.6114 19.5186 66.4728 18.9453 69.5796 20.5939C71.0508 21.4942 72.4853 22.9635 73.3799 24.9103C73.9219 26.0897 74.234 27.3757 74.2883 28.7679C74.4081 28.4973 74.5323 28.2267 74.66 27.956C75.9175 25.0635 76.5128 21.9042 76.4438 18.4762L76.4324 18.0807L76.409 17.9794C76.3052 17.5607 76.1754 17.186 76.021 16.8528C75.8744 18.1449 74.8644 19.2008 73.5467 19.3773L73.2009 19.4146L73.077 19.4318L72.9686 19.4496L72.875 19.4671L72.6051 19.5229L72.5199 19.5343L72.4507 19.5368C72.2642 19.532 72.1015 19.4301 72.0201 19.2253L71.9961 19.1533L71.9907 19.1216L71.9849 19.0609L71.9839 18.9695L71.9924 18.7671L71.9954 18.6303L71.993 18.4584L71.9869 18.3247L71.9677 18.0547C71.8974 16.5805 72.9531 15.3006 74.3932 15.0746C74.139 14.9435 73.8657 14.8436 73.5751 14.773C72.7504 14.5725 71.8529 14.6233 70.9899 14.8318L70.887 14.8575L70.7037 14.9073L70.5519 14.9534L70.3889 15.0106C70.1798 15.0924 69.9439 14.989 69.8622 14.7796C69.7804 14.5703 69.8837 14.3342 70.0929 14.2524L70.1505 14.2307L70.2933 14.1817L70.4712 14.1273L70.682 14.0698L70.799 14.0406C71.777 13.8042 72.7981 13.7465 73.767 13.982C74.456 14.1495 75.0676 14.455 75.5864 14.9078C75.8146 14.9266 75.9667 15.0837 76.0098 15.3055L76.0151 15.3406C76.0934 15.4317 76.1689 15.5271 76.2416 15.6269C75.877 12.598 75.0354 9.37545 73.7148 5.95855C73.6338 5.74892 73.7378 5.51324 73.9473 5.43214C74.1567 5.35104 74.3922 5.45524 74.4732 5.66488C74.7515 6.38493 75.009 7.09693 75.2457 7.80087C75.5496 5.90729 76.3271 4.2197 77.5897 2.72988C79.2083 1.18646 81.5196 0.280454 84.5099 0.00179287C84.7583 -0.0213553 84.9687 0.182798 84.9534 0.432037ZM150.061 62.6132C151.783 63.2749 153.087 64.5438 153.961 66.3997C154.06 66.6094 153.964 66.8591 153.75 66.9487C151.86 67.7422 150.043 67.812 148.321 67.1503C146.599 66.4886 145.295 65.2197 144.42 63.3638C144.322 63.1542 144.417 62.9045 144.631 62.8149C146.522 62.0214 148.339 61.9515 150.061 62.6132ZM31.7394 59.9104L31.6321 59.9897C30.5636 60.7962 29.8036 61.8258 29.3456 63.0853C28.9146 64.2706 28.8193 65.4721 29.0602 66.6976L29.1093 66.9277L29.1412 67.0571L29.2493 66.9787C30.1954 66.2646 30.8995 65.3756 31.3664 64.307L31.4566 64.0909L31.5358 63.8832C31.9668 62.6978 32.0621 61.4963 31.8212 60.2708L31.7721 60.0407L31.7394 59.9104ZM145.724 63.282L149.248 64.533C149.46 64.6081 149.571 64.8408 149.496 65.0526C149.428 65.2452 149.229 65.3543 149.035 65.3162L148.977 65.3002L145.826 64.1831C146.469 65.1048 147.272 65.7856 148.236 66.2317L148.432 66.3178L148.612 66.3904C149.942 66.9014 151.334 66.9182 152.802 66.4355L153.029 66.3565C152.321 65.0293 151.358 64.0902 150.135 63.5274L149.95 63.4458L149.769 63.3731C148.483 62.879 147.139 62.847 145.724 63.282ZM140.257 63.5674C141.102 63.5674 141.787 64.2528 141.787 65.0983C141.787 65.9438 141.102 66.6292 140.257 66.6292C139.413 66.6292 138.728 65.9438 138.728 65.0983C138.728 64.2528 139.413 63.5674 140.257 63.5674ZM49.9834 20.4108C51.5722 20.4108 52.8602 21.7 52.8602 23.2903C52.8602 24.8806 51.5722 26.1698 49.9834 26.1698C48.6797 26.1698 47.5785 25.3017 47.2253 24.1115C44.4096 30.2188 44.8709 37.7793 48.1292 45.8122L48.2834 46.1879C48.114 41.8996 50.487 38.2271 54.17 37.1173C54.3359 37.0673 54.5153 37.1281 54.6168 37.2687C56.6561 40.0933 55.2082 44.2422 52.8239 45.1512C52.6141 45.2312 52.3791 45.1258 52.2992 44.9158C52.2193 44.7057 52.3246 44.4706 52.5345 44.3906C54.3371 43.7033 55.5428 40.48 54.2004 38.1228L54.1205 37.989L54.1038 37.9948C50.1412 39.3876 47.9655 44.1872 49.6771 49.2296C50.7927 51.4621 52.0886 53.6445 53.5066 55.7068C53.7083 55.9786 53.9105 56.2667 54.1135 56.5705C56.7229 60.2166 59.7015 63.4419 62.7117 65.8397C62.8874 65.9796 62.9165 66.2356 62.7767 66.4115C62.6368 66.5874 62.381 66.6165 62.2053 66.4766C59.3212 64.1793 56.4712 61.1441 53.9362 57.7111C53.8818 57.68 53.8345 57.6353 53.7987 57.5787C53.6845 57.3982 53.5711 57.2231 53.4584 57.0535C53.2341 56.7409 53.0122 56.4243 52.7932 56.105C50.4252 52.9152 48.3416 52.1993 46.0192 53.5309L45.8555 53.6277L45.8633 53.6777C46.1641 55.5204 47.2797 56.4137 49.3166 56.4323L49.4794 56.4319C49.7039 56.429 49.8883 56.6088 49.8913 56.8335C49.8942 57.0583 49.7146 57.2429 49.49 57.2458C46.8301 57.2808 45.2937 55.9904 45.0143 53.4685C44.9975 53.3166 45.0672 53.168 45.1947 53.0839C47.1384 51.8012 48.954 51.7251 50.7722 52.9339C50.2603 52.0704 49.7728 51.193 49.3126 50.3064C49.233 50.2628 49.1677 50.192 49.1315 50.1009C49.0575 49.9143 48.9884 49.7278 48.9243 49.5415C48.5361 48.7642 48.1701 47.9807 47.8279 47.194C47.7567 47.1565 47.6959 47.0968 47.6566 47.0191C47.173 46.0622 46.3473 45.2718 45.2704 44.6367C44.6269 44.2572 43.9343 43.9568 43.2414 43.7284L43.0737 43.6743L43.1276 43.795L43.2049 43.9538L43.2581 44.0526L43.3267 44.1709C43.9359 45.1859 43.6719 46.4893 42.7302 47.194L42.6304 47.2647L42.4393 47.3845L42.3459 47.4466L42.2722 47.4987L42.0314 47.6854L41.9809 47.7197C41.819 47.8198 41.6199 47.8372 41.4261 47.675L41.3682 47.6209L41.3511 47.5982L41.3141 47.5391L41.2765 47.4644L41.2124 47.3208L41.1779 47.2475L41.1351 47.162L41.0819 47.0632L40.9534 46.8388C40.4744 45.9374 40.6543 44.8401 41.3633 44.1346C39.6223 44.8373 37.9426 44.9825 36.3508 44.5214C34.2665 43.9176 32.6224 42.5167 31.4304 40.341C31.3231 40.1452 31.3935 39.8994 31.5882 39.7903C33.7415 38.5827 35.8717 38.2747 37.9566 38.8786C40.056 39.4868 41.663 40.7247 42.8058 42.7013L42.8384 42.7603L42.9424 42.788C43.115 42.8353 43.3002 42.8909 43.4957 42.9553C44.2403 43.2007 44.9852 43.5238 45.6833 43.9355C46.1057 44.1846 46.4953 44.457 46.8475 44.7539C45.7205 41.7021 44.9971 38.719 44.7045 35.8577C44.6809 35.818 44.6642 35.7733 44.6558 35.7251L44.5994 35.391L44.5618 35.1337L44.4235 34.0029L44.3793 33.6734C44.2672 32.8992 44.1365 32.4788 43.8563 32.0136C43.3759 31.2158 42.4446 30.4307 40.755 29.4578C38.5464 28.3241 37.8642 26.6491 38.7516 25.3364C39.573 24.1216 41.299 23.9586 42.2936 25.23C42.432 25.4069 42.4009 25.6627 42.2241 25.8013C42.0473 25.9399 41.7918 25.9088 41.6533 25.7318C41.0147 24.9154 39.9502 25.0159 39.4251 25.7926C38.844 26.6521 39.3126 27.8027 41.1432 28.7428C42.9588 29.7877 43.9878 30.6552 44.5528 31.5934L44.5923 31.661C44.7784 28.1757 45.6915 24.9327 47.3898 22.0429C47.4703 21.8756 47.5664 21.7172 47.6764 21.5698L47.7245 21.4941C47.7525 21.4499 47.7875 21.413 47.8271 21.3838C48.3542 20.7872 49.1249 20.4108 49.9834 20.4108ZM140.257 64.3814C139.862 64.3814 139.541 64.7024 139.541 65.0983C139.541 65.4942 139.862 65.8152 140.257 65.8152C140.653 65.8152 140.973 65.4942 140.973 65.0983C140.973 64.7024 140.653 64.3814 140.257 64.3814ZM73.1315 62.6576L73.1478 62.8835L73.1534 63.035L73.1583 63.3087C73.2122 64.3314 74.0102 65.161 75.0167 65.2548L75.1253 65.262L75.311 65.2646L75.4713 65.269L75.6146 65.2767L75.7709 65.2896L75.7589 65.1346L75.7518 64.9914L75.7479 64.8367L75.7473 64.7501C75.7473 63.6773 74.9285 62.7909 73.8854 62.6937L73.7767 62.6865L73.5095 62.6822L73.3577 62.676L73.2207 62.6669L73.1315 62.6576ZM115.305 62.4593L115.196 62.4691L114.938 62.5059L114.775 62.5251L114.638 62.5373L114.554 62.5425L114.575 62.6252L114.62 62.8299L114.683 63.1805C114.896 64.1822 115.814 64.8766 116.823 64.8116L116.932 64.8017L117.2 64.7636L117.355 64.7456L117.573 64.7274L117.538 64.5835L117.508 64.4382L117.445 64.0903C117.232 63.0887 116.314 62.3942 115.305 62.4593ZM4.17278 59.9711C5.01746 59.9711 5.7022 60.6564 5.7022 61.5019C5.7022 62.3474 5.01746 63.0328 4.17278 63.0328C3.32811 63.0328 2.64337 62.3474 2.64337 61.5019C2.64337 60.6564 3.32811 59.9711 4.17278 59.9711ZM4.17278 60.785C3.77723 60.785 3.4566 61.106 3.4566 61.5019C3.4566 61.8978 3.77723 62.2188 4.17278 62.2188C4.56834 62.2188 4.88903 61.8978 4.88903 61.5019C4.88903 61.106 4.56834 60.785 4.17278 60.785ZM107.107 53.7988C108.284 54.9524 108.919 56.2921 108.998 57.8019C109.077 59.3116 108.585 60.7104 107.535 61.9809C107.445 62.0901 107.311 62.1395 107.181 62.1264L107.137 62.1307C106.932 62.1414 106.754 61.9974 106.717 61.8005L106.714 61.7842C105.68 60.6831 105.12 59.4205 105.046 58.0092C104.967 56.4994 105.459 55.1006 106.509 53.8301C106.661 53.6466 106.937 53.6322 107.107 53.7988ZM106.855 54.7132L106.771 54.833C106.102 55.8112 105.8 56.8521 105.858 57.9666C105.904 58.8353 106.162 59.6366 106.637 60.3754L106.522 58.1541C106.51 57.9296 106.683 57.7381 106.907 57.7263C107.112 57.7155 107.29 57.8595 107.328 58.0565L107.334 58.1115L107.469 60.6739C107.932 59.8994 108.172 59.0859 108.192 58.2282L108.192 58.0295L108.186 57.8445C108.131 56.7956 107.766 55.8448 107.083 54.9839L106.952 54.8235L106.855 54.7132ZM59.415 57.2738C60.2597 57.2738 60.9444 57.9591 60.9444 58.8046C60.9444 59.6501 60.2597 60.3355 59.415 60.3355C58.5704 60.3355 57.8856 59.6501 57.8856 58.8046C57.8856 57.9591 58.5704 57.2738 59.415 57.2738ZM20.157 55.6619L20.218 55.6667L20.2993 55.6801L20.4687 55.7174L20.5825 55.74L20.727 55.7635L20.8401 55.778L21.0737 55.8021C22.383 55.968 23.3396 57.1146 23.2867 58.4222L23.2655 58.7334L23.2604 58.8916L23.2602 58.9775L23.2671 59.2887L23.2638 59.3402L23.2548 59.404C23.2067 59.6405 23.0213 59.773 22.7898 59.7765L22.7256 59.7742L22.6605 59.7643L22.3917 59.7071L22.3068 59.6917L22.2089 59.6764L22.0958 59.6618L21.8622 59.6378C20.553 59.4718 19.5964 58.3252 19.6495 57.013L19.6705 56.7041L19.6746 56.5969L19.6759 56.5026L19.6752 56.421L19.6686 56.1793L19.6722 56.0996L19.6811 56.0359C19.7174 55.8576 19.8435 55.7172 20.0555 55.6729L20.1293 55.6618L20.157 55.6619ZM41.0262 56.8604L41.0051 56.9191L40.9581 57.0383L40.8361 57.3241C40.5438 58.0913 40.8746 58.9629 41.6127 59.3746L41.707 59.4236L41.9233 59.522L42.0457 59.5813L42.1694 59.6459L42.2379 59.4686L42.3201 59.2782C42.679 58.4891 42.352 57.5612 41.5832 57.1324L41.4889 57.0833L41.2726 56.9849L41.1483 56.9246L41.0262 56.8604ZM59.415 58.0877C59.0195 58.0877 58.6988 58.4087 58.6988 58.8046C58.6988 59.2005 59.0195 59.5215 59.415 59.5215C59.8106 59.5215 60.1312 59.2005 60.1312 58.8046C60.1312 58.4087 59.8106 58.0877 59.415 58.0877ZM20.4882 56.5487L20.4875 56.617L20.4827 56.7445L20.4678 56.9587C20.3885 57.8544 21.0002 58.6529 21.855 58.8135L21.9548 58.8291L22.1887 58.8532L22.3224 58.8705L22.4468 58.8895L22.4535 58.6926L22.4743 58.3782C22.5 57.5249 21.9028 56.7808 21.0809 56.6264L20.9812 56.6107L20.7473 56.5866L20.6111 56.569L20.4882 56.5487ZM101.633 22.6585C102.834 22.6585 103.863 23.395 104.293 24.4414C104.732 25.3236 105.051 26.6705 105.241 28.3252L105.29 28.7817L105.332 29.2527L105.368 29.7373L105.397 30.2351L105.415 30.6531L105.433 30.5701L105.455 30.4313L105.468 30.3189L105.49 30.0707C105.63 28.8991 106.638 28.0295 107.809 28.0521L108.051 28.0643L108.164 28.0672L108.261 28.0669L108.343 28.0645L108.531 28.0556L108.593 28.0558L108.662 28.062L108.743 28.0801C108.957 28.1486 109.053 28.3202 109.056 28.522L109.054 28.5903L109.045 28.6507L108.994 28.9116L108.98 29.0058L108.967 29.1182L108.945 29.3664C108.805 30.538 107.797 31.4076 106.631 31.3854L106.384 31.3728L106.271 31.3699L106.174 31.3702L105.912 31.3814L105.828 31.3808L105.758 31.3733C105.618 31.3488 105.499 31.2673 105.431 31.126L105.436 31.2668C105.443 31.5304 105.447 31.7982 105.449 32.0696L105.448 32.6174L105.442 33.1743C105.437 33.455 105.429 33.7389 105.419 34.0255L105.395 34.6025L105.365 35.1862L105.347 35.4804L105.307 36.073C105.299 36.1722 105.292 36.2716 105.284 36.3712L105.233 36.9711L105.205 37.2726L105.143 37.8783L105.118 38.0948C106.662 35.896 109.074 33.7837 110.975 32.6212C113.991 30.9815 116.545 31.5812 117.483 33.6781C118.369 35.6601 117.287 37.9107 114.856 38.4021C114.636 38.4466 114.421 38.3041 114.377 38.0837C114.332 37.8634 114.475 37.6487 114.695 37.6043C116.604 37.2183 117.418 35.5259 116.74 34.0106C116.013 32.3824 113.991 31.9078 111.381 33.326C109.206 34.6568 106.241 37.382 104.98 39.8877L104.871 40.1126L104.852 40.1587L104.778 40.6436L104.703 41.1054C105.377 39.8827 106.845 39.3149 108.168 39.7813L108.292 39.8281L108.435 39.884L108.563 39.9299L108.674 39.9667L108.819 40.0103L108.985 40.0551L109.131 40.099L109.193 40.1245C109.358 40.203 109.473 40.3538 109.465 40.5847L109.458 40.6646L109.439 40.7304L109.415 40.7875L109.385 40.8468L109.241 41.1052L109.194 41.1964L109.142 41.3026L109.086 41.4266L108.978 41.6814C108.362 43.0458 106.804 43.7047 105.405 43.2112L105.071 43.0839L104.901 43.0264L104.803 42.9964L104.446 42.8947L104.38 42.8674L104.355 42.9968L104.206 43.7015C102.828 49.9987 100.412 55.0647 97.1062 57.6803C96.93 57.8197 96.6743 57.7897 96.535 57.6134C96.3958 57.437 96.4257 57.1811 96.6019 57.0417C100.161 54.2263 102.692 48.2687 103.905 40.9491L104.02 40.2248L104.074 39.8595L104.08 39.9961C103.876 34.6545 101.583 31.5862 97.1478 30.6861L96.9856 30.6545L96.9914 30.7856C97.1145 33.2999 98.0171 34.8104 99.693 35.3993L99.8269 35.4439C100.041 35.5113 100.16 35.7398 100.093 35.9542C100.025 36.1686 99.7971 36.2878 99.5829 36.2203C97.3006 35.5018 96.1636 33.4485 96.1636 30.1714C96.1636 29.9417 96.352 29.7616 96.5744 29.7643L96.6306 29.7689C100.827 30.3997 103.442 32.717 104.443 36.6594L104.491 36.0639L104.511 35.7753L104.548 35.2023L104.564 34.9181L104.59 34.3543C104.598 34.1676 104.605 33.982 104.611 33.7977L104.625 33.2488L104.629 32.9775L104.634 32.4416L104.634 32.1772L104.629 31.6559L104.625 31.3992L104.611 30.8941L104.585 30.2792L104.55 29.684L104.515 29.2229C104.503 29.0715 104.489 28.9225 104.475 28.776L104.428 28.344L104.377 27.9275C104.325 27.5425 104.266 27.1792 104.199 26.8403C103.724 27.7763 102.753 28.4175 101.633 28.4175C100.044 28.4175 98.7559 27.1283 98.7559 25.538C98.7559 23.9477 100.044 22.6585 101.633 22.6585ZM29.9661 49.3776L29.8701 49.5623C29.2099 50.8667 28.9952 52.1773 29.2194 53.5046C29.3961 54.5506 29.8219 55.4684 30.5016 56.2634C30.378 55.6666 30.3035 55.0192 30.2778 54.3214C30.2696 54.0968 30.4448 53.908 30.6692 53.8997C30.8937 53.8915 31.0823 54.0669 31.0905 54.2915C31.1221 55.1519 31.2319 55.9214 31.4188 56.6006C31.9378 55.5001 32.14 54.395 32.0296 53.2789L32.0034 53.0555L31.973 52.8566C31.7613 51.6032 31.1919 50.5339 30.2566 49.6394L30.0973 49.4919L29.9661 49.3776ZM62.7676 52.0132L62.5374 52.1258L62.4402 52.1754L62.4963 52.2693C63.6608 54.1819 65.1662 55.4521 67.0201 56.094L67.2275 56.1628L67.4456 56.2286C69.284 56.7562 71.2574 56.5121 73.3459 55.5414L68.5146 54.154C68.2988 54.0921 68.174 53.8667 68.2359 53.6506C68.2922 53.4542 68.4834 53.3331 68.6799 53.3592L68.7388 53.3716L73.5525 54.7522C72.4649 53.1771 71.0532 52.1322 69.2765 51.5323L69.0526 51.4596L68.8308 51.3933C66.8536 50.8258 64.8379 51.0295 62.7676 52.0132ZM122.161 51.3085L122.019 51.3436C120.873 51.6426 119.963 52.2302 119.276 53.1096C118.906 53.5843 118.633 54.1016 118.459 54.6636C118.463 54.8522 118.457 55.0434 118.444 55.2374L119.654 53.6869C119.793 53.5098 120.048 53.4784 120.225 53.6168C120.386 53.7426 120.426 53.9654 120.329 54.1379L120.295 54.188L118.718 56.2099C119.575 55.9298 120.289 55.4734 120.866 54.8392L120.996 54.6897L121.113 54.5458C121.759 53.7182 122.107 52.7608 122.156 51.6628L122.161 51.4553L122.161 51.3085ZM56.2712 52.3287C57.1158 52.3287 57.8005 53.0141 57.8005 53.8596C57.8005 54.7051 57.1158 55.3904 56.2712 55.3904C55.4265 55.3904 54.7418 54.7051 54.7418 53.8596C54.7418 53.0141 55.4265 52.3287 56.2712 52.3287ZM56.2712 53.1427C55.8756 53.1427 55.5549 53.4637 55.5549 53.8596C55.5549 54.2555 55.8756 54.5765 56.2712 54.5765C56.6667 54.5765 56.9874 54.2555 56.9874 53.8596C56.9874 53.4637 56.6667 53.1427 56.2712 53.1427ZM97.5905 50.5305C98.4352 50.5305 99.1199 51.2159 99.1199 52.0614C99.1199 52.9069 98.4352 53.5923 97.5905 53.5923C96.7458 53.5923 96.0611 52.9069 96.0611 52.0614C96.0611 51.2159 96.7458 50.5305 97.5905 50.5305ZM97.5905 51.3445C97.195 51.3445 96.8743 51.6655 96.8743 52.0614C96.8743 52.4573 97.195 52.7783 97.5905 52.7783C97.9861 52.7783 98.3067 52.4573 98.3067 52.0614C98.3067 51.6655 97.9861 51.3445 97.5905 51.3445ZM19.443 48.2828C20.2877 48.2828 20.9724 48.9682 20.9724 49.8137C20.9724 50.6591 20.2877 51.3445 19.443 51.3445C18.5983 51.3445 17.9136 50.6591 17.9136 49.8137C17.9136 48.9682 18.5983 48.2828 19.443 48.2828ZM19.443 49.0968C19.0474 49.0968 18.7268 49.4177 18.7268 49.8137C18.7268 50.2096 19.0474 50.5305 19.443 50.5305C19.8385 50.5305 20.1592 50.2096 20.1592 49.8137C20.1592 49.4177 19.8385 49.0968 19.443 49.0968ZM54.9238 47.3837C55.7684 47.3837 56.4532 48.0691 56.4532 48.9146C56.4532 49.76 55.7684 50.4454 54.9238 50.4454C54.0791 50.4454 53.3943 49.76 53.3943 48.9146C53.3943 48.0691 54.0791 47.3837 54.9238 47.3837ZM54.9238 48.1977C54.5282 48.1977 54.2076 48.5186 54.2076 48.9146C54.2076 49.3105 54.5282 49.6314 54.9238 49.6314C55.3193 49.6314 55.64 49.3105 55.64 48.9146C55.64 48.5186 55.3193 48.1977 54.9238 48.1977ZM117.801 45.5855C118.646 45.5855 119.33 46.2709 119.33 47.1164C119.33 47.9618 118.646 48.6472 117.801 48.6472C116.956 48.6472 116.272 47.9618 116.272 47.1164C116.272 46.2709 116.956 45.5855 117.801 45.5855ZM98.9379 45.136C99.7825 45.136 100.467 45.8213 100.467 46.6668C100.467 47.5123 99.7825 48.1977 98.9379 48.1977C98.0932 48.1977 97.4085 47.5123 97.4085 46.6668C97.4085 45.8213 98.0932 45.136 98.9379 45.136ZM117.801 46.3995C117.406 46.3995 117.085 46.7204 117.085 47.1164C117.085 47.5123 117.406 47.8332 117.801 47.8332C118.197 47.8332 118.517 47.5123 118.517 47.1164C118.517 46.7204 118.197 46.3995 117.801 46.3995ZM98.9379 45.9499C98.5423 45.9499 98.2217 46.2709 98.2217 46.6668C98.2217 47.0627 98.5423 47.3837 98.9379 47.3837C99.3334 47.3837 99.6541 47.0627 99.6541 46.6668C99.6541 46.2709 99.3334 45.9499 98.9379 45.9499ZM42.4795 44.3217L42.3423 44.4146L42.1519 44.5339C41.5282 44.9521 41.3214 45.7725 41.6634 46.4407L41.7134 46.5308L41.7912 46.6652L41.8597 46.7938L41.9977 46.7011L42.188 46.5818C42.8117 46.1636 43.0185 45.3433 42.6765 44.6751L42.6265 44.5849L42.5488 44.4505L42.4795 44.3217ZM75.3213 43.7775L75.221 43.7868L75.0854 43.7956L74.9345 43.8014L74.6866 43.8052C73.6194 43.8474 72.765 44.6996 72.7092 45.7634L72.7063 45.8742L72.704 46.0429L72.698 46.1964L72.6825 46.4084L72.8493 46.395L72.993 46.3875L73.1477 46.3835L73.3179 46.3813C74.3851 46.339 75.2396 45.4869 75.2953 44.4277L75.2982 44.3174L75.2985 44.2608L75.303 44.0658L75.3104 43.9231L75.3213 43.7775ZM32.6168 40.1738L32.4069 40.2763L32.3481 40.3065L32.3832 40.3654C33.3643 41.9807 34.6256 43.0575 36.1746 43.6098L36.3783 43.6788L36.5769 43.7395C38.111 44.1839 39.7576 43.9892 41.5018 43.1903L38.4075 42.3019C38.1917 42.24 38.0669 42.0146 38.1288 41.7985C38.1851 41.6021 38.3763 41.481 38.5728 41.5071L38.6317 41.5195L41.6313 42.3798C40.7317 41.1317 39.5834 40.2915 38.1555 39.7956L37.9393 39.7238L37.7305 39.6605C36.0635 39.1776 34.3642 39.3457 32.6168 40.1738ZM105.393 41.5371L105.344 41.6385L105.24 41.8841L105.171 42.0367L105.109 42.1638L105.075 42.2286L105.146 42.2504L105.273 42.2924L105.503 42.3767L105.584 42.4089C106.576 42.81 107.702 42.3845 108.184 41.4565L108.233 41.3552L108.341 41.1002L108.406 40.957L108.467 40.8318L108.501 40.7646L108.43 40.7432L108.298 40.6995L108.151 40.6464L107.992 40.5848C107.001 40.1837 105.875 40.6091 105.393 41.5371ZM62.4297 34.5627L62.4355 34.672C62.5765 37.0767 63.4141 39.0105 64.9485 40.4936C65.9994 41.5094 67.0822 41.9159 69.0839 42.0245L69.3019 42.035L69.7029 42.0482L70.1691 42.0551L66.2766 38.816C66.1039 38.6723 66.0803 38.4157 66.2239 38.2428C66.3531 38.0873 66.5737 38.0526 66.7424 38.152L66.7964 38.1901L70.832 41.5473C70.6669 39.7386 70.0684 38.5382 68.7517 37.186L68.5966 37.0293L68.4394 36.8752C66.9598 35.445 65.0845 34.6777 62.7952 34.5734L62.5391 34.5646L62.4297 34.5627ZM95.794 38.3927C96.6387 38.3927 97.3234 39.0781 97.3234 39.9236C97.3234 40.7691 96.6387 41.4544 95.794 41.4544C94.9493 41.4544 94.2646 40.7691 94.2646 39.9236C94.2646 39.0781 94.9493 38.3927 95.794 38.3927ZM95.794 39.2067C95.3984 39.2067 95.0778 39.5277 95.0778 39.9236C95.0778 40.3195 95.3984 40.6405 95.794 40.6405C96.1896 40.6405 96.5102 40.3195 96.5102 39.9236C96.5102 39.5277 96.1896 39.2067 95.794 39.2067ZM39.0925 33.5444L39.1669 33.5515L39.4322 33.5904L39.5244 33.6012L39.6309 33.6109L39.7541 33.6189L40.0068 33.629C41.3879 33.7164 42.4487 34.8305 42.4501 36.1797L42.4473 36.303L42.4446 36.3702L42.442 36.4951L42.444 36.6601L42.4479 36.7502L42.4687 37.0859L42.4653 37.1492C42.4369 37.4126 42.2462 37.5622 42.0005 37.5734L41.9322 37.573L41.8696 37.5665L41.649 37.5335L41.5132 37.5169L41.4067 37.5072L41.2835 37.4992L41.0308 37.4891C39.6496 37.4017 38.589 36.2876 38.5874 34.9409L38.5948 34.6822L38.5956 34.5627L38.5937 34.46L38.5872 34.3265L38.5754 34.1731L38.5688 34.0322L38.5723 33.9689C38.5911 33.7943 38.6911 33.6415 38.8639 33.5759L38.9321 33.5554L38.9913 33.5467L39.0279 33.544L39.0925 33.5444ZM39.405 34.4063L39.4087 34.5567L39.4078 34.698L39.4009 34.9523C39.4109 35.8314 40.0801 36.5608 40.9689 36.6668L41.0724 36.6763L41.3254 36.6863L41.4692 36.6957L41.6321 36.711L41.6288 36.4928L41.6318 36.3461L41.6349 36.2679C41.6779 35.3437 40.9917 34.5614 40.0687 34.4513L39.9651 34.4418L39.7122 34.4317L39.5684 34.4224L39.405 34.4063ZM54.0482 28.4274C54.1804 30.0711 53.7816 31.4991 52.8517 32.6905C51.9218 33.8818 50.634 34.6147 49.0086 34.8839C48.8676 34.9072 48.7327 34.8551 48.6433 34.7583L48.6103 34.7357C48.4494 34.6099 48.4089 34.3871 48.5067 34.2145L48.5179 34.1968C48.4589 32.6864 48.8641 31.3657 49.7335 30.252C50.6633 29.0606 51.9512 28.3278 53.5765 28.0586C53.8113 28.0197 54.029 28.19 54.0482 28.4274ZM53.2585 28.9527L53.1165 28.9871C51.9705 29.2861 51.0607 29.8737 50.3743 30.7531C49.839 31.4388 49.5087 32.2135 49.3831 33.0835L50.7523 31.3304C50.8905 31.1533 51.146 31.1219 51.323 31.2603C51.4839 31.3861 51.5244 31.6089 51.4266 31.7814L51.3931 31.8315L49.8158 33.8536C50.6731 33.5735 51.387 33.117 51.9637 32.4827L52.0944 32.3332L52.2109 32.1893C52.8569 31.3617 53.2045 30.4043 53.2537 29.3063L53.2594 29.0988L53.2585 28.9527ZM69.7449 29.4018C70.5895 29.4018 71.2743 30.0871 71.2743 30.9326C71.2743 31.7781 70.5895 32.4635 69.7449 32.4635C68.9002 32.4635 68.2154 31.7781 68.2154 30.9326C68.2154 30.0871 68.9002 29.4018 69.7449 29.4018ZM69.7449 30.2157C69.3493 30.2157 69.0286 30.5367 69.0286 30.9326C69.0286 31.3285 69.3493 31.6495 69.7449 31.6495C70.1404 31.6495 70.4611 31.3285 70.4611 30.9326C70.4611 30.5367 70.1404 30.2157 69.7449 30.2157ZM107.772 28.8656C107.058 28.8624 106.443 29.3719 106.314 30.0602L106.299 30.1552L106.277 30.4026L106.258 30.5557L106.416 30.5596L106.663 30.5715C107.377 30.5747 107.992 30.0652 108.121 29.3769L108.136 29.2819L108.158 29.0345L108.177 28.8806L108.019 28.8775L107.859 28.8684L107.772 28.8656ZM101.633 23.4725C100.493 23.4725 99.569 24.3973 99.569 25.538C99.569 26.6788 100.493 27.6036 101.633 27.6036C102.772 27.6036 103.696 26.6788 103.696 25.538C103.696 25.257 103.64 24.989 103.539 24.7447C103.471 24.6179 103.401 24.5048 103.329 24.4057C103.299 24.3655 103.278 24.3218 103.265 24.2765C102.889 23.7875 102.298 23.4725 101.633 23.4725ZM85.8382 19.9518C86.0695 19.9629 86.2448 20.1648 86.2236 20.3956C86.036 22.439 85.2445 24.0777 83.8523 25.289C82.4462 26.5125 80.7979 27.0587 78.7704 26.9613C78.5391 26.9502 78.3637 26.7483 78.3849 26.5175C78.5781 24.4143 79.3092 22.8026 80.667 21.6212C82.0591 20.4099 83.7905 19.8534 85.8382 19.9518ZM85.3627 20.7543L85.1224 20.7587C83.5778 20.8078 82.2756 21.3001 81.2005 22.2355C80.2325 23.0777 79.6267 24.1738 79.3408 25.5818L81.9849 23.1552C82.1503 23.0032 82.4075 23.0143 82.5593 23.18C82.6959 23.3291 82.7006 23.5525 82.5795 23.7065L82.5345 23.755L79.9553 26.1238C81.1111 26.0111 82.103 25.6214 82.9921 24.9416L83.1685 24.8018L83.3188 24.6747C84.3939 23.7393 85.0622 22.517 85.3257 20.9928L85.3627 20.7543ZM49.9834 21.2248C49.3633 21.2248 48.8072 21.4985 48.4289 21.9318L48.3514 22.0255L48.2606 22.1723L48.1135 22.4171C47.989 22.682 47.9199 22.9781 47.9199 23.2903C47.9199 24.4311 48.8437 25.3558 49.9834 25.3558C51.1231 25.3558 52.047 24.4311 52.047 23.2903C52.047 22.1495 51.1231 21.2248 49.9834 21.2248ZM75.1965 15.7908L75.1129 15.8053L74.9058 15.8353L74.552 15.8739C73.5389 16.0167 72.7827 16.8848 72.7771 17.8972L72.7794 18.0062L72.7986 18.2765L72.8058 18.4334L72.8074 18.6513L72.9546 18.6272L73.0987 18.6071L73.4526 18.5686C74.4657 18.4258 75.2218 17.5576 75.2274 16.5452L75.2251 16.4362L75.2059 16.1659L75.1988 16.0115L75.1961 15.8742L75.1965 15.7908ZM81.4221 11.4198C82.2667 11.4198 82.9515 12.1052 82.9515 12.9507C82.9515 13.7961 82.2667 14.4815 81.4221 14.4815C80.5774 14.4815 79.8926 13.7961 79.8926 12.9507C79.8926 12.1052 80.5774 11.4198 81.4221 11.4198ZM81.4221 12.2338C81.0265 12.2338 80.7059 12.5548 80.7059 12.9507C80.7059 13.3466 81.0265 13.6676 81.4221 13.6676C81.8176 13.6676 82.1383 13.3466 82.1383 12.9507C82.1383 12.5548 81.8176 12.2338 81.4221 12.2338ZM68.3975 8.72253C69.2421 8.72253 69.9269 9.40792 69.9269 10.2534C69.9269 11.0989 69.2421 11.7842 68.3975 11.7842C67.5528 11.7842 66.8681 11.0989 66.8681 10.2534C66.8681 9.40792 67.5528 8.72253 68.3975 8.72253ZM68.3975 9.53651C68.0019 9.53651 67.6813 9.85747 67.6813 10.2534C67.6813 10.6493 68.0019 10.9703 68.3975 10.9703C68.793 10.9703 69.1137 10.6493 69.1137 10.2534C69.1137 9.85747 68.793 9.53651 68.3975 9.53651ZM84.1045 0.863663L84.0113 0.874855C81.4726 1.19339 79.5246 2.00885 78.1804 3.28753C76.935 4.75998 76.2027 6.46394 75.9815 8.40912L79.7379 4.64679C80.0984 4.28568 80.6414 4.77737 80.3616 5.16492L80.327 5.20751L80.1445 5.40936L79.934 5.63565L79.5737 6.01315L79.1678 6.42965L78.726 6.87608L77.9404 7.65846L77.1341 8.45061L76.58 8.98975L76.8748 8.97018L77.073 8.95323L77.277 8.93219L77.4866 8.90632L77.7065 8.87402L78.038 8.81444C79.4873 8.52345 80.7678 7.85591 81.9174 6.63263C83.0936 5.25116 83.8122 3.44893 84.0686 1.21676L84.0983 0.935505L84.1045 0.863663Z" fill="#1D1D23"/>
</svg>
