<svg width="17" height="10" viewBox="0 0 17 10" fill="none" xmlns="http://www.w3.org/2000/svg">
<path d="M6.33594 1.04047H10.6306V8.68849H6.33594V1.04047Z" fill="#FF5F00"/>
<path d="M6.60862 4.86447C6.60862 3.31054 7.34486 1.93228 8.47648 1.04046C7.64481 0.39186 6.59499 0 5.44974 0C2.73657 0 0.541504 2.1755 0.541504 4.86447C0.541504 7.55344 2.73657 9.72894 5.44974 9.72894C6.59499 9.72894 7.64481 9.33708 8.47648 8.68848C7.34486 7.81018 6.60862 6.4184 6.60862 4.86447Z" fill="#EB001B"/>
<path d="M16.4252 4.86447C16.4252 7.55344 14.2301 9.72894 11.517 9.72894C10.3717 9.72894 9.32191 9.33708 8.49023 8.68848C9.63549 7.79666 10.3581 6.4184 10.3581 4.86447C10.3581 3.31054 9.62185 1.93228 8.49023 1.04046C9.32191 0.39186 10.3717 0 11.517 0C14.2301 0 16.4252 2.18901 16.4252 4.86447Z" fill="#F79E1B"/>
</svg>
