<svg width="64" height="64" viewBox="0 0 64 64" fill="none" xmlns="http://www.w3.org/2000/svg">
<g clip-path="url(#clip0_314_4913)">
<path d="M15.7018 25.2295C11.554 25.2295 8.1795 28.6039 8.1795 32.7517C8.1795 36.8996 11.554 40.274 15.7018 40.274C19.8495 40.274 23.224 36.8996 23.224 32.7517C23.224 28.6039 19.8496 25.2295 15.7018 25.2295ZM15.7018 36.513C13.6278 36.513 11.9404 34.8257 11.9404 32.7516C11.9404 30.6776 13.6276 28.9902 15.7018 28.9902C17.7758 28.9902 19.4631 30.6775 19.4631 32.7516C19.4631 34.8257 17.7759 36.513 15.7018 36.513Z" fill="white"/>
<path d="M40.9024 27.15H33.3812V30.9112H40.9024V27.15Z" fill="white"/>
<path d="M52.1851 27.15H44.6639V30.9112H52.1851V27.15Z" fill="white"/>
<path d="M40.9024 34.6725H33.3812V38.4338H40.9024V34.6725Z" fill="white"/>
<path d="M52.1851 34.6725H44.6639V38.4338H52.1851V34.6725Z" fill="white"/>
<path d="M40.9024 12.2787H33.3812V16.04H40.9024V12.2787Z" fill="white"/>
<path d="M52.1851 12.2787H44.6639V16.04H52.1851V12.2787Z" fill="white"/>
<path d="M40.9024 19.8H33.3812V23.5613H40.9024V19.8Z" fill="white"/>
<path d="M52.1851 19.8H44.6639V23.5613H52.1851V19.8Z" fill="white"/>
<path d="M56.4484 3.7675V0H28.8668V3.78662H21.2193V18.0834C19.5022 17.4354 17.643 17.0798 15.7019 17.0798C7.06028 17.0798 0.0297852 24.1103 0.0297852 32.7519C0.0297852 36.2916 2.36666 42.0952 7.17391 50.4941C10.6182 56.5112 14.1117 61.6612 14.1465 61.7126L15.7017 64L17.2568 61.7126C17.2848 61.6712 19.5552 58.3244 22.2365 53.8812H63.97V3.793H63.9702L56.4484 3.7675ZM15.7018 57.2516C11.3465 50.54 3.79066 37.8391 3.79066 32.7518C3.79066 26.1839 9.13391 20.8406 15.7018 20.8406C22.2698 20.8406 27.613 26.1839 27.613 32.7518C27.613 37.8391 20.0573 50.54 15.7018 57.2516ZM60.2094 50.1203H44.6642V42.347H40.9033V50.1203H24.4423C29.1048 41.9238 31.374 36.2386 31.374 32.7518C31.374 27.5798 28.855 22.9856 24.9802 20.1296V7.54763H32.6277V3.761H52.6877V7.51562L60.2094 7.54125V50.1203Z" fill="white"/>
</g>
<defs>
<clipPath id="clip0_314_4913">
<rect width="64" height="64" fill="white"/>
</clipPath>
</defs>
</svg>
