<svg width="64" height="64" viewBox="0 0 64 64" fill="none" xmlns="http://www.w3.org/2000/svg">
<g clip-path="url(#clip0_314_4962)">
<path d="M32.0127 64L30.4375 62.7251C30.2002 62.5249 24.4126 57.8374 18.5498 51.1123C10.4751 41.8252 6.375 33.5 6.375 26.3501V25.6377C6.375 11.5 17.875 0 32.0127 0C46.1499 0 57.6499 11.5 57.6499 25.6377V26.3501C57.6499 33.5 53.5498 41.8374 45.4624 51.1123C39.6001 57.8374 33.8252 62.5376 33.5752 62.7251L32.0127 64ZM32.0127 5C20.6377 5 11.375 14.2627 11.375 25.6377V26.3501C11.375 38.4375 26.9375 53.0625 32.0127 57.5C37.0752 53.0625 52.6499 38.4375 52.6499 26.3501V25.6377C52.6499 14.2627 43.3877 5 32.0127 5ZM34.8877 29.8877V24.1377H29.1377V29.8877H34.8877ZM46.3999 29.8877V24.1377H40.6499V29.8877H46.3999ZM40.6377 18.3877H34.8877V24.1377H40.6377V18.3877ZM23.3877 29.8877V24.1377H17.6377V29.8877H23.3877ZM29.1377 18.3877H23.3877V24.1377H29.1377V18.3877Z" fill="white"/>
</g>
<defs>
<clipPath id="clip0_314_4962">
<rect width="64" height="64" fill="white"/>
</clipPath>
</defs>
</svg>
