<?xml version="1.0" standalone="no"?>
<!DOCTYPE svg PUBLIC "-//W3C//DTD SVG 20010904//EN"
 "http://www.w3.org/TR/2001/REC-SVG-20010904/DTD/svg10.dtd">
<svg version="1.0" xmlns="http://www.w3.org/2000/svg"
 width="88.000000pt" height="88.000000pt" viewBox="0 0 88.000000 88.000000"
 preserveAspectRatio="xMidYMid meet">
<metadata>
Created by potrace 1.14, written by Peter Selinger 2001-2017
</metadata>
<g transform="translate(0.000000,88.000000) scale(0.100000,-0.100000)"
fill="#000000" stroke="none">
<path d="M12 788 c2 -6 17 -13 34 -15 59 -8 65 -25 65 -179 0 -448 1 -421 -23
-449 -13 -14 -36 -28 -53 -31 -34 -6 -41 -11 -32 -21 9 -8 255 -8 264 1 10 9
-4 19 -29 21 -88 6 -91 17 -93 320 0 140 2 255 6 255 4 0 60 -133 125 -295
103 -257 121 -295 138 -293 18 3 58 91 142 308 54 139 98 246 103 252 9 10 7
-483 -3 -510 -5 -15 -20 -25 -52 -33 -59 -15 -56 -29 9 -30 28 0 93 -2 142 -3
50 -1 96 0 103 2 21 7 13 29 -10 27 -35 -3 -66 15 -75 44 -5 14 -8 149 -8 299
1 260 2 273 21 293 11 11 33 21 49 22 16 1 30 8 33 15 3 10 -19 12 -98 10
l-102 -3 -65 -170 c-35 -93 -69 -181 -73 -195 -5 -14 -25 -65 -44 -115 -34
-89 -34 -89 -46 -60 -7 17 -16 39 -21 50 -14 33 -189 487 -189 491 0 2 -50 4
-111 4 -80 0 -110 -3 -107 -12z"/>
</g>
</svg>
