<svg width="21" height="7" viewBox="0 0 21 7" fill="none" xmlns="http://www.w3.org/2000/svg">
<path fill-rule="evenodd" clip-rule="evenodd" d="M4.46818 4.4689L6.11733 0.0165405V0.0172597H7.8983L5.2518 6.56329H3.47082L1.96069 0.929969C3.02759 1.47683 3.9836 2.57775 4.28853 3.59086L4.46818 4.4689ZM8.57692 0.0165405L7.52382 6.56984H9.20706L10.2595 0.0165405H8.57692ZM13.6542 2.68599C13.066 2.39551 12.7054 2.19946 12.7054 1.90237C12.7125 1.63225 13.0103 1.35551 13.6752 1.35551C14.222 1.34177 14.624 1.47029 14.9289 1.59816L15.0817 1.66634L15.3105 0.295222C14.978 0.166705 14.4509 0.0250987 13.7997 0.0250987C12.1375 0.0250987 10.967 0.889335 10.9598 2.12539C10.946 3.03752 11.7978 3.54368 12.4352 3.84731C13.0863 4.15879 13.308 4.36074 13.308 4.63748C13.3008 5.06237 12.7814 5.25841 12.2969 5.25841C11.6254 5.25841 11.2648 5.15744 10.7173 4.92069L10.4956 4.81972L10.2602 6.24462C10.6556 6.42039 11.3828 6.57508 12.1376 6.583C13.9041 6.583 15.0535 5.73185 15.068 4.41453C15.0738 3.6919 14.6246 3.13842 13.6542 2.68599ZM18.3235 0.0368213H19.6258L20.9831 6.57509H19.4251L19.1726 5.26956H17.1963L16.7097 6.56984H14.9432L17.4435 0.564051C17.6173 0.152249 17.9222 0.0368213 18.3235 0.0368213ZM17.6863 3.95735C17.7223 3.95405 18.3642 1.83477 18.3642 1.83477L18.877 3.95735H17.6863Z" fill="#1D68CA"/>
<path d="M3.73369 0.861706C3.60517 0.362021 3.19531 0.025014 2.63866 0.0178223H0.0268973L0 0.139076C2.03736 0.64135 3.74742 2.18686 4.3022 3.64061L3.73369 0.861706Z" fill="#FFAA09"/>
</svg>
